<?xml version="1.0" encoding="utf-8"?>
<!-- Generator: Adobe Illustrator 23.1.0, SVG Export Plug-In . SVG Version: 6.00 Build 0)  -->
<svg version="1.1" id="Слой_1" xmlns="http://www.w3.org/2000/svg" xmlns:xlink="http://www.w3.org/1999/xlink" x="0px" y="0px"
	 width="514.706px" height="219.119px" viewBox="0 0 514.706 219.119" enable-background="new 0 0 514.706 219.119"
	 xml:space="preserve">
<image display="none" overflow="visible" width="856" height="363" xlink:href="EE064405.jpg"  transform="matrix(0.6902 0 0 0.6902 -29.7913 -26.667)">
</image>
<polygon fill="#FFFFFF" points="73.836,16.183 73.836,0 514.498,0.001 514.498,152.587 246.118,152.587 246.118,149.762 
	509.677,149.762 509.677,7.707 83.822,7.707 83.822,16.202 "/>
<g>
	<path fill="#FFFFFF" d="M219.378,66.202c6.575,0,12.078,2.194,16.508,6.582c4.43,4.388,6.645,9.789,6.645,16.203
		c0,6.356-2.21,11.746-6.63,16.173c-4.42,4.427-9.81,6.641-16.169,6.641c-6.438,0-11.872-2.203-16.302-6.611
		c-4.429-4.407-6.645-9.74-6.645-15.997c0-4.171,1.009-8.037,3.027-11.599c2.018-3.561,4.77-6.35,8.255-8.367
		C211.551,67.211,215.322,66.202,219.378,66.202z M219.57,70.423c-3.212,0-6.257,0.837-9.134,2.511
		c-2.878,1.674-5.124,3.929-6.74,6.763c-1.616,2.836-2.424,5.996-2.424,9.482c0,5.159,1.789,9.516,5.365,13.07
		c3.577,3.555,7.888,5.332,12.933,5.332c3.369,0,6.488-0.818,9.356-2.451c2.867-1.634,5.104-3.869,6.71-6.705
		c1.606-2.835,2.409-5.986,2.409-9.452c0-3.445-0.803-6.562-2.409-9.348s-3.868-5.016-6.784-6.69S222.841,70.423,219.57,70.423z"/>
	<path fill="#FFFFFF" d="M263.562,67.295h8.648c4.82,0,8.086,0.197,9.798,0.591c2.577,0.591,4.673,1.856,6.286,3.797
		c1.613,1.941,2.421,4.329,2.421,7.166c0,2.365-0.556,4.443-1.668,6.236c-1.112,1.793-2.7,3.147-4.766,4.063
		s-4.919,1.384-8.559,1.404l15.613,20.158h-5.367l-15.614-20.158h-2.453v20.158h-4.339V67.295z M267.901,71.545v14.757l7.479,0.059
		c2.897,0,5.04-0.275,6.43-0.826c1.389-0.551,2.473-1.432,3.252-2.642c0.779-1.21,1.167-2.562,1.167-4.058
		c0-1.456-0.394-2.779-1.182-3.97c-0.789-1.19-1.823-2.041-3.104-2.553c-1.281-0.511-3.41-0.767-6.385-0.767H267.901z"/>
	<path fill="#FFFFFF" d="M312.129,67.295h24.879v4.25h-20.542V85.15h20.365v4.25h-20.365v17.058h20.365v4.25h-24.702V67.295z"/>
	<path fill="#FFFFFF" d="M374.331,67.295l20.246,43.414h-4.686l-6.828-14.284H364.36l-6.763,14.284h-4.84l20.512-43.414H374.331z
		 M373.783,76.519l-7.439,15.715h14.843L373.783,76.519z"/>
	<path fill="#FFFFFF" d="M413.395,67.295h4.339v39.223h16.704v4.191h-21.043V67.295z"/>
	<path fill="#FFFFFF" d="M453.433,67.295h24.879v4.25h-20.541V85.15h20.363v4.25h-20.363v17.058h20.363v4.25h-24.702V67.295z"/>
</g>
<g>
	<path fill="#FFFFFF" d="M247.467,172.275c0,0.802,0.502,1.353,1.505,1.656c0.368,0.111,0.758,0.166,1.172,0.166
		s0.804-0.055,1.172-0.166c1.003-0.303,1.505-0.854,1.505-1.656c0-0.56-0.295-0.998-0.885-1.316
		c-0.353-0.191-0.998-0.403-1.936-0.635c-1.26-0.307-2.127-0.612-2.601-0.915c-0.787-0.504-1.18-1.253-1.18-2.246
		c0-0.711,0.232-1.323,0.695-1.837c0.419-0.459,0.985-0.797,1.701-1.013c0.484-0.146,0.993-0.22,1.527-0.22
		c0.534,0,1.044,0.074,1.528,0.22c0.716,0.217,1.283,0.555,1.701,1.013c0.463,0.514,0.695,1.126,0.695,1.837h-1.247
		c0-0.802-0.502-1.353-1.505-1.656c-0.368-0.111-0.759-0.166-1.172-0.166s-0.804,0.055-1.172,0.166
		c-1.003,0.302-1.505,0.854-1.505,1.656c0,0.559,0.295,1,0.885,1.323c0.353,0.191,0.998,0.401,1.936,0.628
		c1.26,0.308,2.127,0.612,2.601,0.915c0.787,0.504,1.18,1.253,1.18,2.245c0,0.716-0.232,1.329-0.695,1.838
		c-0.419,0.459-0.985,0.797-1.701,1.013c-0.484,0.146-0.993,0.219-1.528,0.219c-0.534,0-1.043-0.073-1.527-0.219
		c-0.716-0.217-1.283-0.555-1.701-1.013c-0.463-0.509-0.695-1.122-0.695-1.838H247.467z"/>
	<path fill="#FFFFFF" d="M259.917,165.568v9.565h-1.248v-9.565h-3.387v-1.247h8.03v1.247H259.917z"/>
	<path fill="#FFFFFF" d="M273.311,164.328v6.661c0,1.195-0.423,2.213-1.27,3.055c-0.841,0.842-1.857,1.263-3.047,1.263
		c-1.195,0-2.213-0.421-3.055-1.263c-0.841-0.841-1.263-1.86-1.263-3.055v-6.661h1.248v6.661c0,0.847,0.3,1.57,0.9,2.17
		c0.6,0.599,1.323,0.899,2.17,0.899s1.57-0.3,2.17-0.899c0.599-0.6,0.9-1.324,0.9-2.17v-6.661H273.311z"/>
	<path fill="#FFFFFF" d="M279.099,164.321c1.492,0,2.764,0.527,3.818,1.58c1.059,1.059,1.588,2.334,1.588,3.826
		c0,1.492-0.529,2.768-1.588,3.826c-1.054,1.054-2.327,1.581-3.818,1.581h-3.819v-10.812H279.099z M276.528,165.568v8.317h2.571
		c1.149,0,2.129-0.405,2.941-1.217c0.812-0.812,1.217-1.792,1.217-2.942c0-1.149-0.406-2.129-1.217-2.941
		c-0.812-0.812-1.792-1.217-2.941-1.217H276.528z"/>
	<path fill="#FFFFFF" d="M287.54,164.321v10.812h-1.247v-10.812H287.54z"/>
	<path fill="#FFFFFF" d="M298.273,165.069c0.827,0.585,1.439,1.376,1.838,2.374c0.292,0.721,0.437,1.48,0.437,2.276
		c0,0.797-0.145,1.555-0.437,2.276c-0.399,1.004-1.011,1.797-1.838,2.382c-0.918,0.645-2.012,0.967-3.282,0.967
		c-1.27,0-2.364-0.322-3.281-0.967c-0.827-0.584-1.441-1.378-1.845-2.382c-0.287-0.721-0.431-1.479-0.431-2.276
		c0-0.796,0.144-1.555,0.431-2.276c0.404-0.998,1.019-1.789,1.845-2.374c0.917-0.65,2.011-0.975,3.281-0.975
		C296.261,164.094,297.355,164.419,298.273,165.069z M297.539,166.09c-0.711-0.499-1.56-0.749-2.548-0.749
		c-0.988,0-1.837,0.25-2.548,0.749c-0.64,0.443-1.114,1.048-1.421,1.814c-0.227,0.57-0.34,1.175-0.34,1.815
		c0,0.64,0.113,1.245,0.34,1.815c0.307,0.766,0.781,1.373,1.421,1.822c0.711,0.494,1.56,0.741,2.548,0.741
		c0.988,0,1.838-0.247,2.548-0.741c0.64-0.449,1.114-1.056,1.421-1.822c0.226-0.57,0.341-1.174,0.341-1.815
		c0-0.64-0.115-1.245-0.341-1.815C298.653,167.139,298.18,166.534,297.539,166.09z"/>
	<path fill="#FFFFFF" d="M315.012,165.069c0.828,0.585,1.44,1.376,1.838,2.374c0.292,0.721,0.438,1.48,0.438,2.276
		c0,0.797-0.146,1.555-0.438,2.276c-0.398,1.004-1.01,1.797-1.838,2.382c-0.917,0.645-2.01,0.967-3.281,0.967
		s-2.365-0.322-3.282-0.967c-0.827-0.584-1.442-1.378-1.845-2.382c-0.287-0.721-0.431-1.479-0.431-2.276
		c0-0.796,0.144-1.555,0.431-2.276c0.403-0.998,1.019-1.789,1.845-2.374c0.917-0.65,2.011-0.975,3.282-0.975
		S314.095,164.419,315.012,165.069z M314.279,166.09c-0.711-0.499-1.56-0.749-2.548-0.749c-0.989,0-1.838,0.25-2.548,0.749
		c-0.641,0.443-1.115,1.048-1.422,1.814c-0.227,0.57-0.34,1.175-0.34,1.815c0,0.64,0.113,1.245,0.34,1.815
		c0.307,0.766,0.781,1.373,1.422,1.822c0.71,0.494,1.559,0.741,2.548,0.741c0.988,0,1.837-0.247,2.548-0.741
		c0.64-0.449,1.113-1.056,1.422-1.822c0.226-0.57,0.34-1.174,0.34-1.815c0-0.64-0.114-1.245-0.34-1.815
		C315.393,167.139,314.919,166.534,314.279,166.09z"/>
	<path fill="#FFFFFF" d="M325.518,165.568h-5.316v2.987h4.787v1.247h-4.787v5.331h-1.247v-10.812h6.562V165.568z"/>
	<path fill="#FFFFFF" d="M332.686,164.321v10.812h-1.248v-10.812H332.686z"/>
	<path fill="#FFFFFF" d="M335.033,175.133v-11.387l8.333,8.9v-8.325h1.248v11.47l-8.333-8.9v8.242H335.033z"/>
	<path fill="#FFFFFF" d="M350.764,165.568v9.565h-1.247v-9.565h-3.387v-1.247h8.029v1.247H350.764z"/>
	<path fill="#FFFFFF" d="M362.086,165.568h-5.316v2.987h4.787v1.247h-4.787v4.09h5.316v1.24h-6.562v-10.812h6.562V165.568z"/>
	<path fill="#FFFFFF" d="M363.82,175.133v-10.812h4.938c1.084,0,1.978,0.31,2.683,0.93c0.716,0.63,1.074,1.444,1.074,2.442
		c0,1.044-0.366,1.931-1.096,2.662c-0.519,0.519-1.132,0.857-1.838,1.013l3.313,3.765h-1.664l-3.236-3.682h-2.927v3.682H363.82z
		 M365.068,165.568v4.643h3.69c0.695,0,1.287-0.247,1.777-0.741c0.494-0.488,0.74-1.081,0.74-1.777h-0.007
		c0-0.625-0.216-1.126-0.65-1.504c-0.469-0.413-1.089-0.62-1.86-0.62H365.068z"/>
	<path fill="#FFFFFF" d="M375.619,164.321v10.812h-1.248v-10.812H375.619z"/>
	<path fill="#FFFFFF" d="M386.352,165.069c0.828,0.585,1.44,1.376,1.838,2.374c0.292,0.721,0.438,1.48,0.438,2.276
		c0,0.797-0.146,1.555-0.438,2.276c-0.398,1.004-1.01,1.797-1.838,2.382c-0.917,0.645-2.01,0.967-3.281,0.967
		c-1.27,0-2.365-0.322-3.282-0.967c-0.827-0.584-1.442-1.378-1.845-2.382c-0.287-0.721-0.431-1.479-0.431-2.276
		c0-0.796,0.144-1.555,0.431-2.276c0.403-0.998,1.019-1.789,1.845-2.374c0.917-0.65,2.012-0.975,3.282-0.975
		C384.341,164.094,385.435,164.419,386.352,165.069z M385.619,166.09c-0.711-0.499-1.56-0.749-2.548-0.749
		c-0.989,0-1.838,0.25-2.548,0.749c-0.641,0.443-1.115,1.048-1.422,1.814c-0.227,0.57-0.34,1.175-0.34,1.815
		c0,0.64,0.113,1.245,0.34,1.815c0.307,0.766,0.781,1.373,1.422,1.822c0.71,0.494,1.559,0.741,2.548,0.741
		c0.988,0,1.837-0.247,2.548-0.741c0.64-0.449,1.113-1.056,1.422-1.822c0.226-0.57,0.34-1.174,0.34-1.815
		c0-0.64-0.114-1.245-0.34-1.815C386.733,167.139,386.259,166.534,385.619,166.09z"/>
	<path fill="#FFFFFF" d="M390.446,175.133v-10.812h4.938c1.084,0,1.978,0.31,2.683,0.93c0.716,0.63,1.074,1.444,1.074,2.442
		c0,1.044-0.366,1.931-1.096,2.662c-0.519,0.519-1.132,0.857-1.838,1.013l3.313,3.765h-1.664l-3.236-3.682h-2.927v3.682H390.446z
		 M391.694,165.568v4.643h3.69c0.695,0,1.287-0.247,1.777-0.741c0.494-0.488,0.74-1.081,0.74-1.777h-0.007
		c0-0.625-0.217-1.126-0.65-1.504c-0.469-0.413-1.089-0.62-1.86-0.62H391.694z"/>
	<path fill="#FFFFFF" d="M404.199,175.133l5.542-11.485l5.543,11.485h-1.377l-1.444-2.979h-5.444l-1.437,2.979H404.199z
		 M411.866,170.906l-2.125-4.393l-2.125,4.393H411.866z"/>
	<path fill="#FFFFFF" d="M416.572,175.133v-11.387l8.333,8.9v-8.325h1.248v11.47l-8.333-8.9v8.242H416.572z"/>
	<path fill="#FFFFFF" d="M432.092,164.321c1.492,0,2.764,0.527,3.818,1.58c1.058,1.059,1.588,2.334,1.588,3.826
		c0,1.492-0.53,2.768-1.588,3.826c-1.054,1.054-2.326,1.581-3.818,1.581h-3.818v-10.812H432.092z M429.52,165.568v8.317h2.571
		c1.149,0,2.13-0.405,2.94-1.217c0.812-0.812,1.218-1.792,1.218-2.942c0-1.149-0.406-2.129-1.218-2.941
		c-0.811-0.812-1.792-1.217-2.94-1.217H429.52z"/>
	<path fill="#FFFFFF" d="M449.883,165.568h-5.316v2.987h4.787v1.247h-4.787v4.09h5.316v1.24h-6.562v-10.812h6.562V165.568z"/>
	<path fill="#FFFFFF" d="M452.282,164.321l3.426,4.393l3.425-4.393h1.573l-4.212,5.406l4.212,5.406h-1.573l-3.425-4.393
		l-3.426,4.393h-1.572l4.211-5.406l-4.211-5.406H452.282z"/>
	<path fill="#FFFFFF" d="M465.949,165.568v9.565h-1.247v-9.565h-3.387v-1.247h8.029v1.247H465.949z"/>
	<path fill="#FFFFFF" d="M477.271,165.568h-5.316v2.987h4.787v1.247h-4.787v4.09h5.316v1.24h-6.562v-10.812h6.562V165.568z"/>
	<path fill="#FFFFFF" d="M479.005,175.133v-10.812h4.938c1.084,0,1.978,0.31,2.683,0.93c0.716,0.63,1.074,1.444,1.074,2.442
		c0,1.044-0.366,1.931-1.096,2.662c-0.519,0.519-1.132,0.857-1.838,1.013l3.313,3.765h-1.664l-3.236-3.682h-2.927v3.682H479.005z
		 M480.253,165.568v4.643h3.69c0.695,0,1.287-0.247,1.777-0.741c0.494-0.488,0.74-1.081,0.74-1.777h-0.007
		c0-0.625-0.216-1.126-0.65-1.504c-0.469-0.413-1.089-0.62-1.86-0.62H480.253z"/>
	<path fill="#FFFFFF" d="M490.805,164.321v10.812h-1.248v-10.812H490.805z"/>
	<path fill="#FFFFFF" d="M501.537,165.069c0.828,0.585,1.44,1.376,1.838,2.374c0.292,0.721,0.438,1.48,0.438,2.276
		c0,0.797-0.146,1.555-0.438,2.276c-0.398,1.004-1.01,1.797-1.838,2.382c-0.917,0.645-2.01,0.967-3.281,0.967
		c-1.27,0-2.365-0.322-3.282-0.967c-0.827-0.584-1.442-1.378-1.845-2.382c-0.287-0.721-0.431-1.479-0.431-2.276
		c0-0.796,0.144-1.555,0.431-2.276c0.403-0.998,1.019-1.789,1.845-2.374c0.917-0.65,2.012-0.975,3.282-0.975
		C499.527,164.094,500.62,164.419,501.537,165.069z M500.805,166.09c-0.711-0.499-1.56-0.749-2.548-0.749
		c-0.989,0-1.838,0.25-2.548,0.749c-0.641,0.443-1.115,1.048-1.422,1.814c-0.227,0.57-0.34,1.175-0.34,1.815
		c0,0.64,0.113,1.245,0.34,1.815c0.307,0.766,0.781,1.373,1.422,1.822c0.71,0.494,1.559,0.741,2.548,0.741
		c0.988,0,1.837-0.247,2.548-0.741c0.64-0.449,1.113-1.056,1.422-1.822c0.226-0.57,0.34-1.174,0.34-1.815
		c0-0.64-0.114-1.245-0.34-1.815C501.918,167.139,501.444,166.534,500.805,166.09z"/>
	<path fill="#FFFFFF" d="M505.632,175.133v-10.812h4.938c1.084,0,1.978,0.31,2.683,0.93c0.716,0.63,1.074,1.444,1.074,2.442
		c0,1.044-0.366,1.931-1.096,2.662c-0.519,0.519-1.132,0.857-1.838,1.013l3.313,3.765h-1.664l-3.236-3.682h-2.927v3.682H505.632z
		 M506.88,165.568v4.643h3.69c0.695,0,1.287-0.247,1.777-0.741c0.494-0.488,0.74-1.081,0.74-1.777h-0.007
		c0-0.625-0.217-1.126-0.65-1.504c-0.469-0.413-1.089-0.62-1.86-0.62H506.88z"/>
</g>
<g>
	<path fill="#FFFFFF" d="M154.011,148.504c0.904,0,1.687-0.33,2.35-0.992c0.661-0.661,0.992-1.41,0.992-2.246
		c0-1.672-0.836-2.507-2.507-2.507c-0.906,0-1.689,0.332-2.351,0.992c-0.662,0.663-0.992,1.41-0.992,2.246
		C151.504,147.668,152.34,148.504,154.011,148.504z"/>
	<path fill="#FFFFFF" d="M182.318,150.958c-1.394-0.661-2.577-0.992-3.552-0.992c-1.045,0-2.193,0.245-3.447,0.732
		c-3.274,1.115-6.651,4.249-10.133,9.401c-1.297,1.92-2.351,3.727-3.165,5.424c-0.274,0.348-0.571,0.725-0.908,1.157
		c-2.021,2.577-3.865,4.596-5.536,6.059c-2.507,2.229-4.771,3.343-6.79,3.343c-1.812,0-2.716-1.253-2.716-3.761
		c0-3.62,1.74-8.148,5.223-13.58c0.277-0.418,0.418-0.8,0.418-1.149c0-0.627-0.261-1.217-0.783-1.776
		c-0.522-0.557-1.097-0.836-1.724-0.836c-0.558,0-1.045,0.314-1.463,0.94c-1.393,1.88-2.716,4.492-3.969,7.834
		c-0.23,0.596-0.433,1.164-0.625,1.719c-2.504,2.501-5.459,4.027-8.879,4.549c0-2.019-0.454-4.388-1.358-7.104
		c-0.836-2.228-1.708-4.492-2.611-6.79c-0.209-0.627-0.314-1.218-0.314-1.776c0-1.531,0.661-2.803,1.985-3.813
		c1.322-1.009,2.785-1.515,4.387-1.515c1.601,0,2.403-0.277,2.403-0.836c0-0.904-0.506-1.671-1.515-2.298
		c-1.01-0.627-2.002-0.94-2.977-0.94c-2.507,0-4.98,1.394-7.417,4.178c-1.533,1.742-3.465,4.649-5.798,8.723
		c-2.334,4.074-4.058,6.669-5.171,7.782c-0.767-0.974-1.498-1.462-2.193-1.462c-1.115,0-1.671,1.011-1.671,3.03
		c0,0.719,0.08,1.416,0.223,2.096c-0.925,0.763-1.893,1.5-2.938,2.187c-3.065,2.021-5.816,3.03-8.252,3.03
		c-2.577,0-3.865-1.427-3.865-4.283c0-1.183,0.243-2.646,0.731-4.387c2.437-0.904,5.118-2.716,8.043-5.432
		c3.273-3.064,4.91-5.675,4.91-7.834c0-0.695-0.261-1.358-0.783-1.985c-0.523-0.627-1.133-0.94-1.828-0.94
		c-3.552,0-6.999,2.298-10.342,6.894c-3.134,4.319-4.701,8.289-4.701,11.908c0,5.502,2.194,8.253,6.581,8.253
		c3.064,0,6.441-1.218,10.133-3.656c1.021-0.674,1.958-1.369,2.83-2.079c0.663,1.632,1.763,3.146,3.332,4.533
		c2.716,2.403,5.675,3.604,8.879,3.604c2.158,0,4.09-0.626,5.797-1.88c1.706-1.253,2.768-2.924,3.186-5.014
		c3.32-0.639,6.048-1.764,8.197-3.365c-0.309,1.325-0.469,2.485-0.469,3.47c0,4.108,1.914,6.164,5.745,6.164
		c3.689,0,8.024-2.896,13.002-8.67c-0.3,1.18-0.468,2.3-0.468,3.342c0,2.368,1.079,3.552,3.238,3.552
		c3.62,0,7.764-4.142,12.431-12.431c-1.115,5.363-1.917,9.367-2.403,12.013c-8.427,1.323-17.131,4.874-26.115,10.655
		c-10.584,6.825-15.878,13.962-15.878,21.415c0,3.272,1.133,5.884,3.395,7.834c2.264,1.95,5.066,2.926,8.409,2.926
		c8.497,0,16.505-5.502,24.026-16.505c4.038-5.782,7.346-13.894,9.924-24.34c0.695-0.07,1.392-0.105,2.089-0.105
		c1.462,0,2.455,0.173,2.977,0.523c0.522,0.348,0.818,0.522,0.888,0.522c0.277,0,0.418-0.209,0.418-0.626
		c0-1.742-1.846-2.542-5.536-2.403h-0.418c1.601-7.103,2.82-12.431,3.656-15.983c0.418-2.019,0.799-3.795,1.149-5.327
		c0.209-0.418,0.627-0.731,1.254-0.94c0.627-0.209,0.94-0.452,0.94-0.731C184.408,152.369,183.711,151.621,182.318,150.958z
		 M101.888,157.383c2.019-3.202,3.552-4.805,4.596-4.805c0.836,0,1.253,0.418,1.253,1.253c0,1.671-1.149,3.622-3.447,5.85
		c-1.951,1.95-3.83,3.308-5.641,4.074C99.068,162.224,100.147,160.099,101.888,157.383z M123.615,176.186
		c-4.04,0-6.999-2.298-8.879-6.895l0.313-0.313c3.62,2.507,8.321,3.727,14.102,3.656
		C128.175,175.002,126.331,176.186,123.615,176.186z M129.674,170.336c-4.319-0.209-8.602-1.358-12.849-3.447
		c2.716-3.273,5.919-7.834,9.611-13.684c-0.209,1.115,0.277,3.622,1.462,7.521c1.183,4.178,1.776,7.035,1.776,8.565
		C129.674,169.64,129.674,169.988,129.674,170.336z M165.082,201.256c-2.577,4.456-5.536,8.112-8.879,10.968
		c-4.179,3.621-8.426,5.433-12.745,5.433c-2.716,0-4.926-0.82-6.633-2.455c-1.706-1.637-2.56-3.813-2.56-6.529
		c0-4.946,2.612-9.923,7.835-14.938c3.413-3.204,8.288-6.408,14.624-9.61c6.336-3.204,11.804-5.189,16.4-5.954
		C171.455,187.293,168.773,194.989,165.082,201.256z M170.932,168.769c-2.439,3.204-4.423,4.805-5.954,4.805
		c-0.976,0-1.462-0.731-1.462-2.193c0-3.273,2.123-7.485,6.372-12.64c2.993-3.552,5.884-5.327,8.67-5.327
		c0.348,0,0.661,0.036,0.94,0.105C177.2,159.367,174.344,164.452,170.932,168.769z"/>
	<path fill="#FFFFFF" d="M220.551,163.128c-0.209,0-1.045,1.011-2.507,3.03c-1.812,2.507-3.447,4.387-4.909,5.64
		c-2.23,2.021-4.319,3.03-6.268,3.03c-2.507,0-3.761-1.323-3.761-3.97c0-3.761,1.949-8.843,5.85-15.252
		c0.277-0.486,0.418-0.904,0.418-1.253c0-1.601-0.801-2.403-2.403-2.403c-0.558,0-1.115,0.245-1.671,0.731
		c-2.856,3.066-5.014,5.432-6.477,7.104c-4.387,4.805-6.999,7.766-7.834,8.879c3.272-10.013,4.909-15.374,4.909-16.079
		c0-0.423-0.245-0.635-0.731-0.635c-0.627,0-1.324,0.246-2.089,0.738c-0.767,0.491-1.253,0.982-1.462,1.474
		c-0.488,2.177-0.836,3.827-1.045,4.95c-1.603,6.602-3.134,11.693-4.596,15.274c-0.14,0.211-0.209,0.493-0.209,0.842
		c0,1.264,0.314,1.896,0.94,1.896c0.209,0,0.523-0.313,0.94-0.94c5.083-7.73,10.063-13.789,14.938-18.176
		c-2.021,3.375-3.03,7.268-3.03,11.676c0,4.96,1.985,7.439,5.954,7.439c5.083,0,9.992-3.876,14.729-11.631
		c0.418-0.685,0.627-1.268,0.627-1.75C220.864,163.334,220.759,163.128,220.551,163.128z"/>
</g>
<g>
	<g>
		<path fill="#FFFFFF" d="M73.836,168.146c0-44.811,0-89.161,0-133.726c3.44,0,6.589,0,9.986,0c0,47.012,0,94.137,0,141.484
			c-0.646,0.061-1.404,0.195-2.161,0.195c-9.378,0.009-18.763,0.225-28.133-0.064c-12.358-0.38-23.978-3.346-33.889-11.255
			c-10.282-8.204-16.882-18.612-18.842-31.745c-1.824-12.217-0.725-24.072,5.517-34.941c8.276-14.412,20.806-22.867,37.229-25.622
			c7.004-1.175,14.017-1.264,21.216-1.021c0,2.63,0,5.071,0,7.86c-2.891,0-5.653-0.039-8.414,0.007
			c-8.517,0.141-16.878,1.201-24.541,5.211c-13.525,7.078-21.897,18.159-23.63,33.355c-3.176,27.837,15.671,46.151,37.437,49.308
			C54.832,168.53,64.073,167.947,73.836,168.146z"/>
		<path fill="#FFFFFF" d="M119.754,135.374c0-2.786,0-5.147,0-7.782c3.864-0.197,7.617-0.324,11.359-0.59
			c22.019-1.566,38.247-17.229,41.034-35.986c2.3-15.474-1.383-28.991-12.878-39.982c-6.274-5.999-13.824-9.664-22.284-11.265
			c-10.051-1.903-20.234-1.001-30.766-1.187c0,16.293,0,32.312,0,48.331c0,16.032,0,32.064,0,48.287c-3.357,0-6.294,0-9.406,0
			c0-34.786,0-69.536,0-104.568c0.808,0,1.48,0,2.152,0c9.278,0.006,18.562-0.182,27.833,0.07
			c10.764,0.293,21.145,2.447,30.315,8.461c12.596,8.261,20.621,19.637,22.824,34.753c2.053,14.086,0.029,27.35-8.401,39.176
			c-8.378,11.752-19.758,18.79-34.005,21.103c-3.331,0.541-6.702,0.9-10.068,1.145C124.99,135.518,122.495,135.374,119.754,135.374z
			"/>
	</g>
</g>
</svg>
