<?xml version="1.0" encoding="utf-8"?>
<!-- Generator: Adobe Illustrator 23.1.0, SVG Export Plug-In . SVG Version: 6.00 Build 0)  -->
<svg version="1.1" id="Слой_1" xmlns="http://www.w3.org/2000/svg" xmlns:xlink="http://www.w3.org/1999/xlink" x="0px" y="0px"
	 width="180.679px" height="145.616px" viewBox="0 0 180.679 145.616" enable-background="new 0 0 180.679 145.616"
	 xml:space="preserve">
<g>
	<g>
		<path d="M73.836,137.576c0-44.811,0-89.161,0-133.726c3.44,0,6.589,0,9.986,0c0,47.012,0,94.137,0,141.484
			c-0.646,0.061-1.404,0.195-2.161,0.195c-9.378,0.009-18.763,0.225-28.133-0.064c-12.358-0.38-23.978-3.346-33.889-11.255
			C9.356,126.008,2.756,115.6,0.796,102.466c-1.824-12.217-0.725-24.072,5.517-34.941c8.276-14.412,20.806-22.867,37.229-25.622
			c7.004-1.175,14.017-1.264,21.216-1.021c0,2.63,0,5.071,0,7.86c-2.891,0-5.653-0.039-8.414,0.007
			c-8.517,0.141-16.878,1.201-24.541,5.211C18.277,61.038,9.905,72.119,8.171,87.316c-3.176,27.837,15.671,46.151,37.437,49.308
			C54.832,137.961,64.073,137.378,73.836,137.576z"/>
		<path d="M119.754,104.805c0-2.786,0-5.147,0-7.782c3.864-0.197,7.617-0.324,11.359-0.59c22.019-1.566,38.247-17.229,41.034-35.986
			c2.3-15.474-1.383-28.991-12.878-39.982c-6.274-5.999-13.824-9.664-22.284-11.265c-10.051-1.903-20.234-1.001-30.766-1.187
			c0,16.293,0,32.312,0,48.331c0,16.032,0,32.064,0,48.287c-3.357,0-6.294,0-9.406,0c0-34.786,0-69.536,0-104.568
			c0.808,0,1.48,0,2.152,0c9.278,0.006,18.562-0.182,27.833,0.07c10.764,0.293,21.145,2.447,30.315,8.461
			c12.596,8.261,20.621,19.637,22.824,34.753c2.053,14.086,0.029,27.35-8.401,39.176c-8.378,11.752-19.758,18.79-34.005,21.103
			c-3.331,0.541-6.702,0.9-10.068,1.145C124.99,104.949,122.495,104.805,119.754,104.805z"/>
	</g>
</g>
</svg>
