<?xml version="1.0" encoding="utf-8"?>
<!-- Generator: Adobe Illustrator 23.1.0, SVG Export Plug-In . SVG Version: 6.00 Build 0)  -->
<svg version="1.1" id="Capa_1" xmlns="http://www.w3.org/2000/svg" xmlns:xlink="http://www.w3.org/1999/xlink" x="0px" y="0px"
	 width="512px" height="453.076px" viewBox="0 0 512 453.076" enable-background="new 0 0 512 453.076" xml:space="preserve">
<g>
	<path d="M278.35,453.073c-4.161,0-7.535-3.374-7.535-7.535v-20.036c0-2.869-2.335-5.204-5.204-5.204h-20.229
		c-2.869,0-5.204,2.335-5.204,5.204v20.036c0,4.161-3.374,7.535-7.535,7.535s-7.535-3.374-7.535-7.535v-20.036
		c0-11.179,9.095-20.274,20.274-20.274h20.229c11.179,0,20.274,9.095,20.274,20.274v20.036
		C285.885,449.7,282.513,453.073,278.35,453.073L278.35,453.073z"/>
	<g>
		<path d="M327.943,177.641c-2.475-3.344-7.194-4.047-10.54-1.572c-3.344,2.476-4.048,7.195-1.572,10.54l37.416,50.535
			c4.162,5.621,3.861,14.087-0.685,19.275l-40.311,46.004H198.745l-40.311-46.004c-4.546-5.188-4.847-13.654-0.685-19.275
			l74.285-100.33v57.168c-9.417,7.237-14.921,18.307-14.921,30.389c0,21.166,17.22,38.386,38.386,38.386s38.386-17.22,38.386-38.386
			c0-11.538-5.135-22.313-13.916-29.572V138.17l16.546,22.346c2.476,3.345,7.195,4.048,10.54,1.572
			c3.344-2.476,4.048-7.195,1.572-10.54l-32.319-43.652c-5.088-6.872-12.672-10.813-20.806-10.813s-15.719,3.941-20.806,10.813
			l-89.055,120.279c-8.352,11.28-7.723,27.691,1.464,38.175l33.618,38.364c-8.395,3.914-14.23,12.428-14.23,22.285v35.947
			c0,11.005,7.271,20.343,17.261,23.466l2.056,59.389c0.141,4.071,3.484,7.275,7.526,7.275c0.088,0,0.177-0.001,0.265-0.004
			c4.159-0.145,7.413-3.632,7.27-7.791l-1.999-57.755h114.266l-1.999,57.755c-0.144,4.159,3.111,7.646,7.27,7.791
			c0.088,0.003,0.177,0.004,0.265,0.004c4.041,0,7.385-3.204,7.526-7.275l2.068-59.733c9.463-3.421,16.244-12.493,16.244-23.121V327
			c0-9.857-5.835-18.371-14.23-22.285l33.618-38.364c9.186-10.482,9.815-26.894,1.464-38.175L327.943,177.641z M255.498,112.153
			c3.358,0,6.446,1.673,8.694,4.71l0.705,0.952v80.77c0,2.535,1.275,4.901,3.393,6.294c6.589,4.336,10.524,11.623,10.524,19.489
			c0,12.856-10.459,23.316-23.316,23.316s-23.316-10.459-23.316-23.316c0-8.239,4.217-15.706,11.282-19.974
			c2.258-1.364,3.639-3.811,3.639-6.449v-81.447C249.323,113.701,252.283,112.153,255.498,112.153L255.498,112.153z
			 M329.438,362.946c0,5.242-4.266,9.508-9.508,9.508H191.067c-5.243,0-9.508-4.266-9.508-9.508v-35.947
			c0-5.242,4.266-9.508,9.508-9.508H319.93c5.243,0,9.508,4.266,9.508,9.508V362.946z"/>
		<path d="M105.551,179.952c0.99-23.872,7.629-47.246,19.381-67.957c2.053-3.62,0.785-8.218-2.835-10.271
			c-3.62-2.055-8.218-0.785-10.272,2.835c-13.024,22.953-20.347,48.869-21.356,75.32c-13.003,3.306-22.65,15.11-22.65,29.128
			c0,16.571,13.481,30.052,30.052,30.052s30.052-13.481,30.052-30.052C127.924,195.089,118.414,183.355,105.551,179.952
			L105.551,179.952z M97.872,223.989c-8.261,0-14.982-6.721-14.982-14.982s6.721-14.982,14.982-14.982s14.982,6.721,14.982,14.982
			S106.133,223.989,97.872,223.989z"/>
		<path d="M496.046,0h-24.214c-8.797,0-15.954,7.157-15.954,15.954v4.572H284.061v-4.572C284.061,7.157,276.904,0,268.107,0h-24.214
			c-8.797,0-15.954,7.157-15.954,15.954v4.572H56.122v-4.572C56.122,7.157,48.964,0,40.168,0H15.954C7.157,0,0,7.157,0,15.954
			v24.214c0,8.797,7.157,15.954,15.954,15.954h24.214c8.797,0,15.954-7.157,15.954-15.954v-4.572h130.802
			c-20.919,9.608-39.802,23.566-55.309,41.181c-2.75,3.123-2.447,7.884,0.677,10.634c1.432,1.26,3.207,1.88,4.976,1.88
			c2.09,0,4.169-0.864,5.658-2.556c22.281-25.31,52.213-42.325,85.013-48.514v1.948c0,8.797,7.157,15.954,15.954,15.954h24.214
			c8.797,0,15.954-7.157,15.954-15.954V38.22c68.403,12.889,119.51,71.876,122.397,141.732c-12.867,3.4-22.382,15.136-22.382,29.056
			c0,16.571,13.481,30.052,30.052,30.052c16.571,0,30.052-13.481,30.052-30.052c0-14.016-9.646-25.819-22.648-29.127
			c-2.408-63.382-40.904-118.713-96.452-144.283h130.798v4.572c0,8.797,7.157,15.954,15.954,15.954h24.214
			c8.797,0,15.954-7.157,15.954-15.954V15.954C512,7.157,504.843,0,496.046,0L496.046,0z M41.052,40.168
			c0,0.487-0.397,0.884-0.884,0.884H15.954c-0.487,0-0.884-0.397-0.884-0.884V15.954c0-0.487,0.397-0.884,0.884-0.884h24.214
			c0.487,0,0.884,0.397,0.884,0.884V40.168z M429.111,209.006c0,8.261-6.721,14.982-14.982,14.982s-14.982-6.721-14.982-14.982
			s6.721-14.982,14.982-14.982S429.111,200.744,429.111,209.006z M268.991,40.168c0,0.487-0.397,0.884-0.884,0.884h-24.214
			c-0.487,0-0.884-0.397-0.884-0.884V15.954c0-0.487,0.397-0.884,0.884-0.884h24.214c0.487,0,0.884,0.397,0.884,0.884V40.168z
			 M496.93,40.168c0,0.487-0.397,0.884-0.884,0.884h-24.214c-0.487,0-0.884-0.397-0.884-0.884V15.954
			c0-0.487,0.397-0.884,0.884-0.884h24.214c0.487,0,0.884,0.397,0.884,0.884V40.168z"/>
	</g>
</g>
</svg>
