<?xml version="1.0" encoding="utf-8"?>
<!-- Generator: Adobe Illustrator 23.0.3, SVG Export Plug-In . SVG Version: 6.00 Build 0)  -->
<svg version="1.1" id="Capa_1" xmlns="http://www.w3.org/2000/svg" xmlns:xlink="http://www.w3.org/1999/xlink" x="0px" y="0px"
	 width="480px" height="480px" viewBox="0 0 480 480" style="enable-background:new 0 0 480 480;" xml:space="preserve">
<style type="text/css">
	.st0{fill:#262626;}
</style>
<g>
	<g>
		<path class="st0" d="M472,44H8c-4.4,0-8,3.6-8,8v288c0,4.4,3.6,8,8,8h72v80c0,4.4,3.6,8,8,8h48c4.4,0,8-3.6,8-8v-80h328
			c4.4,0,8-3.6,8-8V52C480,47.6,476.4,44,472,44z M128,420H96v-16h32V420z M128,388H96V228h32V388z M100.1,212l11.9-27.7l11.9,27.7
			H100.1z M464,332H144V220c0-0.1-0.1-0.2-0.1-0.3c0-0.9-0.2-1.8-0.5-2.7v-0.1l-24-56c-1.7-4.1-6.4-5.9-10.5-4.2
			c-1.9,0.8-3.4,2.3-4.2,4.2l-24,56v0.1c-0.3,0.9-0.5,1.8-0.5,2.7c0,0.1-0.1,0.2-0.1,0.3v112H16V60h448V332z"/>
	</g>
</g>
<g>
	<g>
		<path class="st0" d="M351.5,124c-4.4-30.6-32.7-51.9-63.4-47.5c-24.6,3.5-44,22.9-47.5,47.5H184c-4.4,0-8,3.6-8,8v112
			c0,4.4,3.6,8,8,8h112c4.4,0,8-3.6,8-8v-56.6C334.6,183,355.9,154.6,351.5,124z M288,236h-96v-96h48.6
			c3.6,24.5,22.8,43.8,47.4,47.4V236z M288,171.2c-15.7-3.2-28-15.5-31.2-31.2H288V171.2z M304,171.2V132c0-4.4-3.6-8-8-8h-39.2
			c3.8-18.6,20.2-32,39.2-32c22.1,0,40,17.9,40,40C336.1,151,322.7,167.4,304,171.2z"/>
	</g>
</g>
<g>
	<g>
		<path class="st0" d="M390.6,246.8c-2.7-3.5-7.8-4.1-11.2-1.4c-0.2,0.2-0.5,0.4-0.7,0.6v0l-60.2,52.7l-51.4-22
			c-1.9-0.8-4-0.9-6-0.1l-64,24c-4.1,1.5-6.2,6.2-4.7,10.3c1.2,3.1,4.2,5.2,7.5,5.2c1,0,1.9-0.2,2.8-0.5l61-22.9l53,22.7
			c2.8,1.2,6.1,0.7,8.4-1.3l64-56C392.8,255.3,393.4,250.3,390.6,246.8z"/>
	</g>
</g>
<g>
	<g>
		<path class="st0" d="M152,116H40c-4.4,0-8,3.6-8,8c0,4.4,3.6,8,8,8h112c4.4,0,8-3.6,8-8C160,119.6,156.4,116,152,116z"/>
	</g>
</g>
<g>
	<g>
		<path class="st0" d="M438.9,200l-32-56c-2.5-3.8-7.7-4.9-11.5-2.4c-0.9,0.6-1.7,1.4-2.4,2.4l-32,56c-2.2,3.8-0.9,8.7,2.9,10.9
			c1.2,0.7,2.6,1.1,4,1.1h64c4.4,0,8-3.6,8-8C440,202.6,439.6,201.2,438.9,200z M381.8,196l18.2-31.9l18.2,31.9H381.8z"/>
	</g>
</g>
</svg>
