<?xml version="1.0" encoding="utf-8"?>
<!-- Generator: Adobe Illustrator 23.1.0, SVG Export Plug-In . SVG Version: 6.00 Build 0)  -->
<svg version="1.1" id="Capa_1" xmlns="http://www.w3.org/2000/svg" xmlns:xlink="http://www.w3.org/1999/xlink" x="0px" y="0px"
	 width="368px" height="368px" viewBox="0 0 368 368" enable-background="new 0 0 368 368" xml:space="preserve">
<g>
	<path fill="#262626" d="M360,0H56H8C3.584,0,0,3.584,0,8v48v304c0,4.416,3.584,8,8,8h48c4.416,0,8-3.584,8-8v-8h232
		c2.12,0,4.16-0.84,5.656-2.344l48-48C351.16,300.16,352,298.12,352,296V64h8c4.416,0,8-3.584,8-8V8C368,3.584,364.416,0,360,0z
		 M16,16h32v32H16V16z M48,352H16V64h32V352z M292.688,336h-0.059L336,292.687v0.001L292.688,336z M336,292.688L292.688,336H64V192
		h40c4.416,0,8-3.584,8-8s-3.584-8-8-8H64V64h112v40c0,4.416,3.584,8,8,8s8-3.584,8-8V64h144V292.688z M352,48H64V16h288V48z"/>
	<path fill="#262626" d="M184,144c-4.416,0-8,3.584-8,8v24h-24c-4.416,0-8,3.584-8,8s3.584,8,8,8h32c4.416,0,8-3.584,8-8v-32
		C192,147.584,188.416,144,184,144z"/>
</g>
</svg>
