<?xml version="1.0" encoding="utf-8"?>
<!-- Generator: Adobe Illustrator 23.0.3, SVG Export Plug-In . SVG Version: 6.00 Build 0)  -->
<svg version="1.1" id="Capa_1" xmlns="http://www.w3.org/2000/svg" xmlns:xlink="http://www.w3.org/1999/xlink" x="0px" y="0px"
	 width="512px" height="512px" viewBox="0 0 512 512" style="enable-background:new 0 0 512 512;" xml:space="preserve">
<style type="text/css">
	.st0{fill:#CCC2C3;}
</style>
<g>
	<path class="st0" d="M0,466.9c0,12.1,4.7,23.4,13.2,31.9C22,507.6,33.6,512,45.1,512s23.1-4.4,31.9-13.2l136.5-136.5
		c29.9,18.5,65.1,29.2,102.7,29.2c107.9,0,195.8-87.8,195.8-195.8S424.2,0,316.3,0S120.5,87.8,120.5,195.8
		c0,37.7,10.7,72.9,29.2,102.7L13.2,435C4.7,443.5,0,454.8,0,466.9L0,466.9z M482,195.8c0,91.4-74.4,165.8-165.8,165.8
		s-165.8-74.4-165.8-165.8S224.9,30,316.3,30S482,104.4,482,195.8z M30,466.9c0-4,1.6-7.8,4.4-10.7L167.6,323
		c6.6,7.7,13.7,14.8,21.4,21.4L55.8,477.6c-5.9,5.9-15.5,5.9-21.4,0C31.6,474.7,30,470.9,30,466.9z"/>
	<path class="st0" d="M451.8,195.8c0-74.7-60.8-135.5-135.5-135.5S180.8,121,180.8,195.8s60.8,135.5,135.5,135.5
		S451.8,270.5,451.8,195.8L451.8,195.8z M421.8,195.8c0,58.2-47.3,105.5-105.5,105.5s-105.5-47.3-105.5-105.5S258.1,90.3,316.3,90.3
		S421.8,137.6,421.8,195.8L421.8,195.8z"/>
</g>
</svg>
