<?xml version="1.0" encoding="utf-8"?>
<!-- Generator: Adobe Illustrator 23.0.3, SVG Export Plug-In . SVG Version: 6.00 Build 0)  -->
<svg version="1.1" id="Capa_1" xmlns="http://www.w3.org/2000/svg" xmlns:xlink="http://www.w3.org/1999/xlink" x="0px" y="0px"
	 width="512px" height="512px" viewBox="0 0 512 512" style="enable-background:new 0 0 512 512;" xml:space="preserve">
<style type="text/css">
	.st0{fill:#CCC2C3;}
</style>
<g>
	<g>
		<path class="st0" d="M497,0h-60c-8.3,0-15,6.7-15,15v15H298.4C292.2,12.5,275.6,0,256,0s-36.2,12.5-42.4,30H90V15
			c0-8.3-6.7-15-15-15H15C6.7,0,0,6.7,0,15v60c0,8.3,6.7,15,15,15h60c8.3,0,15-6.7,15-15V59.8h62.4c-54.1,34.3-87,92.2-91,153.6
			C43.7,219.5,31,236.3,31,256c0,24.8,20.2,45,45,45s45-20.2,45-45c0-19.4-12.3-35.9-29.5-42.3C96.8,143.1,147.7,82.2,215.7,65
			c7.4,14.8,22.7,25,40.3,25s32.9-10.2,40.3-25c68,17.3,118.9,78.1,124.2,148.8c-17.2,6.3-29.5,22.9-29.5,42.3c0,24.8,20.2,45,45,45
			s45-20.2,45-45c0-19.7-12.7-36.5-30.4-42.6c-4-61.6-37-119.2-91-153.4H422v15c0,8.3,6.7,15,15,15h60c8.3,0,15-6.7,15-15V15
			C512,6.7,505.3,0,497,0z M60,60H30V30h30V60z M76,271c-8.3,0-15-6.7-15-15s6.7-15,15-15s15,6.7,15,15S84.3,271,76,271z M256,60
			c-8.3,0-15-6.7-15-15s6.7-15,15-15s15,6.7,15,15S264.3,60,256,60z M436,241c8.3,0,15,6.7,15,15s-6.7,15-15,15s-15-6.7-15-15
			S427.7,241,436,241z M482,60h-30V30h30V60z"/>
	</g>
</g>
<g>
	<g>
		<path class="st0" d="M388.5,307.7l-120-180c0,0,0,0,0,0c0-0.1-0.1-0.1-0.1-0.2c-0.2-0.3-0.4-0.6-0.6-0.9c-6.3-7.9-18.4-7.3-24,0.9
			c0,0.1-0.1,0.1-0.1,0.2c0,0,0,0,0,0l-120,180c-4,5.9-3.2,13.9,1.9,18.9c29.9,29.9,49,69,54.2,110.9c-2.3,1.9-4.6,3.9-6.7,6.1
			C158.8,458,151,477,151,497c0,8.3,6.7,15,15,15h180c8.3,0,15-6.7,15-15c0-20-7.8-39-21.8-53.4c-2.1-2.2-4.4-4.2-6.7-6.1
			c5.2-41.9,24.2-81,54.2-110.9C391.7,321.6,392.4,313.6,388.5,307.7z M256,301c8.3,0,15,6.7,15,15s-6.7,15-15,15s-15-6.7-15-15
			S247.7,301,256,301z M183.6,482c6.2-17.8,23.2-31,42.4-31h60c19.3,0,36.2,13.2,42.4,31H183.6z M304.2,423.3
			c-5.9-1.5-12-2.3-18.2-2.3h-60c-6.2,0-12.3,0.8-18.2,2.3c-7-40.4-25.3-78.2-52.6-108.9L241,185.5v88c-17.5,6.2-30,22.9-30,42.4
			c0,24.8,20.2,45,45,45s45-20.2,45-45c0-19.6-12.5-36.2-30-42.4v-88l85.9,128.8C329.5,345.1,311.3,382.9,304.2,423.3z"/>
	</g>
</g>
</svg>
