<?xml version="1.0" encoding="utf-8"?>
<!-- Generator: Adobe Illustrator 23.0.3, SVG Export Plug-In . SVG Version: 6.00 Build 0)  -->
<svg version="1.1" id="Layer_1" xmlns="http://www.w3.org/2000/svg" xmlns:xlink="http://www.w3.org/1999/xlink" x="0px" y="0px"
	 width="512px" height="512px" viewBox="0 0 512 512" style="enable-background:new 0 0 512 512;" xml:space="preserve">
<style type="text/css">
	.st0{fill:#262626;}
</style>
<path class="st0" d="M437,0H75C33.6,0,0,33.6,0,75v362c0,41.4,33.6,75,75,75h362c41.4,0,75-33.6,75-75V75C512,33.6,478.4,0,437,0z
	 M257,390c-74.4,0-135-60.6-135-135s60.6-135,135-135s135,60.6,135,135S331.4,390,257,390z M407,150c-24.8,0-45-20.2-45-45
	s20.2-45,45-45s45,20.2,45,45S431.8,150,407,150z"/>
<path class="st0" d="M257,187.2c-39.4,0-71.5,30.4-71.5,67.8s32.1,67.8,71.5,67.8s71.5-30.4,71.5-67.8S296.4,187.2,257,187.2z"/>
</svg>
