<?xml version="1.0" encoding="utf-8"?>
<!-- Generator: Adobe Illustrator 23.0.3, SVG Export Plug-In . SVG Version: 6.00 Build 0)  -->
<svg version="1.1" id="Capa_1" xmlns="http://www.w3.org/2000/svg" xmlns:xlink="http://www.w3.org/1999/xlink" x="0px" y="0px"
	 width="512px" height="512px" viewBox="0 0 512 512" style="enable-background:new 0 0 512 512;" xml:space="preserve">
<style type="text/css">
	.st0{fill:#262626;}
</style>
<g>
	<g>
		<path class="st0" d="M258.5,420c0.9-0.2,1.8-0.6,2.7-1.1l69.2-41.7l29.8,29.6c1.9,1.9,4.4,2.9,7,2.9h77.6c5.5,0,10-4.5,10-10
			s-4.5-10-10-10h-73.5L348,366.5l42.7-25.7c3-1.8,4.8-5.1,4.8-8.6V179.7c0-3.5-1.9-6.8-4.8-8.6l-129.5-78c-3.2-1.9-7.1-1.9-10.3,0
			l-69.2,41.7l-29.8-29.6c-1.9-1.9-4.4-2.9-7-2.9H67.1c-5.5,0-10,4.5-10,10s4.5,10,10,10h73.5l23.3,23.2l-42.7,25.7
			c-3,1.8-4.8,5.1-4.8,8.6v31.4c0,5.5,4.5,10,10,10s10-4.5,10-10v-13.7l109.5,66v129.2l-109.5-66v-25.7c0-5.5-4.5-10-10-10
			s-10,4.5-10,10v31.4c0,3.5,1.8,6.8,4.8,8.6l129.5,78C253.1,420.2,255.9,420.6,258.5,420L258.5,420z M375.5,326.6L333.4,352
			l-29.2-29c-3.9-3.9-10.3-3.9-14.1,0.1c-3.9,3.9-3.9,10.3,0.1,14.1l25.6,25.4l-49.7,30V263.4l109.5-66V326.6z M221.9,174.8
			l-25.6-25.4l59.7-36l110.2,66.4L256,246.1l-110.2-66.3l32.8-19.7l29.2,29c1.9,1.9,4.5,2.9,7,2.9c2.6,0,5.1-1,7.1-3
			C225.8,185,225.8,178.7,221.9,174.8L221.9,174.8z"/>
		<path class="st0" d="M90.6,164.5c5.5,0,10-4.5,10-10s-4.5-10-10-10H67.1c-5.5,0-10,4.5-10,10s4.5,10,10,10H90.6z"/>
		<path class="st0" d="M57.1,70.1c0,5.5,4.5,10,10,10h77.6c5.5,0,10-4.5,10-10s-4.5-10-10-10H67.1C61.6,60.1,57.1,64.6,57.1,70.1z"
			/>
		<path class="st0" d="M444.8,367.5c5.5,0,10-4.5,10-10s-4.5-10-10-10h-23.5c-5.5,0-10,4.5-10,10s4.5,10,10,10H444.8z"/>
		<path class="st0" d="M454.8,441.9c0-5.5-4.5-10-10-10h-77.6c-5.5,0-10,4.5-10,10s4.5,10,10,10h77.6
			C450.3,451.9,454.8,447.4,454.8,441.9z"/>
		<path class="st0" d="M10,135.6c5.5,0,10-4.5,10-10V20h105.6c5.5,0,10-4.5,10-10s-4.5-10-10-10H10C4.5,0,0,4.5,0,10v115.6
			C0,131.1,4.5,135.6,10,135.6z"/>
		<path class="st0" d="M502,0H386.4c-5.5,0-10,4.5-10,10s4.5,10,10,10H492v105.6c0,5.5,4.5,10,10,10s10-4.5,10-10V10
			C512,4.5,507.5,0,502,0z"/>
		<path class="st0" d="M125.6,492H20V386.4c0-5.5-4.5-10-10-10s-10,4.5-10,10V502c0,5.5,4.5,10,10,10h115.6c5.5,0,10-4.5,10-10
			S131.1,492,125.6,492z"/>
		<path class="st0" d="M502,376.4c-5.5,0-10,4.5-10,10V492H386.4c-5.5,0-10,4.5-10,10s4.5,10,10,10H502c5.5,0,10-4.5,10-10V386.4
			C512,380.9,507.5,376.4,502,376.4z"/>
		<path class="st0" d="M126.4,266c5.5,0,10-4.5,10-10s-4.5-10-10-10s-10,4.5-10,10v0.1C116.4,261.6,120.9,266,126.4,266z"/>
	</g>
</g>
</svg>
