<?xml version="1.0" encoding="utf-8"?>
<!-- Generator: Adobe Illustrator 23.0.3, SVG Export Plug-In . SVG Version: 6.00 Build 0)  -->
<svg version="1.1" id="Layer_1" xmlns="http://www.w3.org/2000/svg" xmlns:xlink="http://www.w3.org/1999/xlink" x="0px" y="0px"
	 width="512px" height="512px" viewBox="0 0 512 512" style="enable-background:new 0 0 512 512;" xml:space="preserve">
<style type="text/css">
	.st0{fill:#262626;}
</style>
<path class="st0" d="M10.8,144c-4.9,0-8.8-4-8.8-8.8v-124c0-4.9,4-8.8,8.8-8.8h124c4.9,0,8.8,4,8.8,8.8s-4,8.8-8.8,8.8H19.7v115.1
	C19.7,140.1,15.7,144,10.8,144z"/>
<path class="st0" d="M10.8,510.1c-4.9,0-8.8-4-8.8-8.8v-124c0-4.9,4-8.8,8.8-8.8s8.8,4,8.8,8.8v115.1h115.1c4.9,0,8.8,4,8.8,8.8
	s-4,8.8-8.8,8.8H10.8z"/>
<path class="st0" d="M376.9,510.1c-4.9,0-8.8-4-8.8-8.8s4-8.8,8.8-8.8H492V377.3c0-4.9,4-8.8,8.8-8.8s8.8,4,8.8,8.8v124
	c0,4.9-4,8.8-8.8,8.8H376.9z"/>
<path class="st0" d="M500.8,144c-4.9,0-8.8-4-8.8-8.8V20.1H376.9c-4.9,0-8.8-4-8.8-8.8s4-8.8,8.8-8.8h124c4.9,0,8.8,4,8.8,8.8v124
	C509.7,140.1,505.7,144,500.8,144z"/>
<path class="st0" d="M256,401.5c-47,0-93.2-12.8-133.6-37c-41.5-24.9-75.2-60.9-97.3-104.2c-1.3-2.5-1.3-5.5,0-8
	c25-48.8,64-87.8,112.8-112.8c36.9-18.9,76.5-28.4,117.7-28.4c47,0,93.2,12.8,133.6,37c41.5,24.9,75.2,60.9,97.3,104.2
	c1.3,2.5,1.3,5.5,0,8c-25,48.8-64,87.8-112.8,112.8C336.8,392,297.2,401.5,256,401.5C256,401.5,256,401.5,256,401.5z M43,256.3
	C85,335,166.4,383.8,255.8,383.8h0.1l0,2.8l0.1-2.8c89.3,0,170.7-48.8,212.8-127.5c-22.8-42.7-57.5-77.1-100.3-99.7
	c-34.6-18.2-73.5-27.9-112.3-27.9C166.6,128.7,85.1,177.5,43,256.3z"/>
<path class="st0" d="M255.9,302.6c-2.8,0-5.6-0.3-8.3-0.8c-12.2-2.2-22.8-9-29.8-19.2c-7-10.2-9.7-22.5-7.5-34.7
	c4-22.1,23.2-38.1,45.5-38.1c2.8,0,5.6,0.3,8.3,0.8c0.8,0.2,1.6,0.4,2.4,0.8c4.3,2.2,6.1,7.5,3.9,11.9c-1,1.9-1.5,4-1.4,6.1
	c0,7.5,6.1,13.7,13.7,13.7c2.1,0,4.2-0.5,6.1-1.4c1.2-0.6,2.6-1,4-1c1.4,0,2.7,0.3,3.9,0.9c2.5,1.2,4.3,3.6,4.8,6.3
	c1,5.5,1,11.1,0,16.5C297.4,286.6,278.3,302.6,255.9,302.6C255.9,302.6,255.9,302.6,255.9,302.6z M251.3,227.9
	c-13.8,2.2-24.2,14-24.2,28.4c0,15.8,12.9,28.7,28.7,28.7c14.3,0,26.2-10.4,28.3-24.2c-0.5,0-1,0-1.5,0c-1.7,0-3.4-0.1-5.1-0.4
	C261.7,257.8,250.6,243.6,251.3,227.9z"/>
<path class="st0" d="M255.8,340.1c-46.2,0-83.9-37.6-83.9-83.9c0-46.2,37.6-83.9,83.9-83.9h1c46,0.3,83.2,37.9,82.9,83.9
	C339.7,302.5,302.1,340.1,255.8,340.1L255.8,340.1z M255.8,190c-36.5,0-66.2,29.7-66.2,66.2c0,36.5,29.7,66.2,66.2,66.2l0.2,0
	c10.2,0,20.4-2.4,29.5-7.1c22.5-11.3,36.5-34,36.5-59.2C322,219.7,292.3,190,255.8,190l0-2.8L255.8,190z"/>
</svg>
