<?xml version="1.0" encoding="utf-8"?>
<!-- Generator: Adobe Illustrator 23.1.0, SVG Export Plug-In . SVG Version: 6.00 Build 0)  -->
<svg version="1.1" id="Capa_1" xmlns="http://www.w3.org/2000/svg" xmlns:xlink="http://www.w3.org/1999/xlink" x="0px" y="0px"
	 width="270.1px" height="512.1px" viewBox="0 0 270.1 512.1" style="enable-background:new 0 0 270.1 512.1;" xml:space="preserve"
	>
<style type="text/css">
	.st0{fill:#EBE7E7;}
</style>
<g>
	<g>
		<path class="st0" d="M251.3,97.8V70.2c10.8-3.3,18.8-13.6,18.8-25.8V26.9C270,12.1,258.2,0,243.8,0H26.3C11.8,0,0,12.1,0,26.9
			v17.5c0,12.2,7.9,22.5,18.8,25.8v27.6c0,4.7,2.6,8.8,6.4,10.9L1.3,499c-0.2,3.4,1,6.8,3.3,9.3c2.3,2.4,5.5,3.8,8.8,3.8h28.3
			c6.3,0,11.5-4.8,12.1-11.1l10.7-105.4h140.8L216,501c0.6,6.3,5.9,11.1,12.1,11.1h28.3c3.3,0,6.5-1.4,8.8-3.8
			c2.3-2.5,3.6-5.9,3.3-9.3l-23.9-390.3C248.7,106.5,251.3,102.5,251.3,97.8z M53.5,356.2L53.5,356.2l-3.2,31.1l0,0L39.2,497H16.4
			L40,110.1h38.5L53.5,356.2z M66.1,380.5l1.6-16.1h134.5l1.6,16.1H66.1z M253.6,497h-22.8l-11.2-109.7l0,0l-3.2-31l0,0l-4-38.8
			c-0.4-4.1-4.1-7.1-8.2-6.7s-7.1,4.1-6.7,8.2l3.1,30.6H69.3l24.4-239.3h82.7l18.3,179.6c0.4,4.1,4.1,7.1,8.2,6.7s7.1-4.1,6.7-8.2
			l-18.1-178.1H230L253.6,497z M243.8,56.3H110.6c-4.1,0-7.5,3.4-7.5,7.5s3.4,7.5,7.5,7.5h125.6v23.8h-53.1H86.9H33.8V71.3h48.8
			c4.1,0,7.5-3.4,7.5-7.5s-3.4-7.5-7.5-7.5H26.3C20,56.3,15,51,15,44.4V26.9C15,20.3,20,15,26.3,15h217.5c6.2,0,11.3,5.3,11.3,11.9
			v17.5C255,51,250,56.3,243.8,56.3z"/>
	</g>
</g>
</svg>
