<?xml version="1.0" encoding="utf-8"?>
<!-- Generator: Adobe Illustrator 23.1.0, SVG Export Plug-In . SVG Version: 6.00 Build 0)  -->
<svg version="1.1" id="Capa_1" xmlns="http://www.w3.org/2000/svg" xmlns:xlink="http://www.w3.org/1999/xlink" x="0px" y="0px"
	 width="293.3px" height="512.1px" viewBox="0 0 293.3 512.1" style="enable-background:new 0 0 293.3 512.1;" xml:space="preserve"
	>
<style type="text/css">
	.st0{fill:#EBE7E7;}
</style>
<g>
	<path class="st0" d="M51.4,204.1c-4-1.1-8.2,1.3-9.2,5.3c-2.6,9.7,1.6,20,10.3,25.2c3.5,2.1,7.4,3.1,11.4,3.1h169.5
		c4,0,8-1.1,11.4-3.1c8.5-5,12.8-15.3,10.3-24.8c-1-4-5.1-6.5-9.2-5.5c-4,1-6.5,5.1-5.5,9.2c0.8,3.2-0.6,6.5-3.4,8.2
		c-1.1,0.7-2.4,1-3.8,1H63.9c-1.3,0-2.6-0.4-3.8-1c-2.9-1.7-4.2-5.1-3.4-8.3C57.8,209.3,55.4,205.2,51.4,204.1L51.4,204.1z"/>
	<path class="st0" d="M292.6,488.8l-63.2-221h4c9.4,0,18.7-2.5,26.8-7.3c21.8-12.9,31.3-39.5,22.6-63.3l-26.5-72.5
		c-1.4-3.9-5.8-5.9-9.7-4.5c-3.9,1.4-5.9,5.8-4.5,9.7l26.5,72.5c6.2,17-0.6,36-16.1,45.2c-5.8,3.4-12.4,5.2-19.1,5.2H63.9
		c-6.7,0-13.3-1.8-19.1-5.2c-15.6-9.2-22.3-28.2-16.1-45.2L83.7,52c8.1-22.1,29.3-36.9,52.8-36.9h24.6c23.5,0,44.7,14.8,52.8,36.9
		l18.1,49.6c1.4,3.9,5.8,5.9,9.7,4.5c3.9-1.4,5.9-5.8,4.5-9.7l-18.1-49.6C217.7,18.8,190.8,0,161,0h-24.6
		c-29.8,0-56.7,18.8-66.9,46.8l-55,150.4c-8.7,23.8,0.8,50.4,22.6,63.3c8.1,4.8,17.4,7.3,26.8,7.3H64L25.6,402
		c-1.1,4,1.2,8.2,5.2,9.3c0.7,0.2,1.4,0.3,2.1,0.3c3.3,0,6.3-2.2,7.2-5.5l39.5-138.2h21.3l-79.8,227c-0.4,1.2-1.6,2.1-2.9,2.1
		c-1.3,0-2.1-0.8-2.5-1.2c-0.4-0.4-0.9-1.4-0.5-2.7l17-59.6c1.1-4-1.2-8.2-5.2-9.3c-4-1.1-8.2,1.2-9.3,5.2L0.7,489
		c-1.6,5.5-0.5,11.3,3,15.9s8.8,7.2,14.5,7.2c7.7,0,14.6-4.9,17.1-12.1l38-108c0.4-0.2,0.9-0.5,1.3-0.8l71.6-58l72.8,55.9
		c0.1,0,0.1,0.1,0.2,0.1l38.9,110.6c2.6,7.3,9.4,12.1,17.1,12.1c5.8,0,11-2.6,14.5-7.2C293.1,500.2,294.2,494.4,292.6,488.8
		L292.6,488.8z M115.5,271.7l18.3,15.4l-11.3,8.9l-12.2-9.3L115.5,271.7z M134.3,267.9h24.1l-12.5,9.8L134.3,267.9z M145.6,297
		l10.4,8.8l-10.1,8.2l-11.1-8.5L145.6,297z M167.9,296.2l-10.2-8.6l20.2-15.8l4.5,12.7L167.9,296.2z M82.7,365.2l22.4-63.6
		l28.8,22.1L82.7,365.2z M158.2,323.4l29.5-23.9l22.4,63.7L158.2,323.4z M277.6,495.7c-0.3,0.5-1.1,1.2-2.5,1.2
		c-1.3,0-2.5-0.8-2.9-2.1l-79.8-227h21.3L278.1,493C278.5,494.3,278,495.2,277.6,495.7L277.6,495.7z"/>
</g>
</svg>
