<?xml version="1.0" encoding="utf-8"?>
<!-- Generator: Adobe Illustrator 23.1.0, SVG Export Plug-In . SVG Version: 6.00 Build 0)  -->
<svg version="1.1" id="Capa_1" xmlns="http://www.w3.org/2000/svg" xmlns:xlink="http://www.w3.org/1999/xlink" x="0px" y="0px"
	 width="413.8px" height="512px" viewBox="0 0 413.8 512" style="enable-background:new 0 0 413.8 512;" xml:space="preserve">
<style type="text/css">
	.st0{fill:#EBE7E7;}
</style>
<path class="st0" d="M402.1,163.6c-7.3-7.9-17.2-13-27.9-14.2L327.6,40.2C317.1,15.8,293.2,0,266.7,0H147.3
	c-26.5,0-50.4,15.8-60.9,40.2L39.7,149.4c-10.6,1.2-20.6,6.2-27.9,14.2c-8.4,9.2-12.7,21.6-11.6,34L12.1,336
	c1,11.8,9.2,21.3,20.1,24.3V384c0,4.1,3.4,7.5,7.5,7.5s7.5-3.4,7.5-7.5v-22.7H86L54,495.1c-0.3,1.1-1.2,1.9-2.4,1.9h-2
	c-1.3,0-2.4-1.1-2.4-2.4V416c0-4.1-3.4-7.5-7.5-7.5s-7.5,3.4-7.5,7.5v78.6c0,9.6,7.8,17.4,17.4,17.4h2c8.1,0,15.1-5.5,17-13.4
	l32.8-137.3h155.4c4.1,0,7.5-3.4,7.5-7.5s-3.4-7.5-7.5-7.5H89.5v-17.2h235v17.2h-35.6c-4.1,0-7.5,3.4-7.5,7.5s3.4,7.5,7.5,7.5h23.6
	l32.8,137.3c1.9,7.9,8.9,13.4,17,13.4h2c9.6,0,17.4-7.8,17.4-17.4V360.4c10.9-3,19.1-12.5,20.1-24.3l11.9-138.4
	C414.8,185.2,410.6,172.8,402.1,163.6L402.1,163.6z M100.2,46.1c8.1-18.9,26.5-31.1,47.1-31.1h119.4c20.5,0,39,12.2,47.1,31.1
	l44.6,104.4c-19.4,4.8-33.9,22.4-33.9,43.4v54.5H158.4c-4.1,0-7.5,3.4-7.5,7.5s3.4,7.5,7.5,7.5h174.3c7.8,0,14.2,6.4,14.2,14.2V300
	c0,7.8-6.4,14.2-14.2,14.2H81.3c-7.8,0-14.2-6.4-14.2-14.2v-22.5c0-7.8,6.4-14.2,14.2-14.2h45.2c4.1,0,7.5-3.4,7.5-7.5
	s-3.4-7.5-7.5-7.5H89.6v-54.5c0-20.9-14.5-38.5-33.9-43.4L100.2,46.1z M27.1,334.8L15.2,196.4c-0.7-8.4,2-16.4,7.7-22.6
	c5.7-6.2,13.4-9.6,21.8-9.6c0,0,0,0,0.1,0c16.4,0,29.7,13.3,29.7,29.7v55.3c-12.8,3.1-22.4,14.6-22.4,28.4V300
	c0,13.8,9.6,25.3,22.4,28.4v18H39.8C33.1,346.4,27.7,341.4,27.1,334.8z M364.3,497h-2c-1.1,0-2.1-0.8-2.4-1.9l-32-133.8h38.8v133.2
	C366.7,495.9,365.6,497,364.3,497L364.3,497z M398.8,196.4l-11.9,138.4c-0.6,6.6-6,11.6-12.6,11.6h-34.7v-18
	c12.8-3.1,22.4-14.6,22.4-28.4v-22.5c0-13.8-9.6-25.3-22.4-28.4v-55.3c0-16.4,13.3-29.7,29.7-29.7l0,0l0,0c8.4,0,16.2,3.4,21.8,9.6
	C396.8,179.9,399.5,188,398.8,196.4L398.8,196.4z"/>
</svg>
