<?xml version="1.0" encoding="utf-8"?>
<!-- Generator: Adobe Illustrator 23.0.3, SVG Export Plug-In . SVG Version: 6.00 Build 0)  -->
<svg version="1.1" id="Layer_1" xmlns="http://www.w3.org/2000/svg" xmlns:xlink="http://www.w3.org/1999/xlink" x="0px" y="0px"
	 width="512px" height="512px" viewBox="0 0 512 512" style="enable-background:new 0 0 512 512;" xml:space="preserve">
<style type="text/css">
	.st0{fill:#262626;}
</style>
<g>
	<g>
		<path class="st0" d="M486,303.8c0-29.4-14.3-56.1-37.9-72.4c10.8-13.6,16.7-30.5,16.7-48c0-27.1-14.3-52.1-37.2-66
			c0.8-3.9,1.2-7.9,1.2-12c0-34-27.6-61.6-61.6-61.6c-4.2,0-8.4,0.4-12.5,1.3C350.1,19.5,327.7,0,300.8,0
			c-18.5,0-34.9,9.2-44.8,23.3C246.1,9.2,229.7,0,211.2,0c-26.9,0-49.3,19.5-53.9,45.1c-1.7-0.4-3.5-0.6-5.3-0.8
			c-5.5-0.6-10.5,3.3-11.1,8.8s3.3,10.5,8.8,11.1c4.3,0.5,8.5,1.7,12.4,3.5c0,0,0.1,0,0.1,0.1c7.9,3.6,14.3,9.5,18.6,17
			c1.9,3.2,5.2,5,8.7,5c1.7,0,3.4-0.4,5-1.3c4.8-2.8,6.4-8.9,3.7-13.7c-5.3-9.2-12.7-16.7-21.7-22c1.2-18.2,16.3-32.6,34.7-32.6
			c19.2,0,34.8,15.6,34.8,34.8v28.5c0,5.5,4.5,10,10,10s10-4.5,10-10V54.8c0-19.2,15.6-34.8,34.8-34.8c18.4,0,33.6,14.4,34.7,32.6
			c-9,5.4-16.4,12.9-21.7,22c-0.9,1.5-1.3,3.2-1.3,5v43.7h-123c-5.5,0-10,4.5-10,10v34.7h-13.4c-5.5,0-10,4.5-10,10s4.5,10,10,10
			h23.4c5.5,0,10-4.5,10-10v-34.7h69.8v75.2l-23.2-0.1c0,0,0,0,0,0c-5.5,0-10,4.5-10,10c0,5.5,4.5,10,10,10l56.5,0.1v37.9
			c0,5.5,4.5,10,10,10s10-4.5,10-10v-47.8c0-5.5-4.5-10-10-10l-23.3-0.1v-75.2h33.3c5.5,0,10-4.5,10-10V82.4
			c4.3-6.5,10.2-11.6,17.3-14.8c0,0,0.1,0,0.1-0.1c5.4-2.5,11.3-3.8,17.3-3.8c22.9,0,41.6,18.7,41.6,41.6c0,4.7-0.8,9.2-2.3,13.6
			c0,0,0,0.1-0.1,0.1c-3.3,9.4-9.8,17.3-18.5,22.3c-4.8,2.8-6.4,8.9-3.7,13.7c1.9,3.2,5.2,5,8.7,5c1.7,0,3.4-0.4,5-1.3
			c9.3-5.4,17-13.1,22.4-22.2c15.1,10.6,24.5,28.1,24.5,46.9c0,14.3-5.3,28-14.8,38.4c-3-1.2-6.1-2.2-9.2-3
			c-0.8-0.2-1.7-0.3-2.6-0.3h-37.8v-27.8c0-5.5-4.5-10-10-10s-10,4.5-10,10v37.8c0,5.5,4.5,10,10,10h46.5c3.8,1.1,7.4,2.5,11,4.2
			c0.1,0,0.1,0,0.2,0.1c23.5,11.5,38,34.9,38,61c0,5.1-0.6,10-1.6,14.8h-84v-42.2c0-5.5-4.5-10-10-10s-10,4.5-10,10v42.2H266v-42.2
			c0-5.5-4.5-10-10-10h-56.5v-30.2c0-5.5-4.5-10-10-10s-10,4.5-10,10v40.2c0,5.5,4.5,10,10,10H246v42.2c0,5.5,4.5,10,10,10h45.4
			v73.7c0,5.5,4.5,10,10,10s10-4.5,10-10v-73.7h135c-7.4,12.4-18.7,22.4-32.8,28.1c-0.1,0-0.1,0-0.2,0.1c-8.1,3.3-16.7,5-25.5,5
			c-5.9,0-11.9-0.8-17.6-2.3c-5.3-1.4-10.8,1.7-12.2,7.1c-1.4,5.3,1.7,10.8,7.1,12.2c7.4,2,15.1,3,22.8,3c6.9,0,13.7-0.8,20.4-2.4
			c-0.4,27.8-20.4,51.1-47.9,55.6c0,0-0.1,0-0.1,0c-8,1.3-16.2,0.9-24.1-1.2c-5.3-1.4-10.8,1.7-12.2,7.1c-1.4,5.3,1.7,10.8,7.1,12.2
			c5.4,1.5,11,2.3,16.6,2.5c-8.2,15.8-24.7,26.3-43.2,26.3c-26.8,0-48.6-21.8-48.6-48.6v-62.7c0-5.5-4.5-10-10-10h-56.5v-42.1
			c0-5.5-4.5-10-10-10h-61V271c0-5.5-4.5-10-10-10H61c6.1-7.5,13.9-13.8,23-18.3c0.1,0,0.1,0,0.2-0.1c3.9-1.9,8-3.4,12.2-4.6
			c5.3-1.4,8.5-6.9,7.1-12.2c-1.4-5.3-6.9-8.5-12.2-7.1c-3.1,0.8-6.2,1.9-9.2,3c-9.5-10.5-14.8-24.2-14.8-38.4
			c0-18.8,9.3-36.3,24.5-46.9c5.4,9.2,13,16.9,22.3,22.2c1.6,0.9,3.3,1.3,5,1.3c3.5,0,6.8-1.8,8.7-5c2.8-4.8,1.1-10.9-3.7-13.7
			c-8.6-5-15.2-12.9-18.5-22.3c0,0,0-0.1-0.1-0.1c-1-2.8-1.7-5.8-2-8.7c-0.6-5.5-5.6-9.4-11.1-8.8c-5.5,0.6-9.4,5.6-8.8,11.1
			c0.2,1.6,0.4,3.2,0.8,4.8c-22.8,13.9-37.2,39-37.2,66c0,17.5,6,34.4,16.7,48c-23.7,16.3-37.9,43-37.9,72.4
			c0,33.4,18.5,63.4,47.9,78.3c-0.2,2.2-0.3,4.3-0.3,6.5c0,18.4,6.6,36.3,18.6,50.3c10.4,12.1,24.3,20.7,39.6,24.6
			c8.7,28.5,35.3,48.6,65.6,48.6c24.8,0,46.5-13.2,58.6-33c12.1,19.8,33.8,33,58.6,33c30.3,0,56.9-20.1,65.6-48.6
			c15.3-3.9,29.2-12.5,39.6-24.6c12-14,18.6-31.8,18.6-50.3c0-2.2-0.1-4.3-0.3-6.5C467.5,367.2,486,337.2,486,303.8L486,303.8z
			 M197.4,492c-18.5,0-35-10.5-43.2-26.3c5.6-0.2,11.1-1.1,16.6-2.5c5.3-1.4,8.5-6.9,7.1-12.2c-1.4-5.3-6.9-8.5-12.2-7.1
			c-7.8,2.1-16.1,2.5-24.1,1.2c0,0-0.1,0-0.1,0c-27.5-4.5-47.5-27.8-47.9-55.6c6.7,1.6,13.5,2.4,20.4,2.4c7.7,0,15.3-1,22.8-3
			c5.3-1.4,8.5-6.9,7.1-12.2c-1.4-5.3-6.9-8.5-12.2-7.1c-5.7,1.5-11.7,2.3-17.6,2.3c-8.8,0-17.3-1.7-25.5-5c-0.1,0-0.1,0-0.2-0.1
			c-25.7-10.5-42.3-35.2-42.3-63c0-7.9,1.3-15.6,3.9-22.7h58.6v47.6c0,5.5,4.5,10,10,10h61v73.7c0,5.5,4.5,10,10,10s10-4.5,10-10
			v-21.7H246v52.7C246,470.2,224.2,492,197.4,492L197.4,492z"/>
		<path class="st0" d="M108.3,78.9c5.5,0,10-4.5,10-10s-4.5-10-10-10h0c-5.5,0-10,4.5-10,10S102.8,78.9,108.3,78.9z"/>
	</g>
</g>
</svg>
