<?xml version="1.0" encoding="utf-8"?>
<!-- Generator: Adobe Illustrator 23.0.3, SVG Export Plug-In . SVG Version: 6.00 Build 0)  -->
<svg version="1.1" id="Layer_1" xmlns="http://www.w3.org/2000/svg" xmlns:xlink="http://www.w3.org/1999/xlink" x="0px" y="0px"
	 width="512px" height="512px" viewBox="0 0 512 512" style="enable-background:new 0 0 512 512;" xml:space="preserve">
<style type="text/css">
	.st0{fill:#262626;}
</style>
<g>
	<path class="st0" d="M445.7,516L417,487.3L388.3,516H369V397.6c-15.3-13.7-24-33.2-24-53.6c0-18.1,6.8-35.4,19.1-48.8
		c11.8-12.8,27.7-20.8,44.9-22.7v-0.2l2-0.1h14v0.3c18.7,2.1,35.7,11.4,47.7,25.9V78h-352v80h-80v224h287.7v16H24.6V146.7L109.3,62
		h379.3v274.7c0.2,2.4,0.4,4.9,0.4,7.3c0,20.4-8.7,39.9-24,53.6V516H445.7z M449,496.8v-88.3c-9.9,4.9-20.9,7.5-32,7.5
		s-22.1-2.6-32-7.5v88.3l32-32L449,496.8z M417,288c-30.9,0-56,25.1-56,56s25.1,56,56,56c30.7,0,55.8-24.9,56-55.6h-0.4v-6.9
		C469.4,309.3,445.5,288,417,288z M104.6,142V89.3L51.9,142H104.6z"/>
	<path class="st0" d="M26.6,147.5V396h299.7v-12H38.6V156h80V76h356v266.5h12V64H110.1L26.6,147.5z M106.6,144H47.1l59.5-59.5V144z
		 M423,274.3L423,274.3l-12-0.1v0.1c-35.8,3.1-64,33.2-64,69.7c0,21,9.3,39.8,24,52.7v117.3h16.5l29.5-29.5l29.5,29.5H463V396.8
		c14.7-12.8,24-31.7,24-52.7C487,307.5,458.8,277.4,423,274.3z M451,501.6l-34-34l-34,34v-96.3c10.1,5.6,21.7,8.8,34,8.8
		s23.9-3.2,34-8.8V501.6z M417,402.1c-32,0-58-26-58-58c0-32,26-58,58-58s58,26,58,58C475,376,449,402.1,417,402.1z"/>
	<rect x="141" y="152.5" class="st0" width="100" height="16"/>
	<path class="st0" d="M143,154.5h96v12h-96V154.5z"/>
	<rect x="304.6" y="150.6" class="st0" width="68" height="16"/>
	<path class="st0" d="M306.5,152.5h64v12h-64V152.5z"/>
	<rect x="141" y="197" class="st0" width="228" height="16"/>
	<path class="st0" d="M143,199h224v12H143V199z"/>
	<rect x="141" y="229" class="st0" width="228" height="16"/>
	<path class="st0" d="M143,231h224v12H143V231z"/>
	<rect x="141" y="261" class="st0" width="166.6" height="16"/>
	<path class="st0" d="M143,263h162.7v12H143V263z"/>
	<rect x="141" y="292.4" class="st0" width="68" height="16"/>
	<path class="st0" d="M143,294.4h64v12h-64V294.4z"/>
	<path class="st0" d="M416,383.4c-22,0-40-17.9-40-40s17.9-40,40-40s40,17.9,40,40S438,383.4,416,383.4z M416,319.4
		c-13.2,0-24,10.8-24,24s10.8,24,24,24s24-10.8,24-24S429.2,319.4,416,319.4z"/>
	<path class="st0" d="M416,305.5c-21,0-38,17-38,38c0,20.9,17,38,38,38s38-17.1,38-38C454,322.5,437,305.5,416,305.5z M416,369.5
		c-14.3,0-26-11.7-26-26c0-14.3,11.7-26,26-26s26,11.7,26,26C442,357.8,430.3,369.5,416,369.5z"/>
</g>
</svg>
