<?xml version="1.0" encoding="utf-8"?>
<!-- Generator: Adobe Illustrator 23.0.3, SVG Export Plug-In . SVG Version: 6.00 Build 0)  -->
<svg version="1.1" id="Capa_1" xmlns="http://www.w3.org/2000/svg" xmlns:xlink="http://www.w3.org/1999/xlink" x="0px" y="0px"
	 width="512px" height="512px" viewBox="0 0 512 512" style="enable-background:new 0 0 512 512;" xml:space="preserve">
<style type="text/css">
	.st0{fill:#C7BABB;}
</style>
<g>
	<path class="st0" d="M497,337H175V15c0-8.3-6.7-15-15-15H15C6.7,0,0,6.7,0,15v482c0,8.3,6.7,15,15,15h482c8.3,0,15-6.7,15-15V352
		C512,343.7,505.3,337,497,337z M30,30h115v43h-33c-8.3,0-15,6.7-15,15s6.7,15,15,15h33v34h-17c-8.3,0-15,6.7-15,15s6.7,15,15,15h17
		v34h-33c-8.3,0-15,6.7-15,15s6.7,15,15,15h33v34h-17c-8.3,0-15,6.7-15,15s6.7,15,15,15h17v42H30V30z M30,367h115v115H30V367z
		 M482,482H175V367h42v33c0,8.3,6.7,15,15,15s15-6.7,15-15v-33h34v17c0,8.3,6.7,15,15,15s15-6.7,15-15v-17h34v33c0,8.3,6.7,15,15,15
		s15-6.7,15-15v-33h34v17c0,8.3,6.7,15,15,15s15-6.7,15-15v-17h43V482z"/>
	<path class="st0" d="M102.7,421.1c-1.9-8.9-10.7-13.9-19.1-11.4c-8.6,2.8-12.2,11.3-10,18.7c2.8,8.7,11.4,12.2,18.7,10
		C100.3,435.8,104.1,428.3,102.7,421.1L102.7,421.1z"/>
</g>
</svg>
