<?xml version="1.0" encoding="utf-8"?>
<!-- Generator: Adobe Illustrator 23.1.0, SVG Export Plug-In . SVG Version: 6.00 Build 0)  -->
<svg version="1.1" id="Layer_1" xmlns="http://www.w3.org/2000/svg" xmlns:xlink="http://www.w3.org/1999/xlink" x="0px" y="0px"
	 width="475.553px" height="475.525px" viewBox="0 0 475.553 475.525" enable-background="new 0 0 475.553 475.525"
	 xml:space="preserve">
<g>
	<path d="M296.886,129.837c-0.004-32.644-26.472-59.104-59.116-59.1s-59.104,26.472-59.1,59.116
		c0.004,32.641,26.467,59.1,59.108,59.1C270.409,188.913,296.85,162.468,296.886,129.837z M192.67,129.837
		c0.004-24.912,20.204-45.104,45.116-45.1s45.104,20.204,45.1,45.116c-0.004,24.909-20.199,45.1-45.108,45.1
		C212.874,174.924,192.694,154.741,192.67,129.837z"/>
	<path d="M475.09,466.029l-57.064-149.6c-1.036-2.711-3.637-4.503-6.54-4.504h-108c0.66-1.076,1.316-2.12,1.976-3.2
		c41.556-68.8,62.468-128.984,62.168-178.856C367.637,58.151,309.504,0.007,237.787,0c-71.71-0.007-129.852,58.115-129.869,129.825
		c-0.3,49.916,20.612,110.108,62.168,178.9c0.66,1.092,1.316,2.136,1.976,3.2h-108c-2.903,0.001-5.504,1.793-6.54,4.504
		l-57.056,149.6c-1.383,3.605,0.419,7.649,4.024,9.032c0.803,0.308,1.656,0.465,2.516,0.464H468.55
		c3.862,0.007,6.997-3.119,7.004-6.98C475.555,467.685,475.398,466.832,475.09,466.029L475.09,466.029z M121.922,129.837
		c0.011-63.986,51.891-115.847,115.876-115.836c63.985,0.011,115.847,51.89,115.836,115.876l0,0
		c0.6,99.432-92.36,222.068-115.856,251.476C214.282,351.957,121.318,229.353,121.922,129.837L121.922,129.837z M232.446,396.953
		c2.505,2.945,6.923,3.301,9.867,0.797c0.286-0.244,0.553-0.51,0.797-0.797c18.585-22.641,35.816-46.361,51.6-71.036h111.948
		l8.96,23.5l-218.764,77.804l-77.976-101.316h61.96C196.624,350.585,213.857,374.309,232.446,396.953L232.446,396.953z
		 M196.61,442.153h0.04l130.508-46.4l50.62,65.772h-235.6L196.61,442.153z M68.89,325.905h32.32l81.768,106.248l-82.572,29.368
		h-83.24L68.89,325.905z M395.462,461.525l-54.436-70.728l79.6-28.308l37.772,99.036H395.462z"/>
</g>
</svg>
