<?xml version="1.0" encoding="utf-8"?>
<!-- Generator: Adobe Illustrator 23.0.3, SVG Export Plug-In . SVG Version: 6.00 Build 0)  -->
<svg version="1.1" id="Capa_1" xmlns="http://www.w3.org/2000/svg" xmlns:xlink="http://www.w3.org/1999/xlink" x="0px" y="0px"
	 width="512px" height="512px" viewBox="0 0 512 512" style="enable-background:new 0 0 512 512;" xml:space="preserve">
<style type="text/css">
	.st0{fill:#262626;}
</style>
<g>
	<path class="st0" d="M497.4,59.3c8,0,14.6-6.5,14.6-14.6V14.6c0-8-6.5-14.6-14.6-14.6h-30.1c-8,0-14.6,6.5-14.6,14.6v7.6H285.1
		C281.8,9.4,270.2,0,256.4,0c-13.8,0-25.3,9.4-28.7,22.1h-51.2c-4.1,0-7.5,3.4-7.5,7.5s3.4,7.5,7.5,7.5h51.2
		c3.3,12.7,14.9,22.1,28.7,22.1c13.8,0,25.3-9.4,28.7-22.1h167.6v7.6c0,8,6.5,14.6,14.6,14.6h7.6v168.4c-13,3.2-22.6,14.9-22.6,28.8
		s9.7,25.6,22.6,28.8v167.4h-7.6c-8,0-14.6,6.5-14.6,14.6v8.6h-26.8c-4.1,0-7.5,3.4-7.5,7.5s3.4,7.5,7.5,7.5h26.8v6.5
		c0,8,6.5,14.6,14.6,14.6h30.1c8,0,14.6-6.5,14.6-14.6v-30.1c0-8-6.5-14.6-14.6-14.6h-7.6V285c12.5-3.5,21.6-15,21.6-28.5
		s-9.2-25-21.6-28.5V59.3L497.4,59.3z M256.4,44.3c-8.1,0-14.6-6.6-14.6-14.6c0-8.1,6.6-14.6,14.6-14.6s14.6,6.6,14.6,14.6
		C271.1,37.7,264.5,44.3,256.4,44.3z M497,497h-29.2v-29.2H497V497z M496.5,256.5c0,8.1-6.6,14.6-14.6,14.6s-14.6-6.6-14.6-14.6
		s6.6-14.6,14.6-14.6S496.5,248.4,496.5,256.5z M467.7,15H497v29.2h-29.2V15z"/>
	<path class="st0" d="M393.9,475.8H286.1v-8.6c0-8-6.5-14.6-14.6-14.6h-7.1v-16.9c0-4.1-3.4-7.5-7.5-7.5c-4.1,0-7.5,3.4-7.5,7.5
		v16.9h-8c-8,0-14.6,6.5-14.6,14.6v8.6H59.3v-8.6c0-8-6.5-14.6-14.6-14.6h-7.6V286.1h8.2c7.7,0,14-6.3,14-14V263h17.5
		c4.1,0,7.5-3.4,7.5-7.5c0-4.1-3.4-7.5-7.5-7.5H59.3v-7.2c0-7.7-6.3-14-14-14h-8.2V59.3h7.6c8,0,14.6-6.5,14.6-14.6v-7.6h85.3
		c4.1,0,7.5-3.4,7.5-7.5s-3.4-7.5-7.5-7.5H59.3v-7.6c0-8-6.5-14.6-14.6-14.6H14.6C6.5,0,0,6.6,0,14.6v30.1c0,8,6.5,14.6,14.6,14.6
		h7.6v167.5H14c-7.7,0-14,6.3-14,14v31.3c0,7.7,6.3,14,14,14h8.2v166.5h-7.6c-8,0-14.6,6.5-14.6,14.6v30.1c0,8,6.5,14.6,14.6,14.6
		h30.1c8,0,14.6-6.5,14.6-14.6v-6.5h167.5v6.5c0,8,6.5,14.6,14.6,14.6h30.1c8,0,14.6-6.5,14.6-14.6v-6.5h107.8
		c4.1,0,7.5-3.4,7.5-7.5S398,475.8,393.9,475.8z M15,15h29.2v29.2H15V15z M15,241.9h29.2v29.2H15V241.9z M44.3,497H15v-29.2h29.2
		V497z M271.1,497h-29.2v-29.2h29.2V497z"/>
	<path class="st0" d="M167.4,263.5h18.8c4.1,0,7.5-3.4,7.5-7.5c0-4.1-3.4-7.5-7.5-7.5h-18.8c-4.1,0-7.5,3.4-7.5,7.5
		C159.9,260.1,163.3,263.5,167.4,263.5z"/>
	<path class="st0" d="M107.3,248.8c-4.1,0-7.5,3.4-7.5,7.5s3.4,7.5,7.5,7.5h18.8c4.1,0,7.5-3.4,7.5-7.5s-3.4-7.5-7.5-7.5H107.3z"/>
	<path class="st0" d="M257.4,353.6c4.1,0,7.5-3.4,7.5-7.5v-18.8c0-4.1-3.4-7.5-7.5-7.5c-4.1,0-7.5,3.4-7.5,7.5v18.8
		C249.8,350.3,253.2,353.6,257.4,353.6z"/>
	<path class="st0" d="M257.7,413.7c4.1,0,7.5-3.4,7.5-7.5v-18.8c0-4.1-3.4-7.5-7.5-7.5s-7.5,3.4-7.5,7.5v18.8
		C250.1,410.3,253.5,413.7,257.7,413.7z"/>
	<path class="st0" d="M182.4,310.9c0.4-4.1-2.6-7.8-6.7-8.2c-4.1-0.4-7.8,2.6-8.2,6.7l-3.2,31.2c-0.2,2.3,0.6,4.5,2.2,6.1
		c1.4,1.4,3.3,2.2,5.3,2.2c0.3,0,0.5,0,0.8,0l29.9-3.1c4.1-0.4,7.1-4.1,6.7-8.2c-0.4-4.1-4.1-7.1-8.2-6.7l-8.5,0.9l46.3-46.3
		c1,0.3,2.1,0.4,3.3,0.4h8.2v11.3c0,4.1,3.4,7.5,7.5,7.5c4.1,0,7.5-3.4,7.5-7.5v-11.3h8.2c7.7,0,14-6.3,14-14v-31.3
		c0-1.1-0.1-2.2-0.4-3.3l45.3-45.3l-0.9,8.5c-0.4,4.1,2.6,7.8,6.7,8.2c0.3,0,0.5,0,0.8,0c3.8,0,7.1-2.9,7.5-6.7l3.1-29.9
		c0.2-2.3-0.6-4.5-2.2-6.1c-1.6-1.6-3.8-2.4-6.1-2.2l-31.2,3.2c-4.1,0.4-7.1,4.1-6.7,8.2c0.4,4.1,4.1,7.1,8.2,6.7l10.4-1.1
		l-45.8,45.8c-0.9-0.2-1.8-0.3-2.8-0.3h-31.3c-7.7,0-14,6.3-14,14v8.2h-11.3c-4.1,0-7.5,3.4-7.5,7.5c0,4.1,3.4,7.5,7.5,7.5h11.3v8.2
		c0,1,0.1,1.9,0.3,2.8l-46.8,46.8L182.4,310.9z M242.8,241.5h29.2v29.2h-29.2V241.5z"/>
</g>
</svg>
