<?xml version="1.0" encoding="utf-8"?>
<!-- Generator: Adobe Illustrator 23.0.3, SVG Export Plug-In . SVG Version: 6.00 Build 0)  -->
<svg version="1.1" id="Layer_1" xmlns="http://www.w3.org/2000/svg" xmlns:xlink="http://www.w3.org/1999/xlink" x="0px" y="0px"
	 width="512px" height="512px" viewBox="0 0 512 512" style="enable-background:new 0 0 512 512;" xml:space="preserve">
<style type="text/css">
	.st0{fill:#262626;}
</style>
<g id="outline">
	<path class="st0" d="M466,40H46c-16.6,0-30,13.4-30,30v276c0,16.6,13.4,30,30,30h153.8c-1.3,22-7.9,43.3-19.2,62.2l-3.4,5.7
		c-2.3,3.8-1,8.7,2.7,11c1.2,0.7,2.7,1.1,4.1,1.1h144c4.4,0,8-3.6,8-8c0-1.4-0.4-2.9-1.1-4.1l-3.4-5.7
		c-11.3-18.9-17.9-40.2-19.2-62.2H466c16.6,0,30-13.4,30-30V70C496,53.4,482.6,40,466,40z M314.1,440H197.9
		c10.6-19.8,16.7-41.6,17.9-64h17.6c-4.4,12.5,2.1,26.2,14.6,30.6c12.5,4.4,26.2-2.1,30.6-14.6c1.8-5.2,1.8-10.8,0-16h17.6
		C297.4,398.4,303.5,420.2,314.1,440z M248,384c0-4.4,3.6-8,8-8s8,3.6,8,8s-3.6,8-8,8C251.6,392,248,388.4,248,384z M480,346
		c0,7.7-6.3,14-14,14H46c-7.7,0-14-6.3-14-14v-18h448V346z M480,312H32V70c0-7.7,6.3-14,14-14h420c7.7,0,14,6.3,14,14V312z"/>
	<path class="st0" d="M328,264h-88v-8c0-4.4-3.6-8-8-8h-24c-4.4,0-8,3.6-8,8v8h-16c-4.4,0-8,3.6-8,8s3.6,8,8,8h16v8c0,4.4,3.6,8,8,8
		h24c4.4,0,8-3.6,8-8v-8h88c4.4,0,8-3.6,8-8S332.4,264,328,264z M224,280h-8v-16h8V280z"/>
	<path class="st0" d="M331.9,113L331.9,113L331.9,113L331.9,113l-72-40c-2.4-1.3-5.4-1.3-7.8,0l-72,40c0,0,0,0-0.1,0s-0.1,0-0.1,0.1
		c-2.4,1.4-3.9,4.1-3.9,6.9v80c0,2.9,1.6,5.6,4.1,7l72,40c2.4,1.3,5.3,1.3,7.7,0c0,0,0.1,0,0.1,0l72-40c2.5-1.4,4.1-4.1,4.1-7v-80
		C336,117.1,334.4,114.4,331.9,113z M248,226.4l-56-31.1v-61.7l56,31.1V226.4z M256,150.8L200.5,120L256,89.2l55.5,30.8L256,150.8z
		 M320,195.3l-56,31.1v-61.7l56-31.1V195.3z"/>
</g>
</svg>
