<?xml version="1.0" encoding="utf-8"?>
<!-- Generator: Adobe Illustrator 23.0.3, SVG Export Plug-In . SVG Version: 6.00 Build 0)  -->
<svg version="1.1" id="Capa_1" xmlns="http://www.w3.org/2000/svg" xmlns:xlink="http://www.w3.org/1999/xlink" x="0px" y="0px"
	 width="512px" height="512px" viewBox="0 0 512 512" style="enable-background:new 0 0 512 512;" xml:space="preserve">
<style type="text/css">
	.st0{fill:#262626;}
</style>
<g>
	<path class="st0" d="M403.8,166.8l22.5-65.8c1.5-4.5,0.4-9.4-3-12.7c-3.4-3.4-8.2-4.5-12.7-3l-18.5,6.3c-3.9,1.3-6,5.6-4.7,9.5
		c1.3,3.9,5.6,6,9.5,4.7l13.3-4.6l-21.1,61.8c-1.2,3.5-0.8,7.4,1.2,10.5l35.6,56.9l-68.5-5.4c-4.5-0.4-8.9,1.8-11.3,5.6l-34.7,53.7
		l-17.7-58.5c-1.2-4-4.3-7.1-8.3-8.3L227,200.2l53.7-34.7c3.8-2.5,6-6.8,5.6-11.3L281,85.7l57,35.6c3.2,2,7,2.4,10.5,1.2l18.1-6.2
		c3.9-1.3,6-5.6,4.7-9.5c-1.3-3.9-5.6-6-9.5-4.7l-16.9,5.8l-60.4-37.7c-4-2.5-8.9-2.5-13-0.1c-4,2.4-6.3,6.9-5.9,11.5l5.6,72.2
		l-57.2,37c-4.1,2.6-6.2,7.3-5.5,12.1s4,8.7,8.7,10.1l33.6,10.2L72.4,401.5c-2.9,2.9-2.9,7.7,0,10.6c1.5,1.5,3.4,2.2,5.3,2.2
		s3.8-0.7,5.3-2.2L267.1,228l12.7,3.8l3.8,12.7l-56.2,56.2c-2.9,2.9-2.9,7.7,0,10.6c1.5,1.5,3.4,2.2,5.3,2.2s3.8-0.7,5.3-2.2
		l50.5-50.5l10.2,33.6c1.4,4.7,5.3,8,10.1,8.7c0.6,0.1,1.2,0.1,1.8,0.1c4.2,0,8-2.1,10.3-5.7l37-57.2l72.2,5.6
		c4.7,0.4,9.1-1.9,11.5-5.9c2.4-4,2.4-9-0.1-13L403.8,166.8z"/>
	<path class="st0" d="M204.7,323.5L35.4,492.7c-4.9,4.9-12.6,5.2-17.1,0.6c-4.6-4.6-4.3-12.2,0.6-17.1l41.4-41.4
		c2.9-2.9,2.9-7.7,0-10.6c-2.9-2.9-7.7-2.9-10.6,0L8.3,465.6c-10.8,10.8-11.1,28-0.6,38.4c5.1,5.1,11.8,7.6,18.6,7.6
		c7.1,0,14.3-2.8,19.8-8.3l169.3-169.3c2.9-2.9,2.9-7.7,0-10.6C212.4,320.5,207.6,320.5,204.7,323.5L204.7,323.5z"/>
	<path class="st0" d="M161.4,157.3c1.8,0.9,3.7,1.4,5.7,1.4c1.3,0,2.6-0.2,3.8-0.6l29.6-9.9c3.9-1.3,6.8-4.5,7.8-8.5
		c1-4-0.1-8.1-2.9-11.1l-22.2-23.3c-4.3-4.6-11.5-5-16.3-1l0,0c-16,13.3-15,32.1-11.4,45.6C156.3,153,158.5,155.8,161.4,157.3
		L161.4,157.3z M174.3,117.8l16.7,17.6l-21.9,7.3C167.5,135.1,167.1,125.5,174.3,117.8z"/>
	<path class="st0" d="M326.8,51.4c2.3,3.2,5.9,5.1,9.8,5.1c0.2,0,0.3,0,0.5,0c4.1-0.2,7.8-2.4,9.9-5.9l16.2-27.8
		c3.2-5.4,1.6-12.4-3.6-15.9c0,0,0,0,0,0c-17.3-11.6-35.1-5.4-46.9,1.9c-2.8,1.7-4.8,4.5-5.5,7.8c-0.7,3.2,0,6.6,1.9,9.3L326.8,51.4
		z M348.6,17.8l-12.2,21l-13.2-18.9C330.1,16.1,339.3,13,348.6,17.8z"/>
	<path class="st0" d="M245.5,48.2c1.5,1.8,3.7,2.8,5.9,2.8c1.7,0,3.3-0.5,4.7-1.7c3.2-2.6,3.7-7.3,1.1-10.6l-13.7-16.9
		c-2.6-3.2-7.3-3.7-10.6-1.1c-3.2,2.6-3.7,7.3-1.1,10.6L245.5,48.2z"/>
	<path class="st0" d="M383.7,307c-3-2.8-7.1-3.9-11.1-2.9c-4,1-7.1,3.9-8.5,7.8l-9.9,29.6c-1,3.1-0.7,6.5,0.8,9.4
		c1.6,2.9,4.3,5.1,7.4,5.9c5.8,1.6,11,2.2,15.7,2.2c14.9,0,24.3-6.9,29.9-13.6c4-4.8,3.6-12-1-16.3L383.7,307z M369.6,343.2
		l7.3-21.9l17.6,16.7C386.9,345.3,377.2,344.8,369.6,343.2z"/>
	<path class="st0" d="M505.5,152.8C505.5,152.8,505.5,152.8,505.5,152.8c-3.5-5.2-10.5-6.8-15.9-3.6l-27.8,16.2
		c-3.6,2.1-5.8,5.7-5.9,9.9c-0.2,4.1,1.7,8,5.1,10.3l25.6,17.8c2,1.4,4.4,2.1,6.8,2.1c0.8,0,1.6-0.1,2.4-0.3c3.2-0.7,6-2.7,7.8-5.5
		C516.9,178.2,512,162.4,505.5,152.8L505.5,152.8z M492.5,189.1l-18.9-13.2l21-12.2C499.4,173.1,496.3,182.2,492.5,189.1z"/>
	<path class="st0" d="M490.6,268.8l-16.9-13.7c-3.2-2.6-8-2.1-10.6,1.1c-2.6,3.2-2.1,8,1.1,10.6l16.9,13.7c1.4,1.1,3.1,1.7,4.7,1.7
		c2.2,0,4.4-1,5.9-2.8C494.3,276.2,493.8,271.5,490.6,268.8z"/>
	<path class="st0" d="M472.7,42.8c-2.8-3-7.6-3.2-10.6-0.4l-18.8,17.6c-3,2.8-3.2,7.6-0.4,10.6c1.5,1.6,3.5,2.4,5.5,2.4
		c1.8,0,3.7-0.7,5.1-2l18.8-17.6C475.4,50.6,475.5,45.9,472.7,42.8z"/>
</g>
</svg>
