<?xml version="1.0" encoding="utf-8"?>
<!-- Generator: Adobe Illustrator 23.1.0, SVG Export Plug-In . SVG Version: 6.00 Build 0)  -->
<svg version="1.1" id="Layer_1" xmlns="http://www.w3.org/2000/svg" xmlns:xlink="http://www.w3.org/1999/xlink" x="0px" y="0px"
	 width="476px" height="380px" viewBox="0 0 476 380" style="enable-background:new 0 0 476 380;" xml:space="preserve">
<style type="text/css">
	.st0{fill:#EBE7E7;}
</style>
<rect x="368" y="256" class="st0" width="12" height="12"/>
<rect x="304" y="256" class="st0" width="44" height="12"/>
<path class="st0" d="M406,380c-3.3,0-6-2.7-6-6v-26H204v26c0,3.3-2.7,6-6,6h-64c-3.3,0-6-2.7-6-6V166c0-12.1,9.9-22,22-22h42V38
	c0-20.9,17.1-38,38-38h144c20.9,0,38,17.1,38,38v106h42c12.1,0,22,9.9,22,22v208c0,3.3-2.7,6-6,6H406z M412,368h52V166
	c0-5.5-4.5-10-10-10h-42V368z M150,156c-5.5,0-10,4.5-10,10v202h52V156H150z M204,336h196v-36H204V336z M204,288h196v-68H204V288z
	 M230,12c-14.3,0-26,11.7-26,26v170h196V38c0-14.3-11.7-26-26-26H230z"/>
<path class="st0" d="M39.1,76c0.2-1.8,0.6-3.6,1.2-5.3c0.8-2.2,0.8-4.5,0-6.7c-1.7-4.7-1.7-9.9,0-14.6c0.2-0.4,0.3-0.9,0.4-1.4h12.1
	c-0.2,1.8-0.6,3.6-1.2,5.3c-0.8,2.2-0.8,4.5,0,6.7c1.7,4.7,1.7,9.9,0,14.6c-0.2,0.4-0.3,0.9-0.4,1.4H39.1z"/>
<path class="st0" d="M63.1,76c0.2-1.8,0.6-3.6,1.2-5.3c0.8-2.2,0.8-4.5,0-6.7c-1.7-4.7-1.7-9.9,0-14.6c0.2-0.4,0.3-0.9,0.4-1.4h12.1
	c-0.2,1.8-0.6,3.6-1.2,5.3c-0.8,2.2-0.8,4.5,0,6.7c1.7,4.7,1.7,9.9,0,14.6c-0.2,0.4-0.3,0.9-0.4,1.4H63.1z"/>
<path class="st0" d="M16,380v-12h16V204H6c-3.3,0-6-2.7-6-6v-32c0-3.3,2.7-6,6-6h20.3l-2.5-3.2c-5-6.5-7.8-14.6-7.8-22.8v-32
	c0-3.3,2.7-6,6-6h80c12.1,0,22,9.9,22,22s-9.9,22-22,22H91.6l-0.3,1.6c-1.2,5.5-3.6,10.7-7,15.2l-2.5,3.2H102c3.3,0,6,2.7,6,6v32
	c0,3.3-2.7,6-6,6H76v164h16v12H16z M44,368h20V204H44V368z M12,192h84v-20H12V192z M28,134c0,14.3,11.7,26,26,26s26-11.7,26-26v-26
	H28V134z M92,128h10c5.5,0,10-4.5,10-10s-4.5-10-10-10H92V128z"/>
<rect x="336" y="63.8" transform="matrix(-1.836970e-16 1 -1 -1.836970e-16 411.4287 -272.4004)" class="st0" width="11.8" height="11.4"/>
<rect x="256.1" y="63.8" transform="matrix(-1.836970e-16 1 -1 -1.836970e-16 331.543 -192.5146)" class="st0" width="11.8" height="11.4"/>
<rect x="256.1" y="143.7" transform="matrix(-1.836970e-16 1 -1 -1.836970e-16 411.4292 -112.6284)" class="st0" width="11.8" height="11.4"/>
<rect x="336" y="143.7" transform="matrix(-1.836970e-16 1 -1 -1.836970e-16 491.3149 -192.5142)" class="st0" width="11.8" height="11.4"/>
</svg>
