<?xml version="1.0" encoding="utf-8"?>
<!-- Generator: Adobe Illustrator 23.1.0, SVG Export Plug-In . SVG Version: 6.00 Build 0)  -->
<svg version="1.1" id="Layer_1" xmlns="http://www.w3.org/2000/svg" xmlns:xlink="http://www.w3.org/1999/xlink" x="0px" y="0px"
	 width="480px" height="480px" viewBox="0 0 480 480" enable-background="new 0 0 480 480" xml:space="preserve">
<g id="Calendar">
	<path fill="#262626" d="M440,48h-40V32c0-17.673-14.327-32-32-32s-32,14.327-32,32v16h-64V32c0-17.673-14.327-32-32-32
		s-32,14.327-32,32v16h-64V32c0-17.673-14.327-32-32-32S80,14.327,80,32v16H40C17.909,48,0,65.909,0,88v320
		c0,22.091,17.909,40,40,40h224c4.418,0,8-3.582,8-8s-3.582-8-8-8H40c-13.238-0.04-23.96-10.762-24-24V160h448v136
		c0,4.418,3.582,8,8,8s8-3.582,8-8V88C480,65.909,462.091,48,440,48z M352,32c0-8.837,7.163-16,16-16s16,7.163,16,16v48
		c0,8.837-7.163,16-16,16s-16-7.163-16-16V32z M224,32c0-8.837,7.163-16,16-16c8.837,0,16,7.163,16,16v48c0,8.837-7.163,16-16,16
		c-8.837,0-16-7.163-16-16V32z M96,32c0-8.837,7.163-16,16-16s16,7.163,16,16v48c0,8.837-7.163,16-16,16s-16-7.163-16-16V32z
		 M464,144H16V88c0.04-13.238,10.762-23.96,24-24h40v16c0,17.673,14.327,32,32,32s32-14.327,32-32V64h64v16
		c0,17.673,14.327,32,32,32s32-14.327,32-32V64h64v16c0,17.673,14.327,32,32,32s32-14.327,32-32V64h40
		c13.238,0.04,23.96,10.762,24,24V144z"/>
	<path fill="#262626" d="M224,216c0-8.837-7.163-16-16-16h-32c-8.837,0-16,7.163-16,16v24c0,8.837,7.163,16,16,16h32
		c8.837,0,16-7.163,16-16V216z M176,240v-24h32v24H176z"/>
	<path fill="#262626" d="M128,216c0-8.837-7.163-16-16-16H80c-8.837,0-16,7.163-16,16v24c0,8.837,7.163,16,16,16h32
		c8.837,0,16-7.163,16-16V216z M80,240v-24h32v24H80z"/>
	<path fill="#262626" d="M400,256c8.837,0,16-7.163,16-16v-24c0-8.837-7.163-16-16-16h-32c-8.837,0-16,7.163-16,16v24
		c0,8.837,7.163,16,16,16H400z M368,216h32v24h-32V216z"/>
	<path fill="#262626" d="M224,288c0-8.837-7.163-16-16-16h-32c-8.837,0-16,7.163-16,16v24c0,8.837,7.163,16,16,16h32
		c8.837,0,16-7.163,16-16V288z M176,312v-24h32v24H176z"/>
	<path fill="#262626" d="M128,288c0-8.837-7.163-16-16-16H80c-8.837,0-16,7.163-16,16v24c0,8.837,7.163,16,16,16h32
		c8.837,0,16-7.163,16-16V288z M80,312v-24h32v24H80z"/>
	<path fill="#262626" d="M208,344h-32c-8.837,0-16,7.163-16,16v24c0,8.837,7.163,16,16,16h32c8.837,0,16-7.163,16-16v-24
		C224,351.163,216.837,344,208,344z M176,384v-24h32v24H176z"/>
	<path fill="#262626" d="M272,256h32c8.837,0,16-7.163,16-16v-24c0-8.837-7.163-16-16-16h-32c-8.837,0-16,7.163-16,16v24
		C256,248.837,263.163,256,272,256z M272,216h32v24h-32V216z"/>
	<path fill="#262626" d="M256,312c0,8.837,7.163,16,16,16c4.418,0,8-3.582,8-8s-3.582-8-8-8v-24h32c4.418,0,8-3.582,8-8
		s-3.582-8-8-8h-32c-8.837,0-16,7.163-16,16V312z"/>
	<path fill="#262626" d="M112,344H80c-8.837,0-16,7.163-16,16v24c0,8.837,7.163,16,16,16h32c8.837,0,16-7.163,16-16v-24
		C128,351.163,120.837,344,112,344z M80,384v-24h32v24H80z"/>
	<path fill="#262626" d="M376,272c-57.438,0-104,46.562-104,104s46.562,104,104,104s104-46.562,104-104
		C479.934,318.59,433.41,272.066,376,272z M376,464c-48.601,0-88-39.399-88-88s39.399-88,88-88s88,39.399,88,88
		C463.943,424.577,424.577,463.943,376,464z"/>
	<path fill="#262626" d="M422.224,342.464L360,404.688L331.72,376.4c-3.178-3.07-8.242-2.982-11.312,0.196
		c-2.995,3.1-2.995,8.016,0,11.116l33.936,33.944c3.124,3.123,8.188,3.123,11.312,0l67.88-67.88
		c3.07-3.178,2.982-8.242-0.196-11.312C430.24,339.469,425.324,339.469,422.224,342.464z"/>
</g>
</svg>
