<svg id="Capa_1" enable-background="new 0 0 512 512" height="512" viewBox="0 0 512 512" width="512" xmlns="http://www.w3.org/2000/svg"><g id="slidesgo" transform="translate(151 1764)"><g id="Group"><path id="Path" d="m-54.484-1548.423-62.808-10.362c-.17 0-.34 0-.681 0-2.043 0-3.745 1.529-3.745 3.737v4.926l57.191 9.343c4.085.679 7.149 4.247 7.149 8.493v49.091l4.766.849h.681c2.043 0 3.745-1.529 3.745-3.737v-55.036c-.17-3.737-2.723-6.795-6.298-7.304z"/><path d="m-68.781-1535.513-62.978-10.362c-.17 0-.34 0-.681 0-2.043 0-3.745 1.529-3.745 3.737v5.096l56.68 9.343c4.085.679 7.149 4.247 7.149 8.493v49.261l4.766.849h.681c2.043 0 3.745-1.529 3.745-3.737v-56.056c0-3.227-2.383-6.115-5.617-6.624z"/><path id="Shape" d="m-83.589-1523.113-62.808-10.362c-.17 0-.34 0-.681 0-2.043 0-3.745 1.529-3.745 3.737v57.075c0 2.548 1.872 4.756 4.425 5.096l64.34 10.702h.681c2.043 0 3.745-1.529 3.745-3.737v-55.546c-.17-3.398-2.553-6.286-5.957-6.965zm-38.808 39.239c0 1.189-1.532 1.699-2.383.849l-15.319-14.099c-.851-.68-.851-2.038 0-2.378l15.319-8.833c1.021-.51 2.383.34 2.383 1.699zm32.169-5.096-15.319 9.173c-1.021.679-2.383-.34-2.383-1.699v-22.932c0-1.189 1.362-1.699 2.383-.849l15.319 13.759c.851.849.851 2.038 0 2.548z"/></g><g transform="translate(44.352)"><path d="m-25.645-1517.677c-4.255-2.038-10.893-4.247-16.851-4.247-5.447 0-8.17 1.869-8.17 4.756 0 3.058 3.745 3.737 8.681 4.586l4.766.679c11.404 1.699 17.872 6.795 17.872 15.797 0 10.871-9.021 18.006-24.34 18.006-7.149 0-16.681-1.359-23.489-6.285l5.617-10.871c4.596 3.057 10.042 5.266 18.042 5.266 6.638 0 9.872-1.869 9.872-4.926 0-2.548-2.723-3.907-8.851-4.926l-4.255-.679c-12.255-1.699-18.383-6.964-18.383-15.967 0-10.871 8.34-17.326 22.298-17.326 8.511 0 15.149 1.529 22.127 5.096z"/><path d="m2.269-1479.458h-14.297v-78.648h14.297z"/><path d="m27.46-1550.122c.17 6.285-5.447 10.871-12.085 9.003-2.383-.679-4.936-3.227-5.617-5.606-2.043-6.625 2.553-12.4 8.851-12.23 4.766.17 8.681 4.077 8.851 8.833zm-1.872 70.494h-14.298v-52.828h14.298z"/><path d="m72.907-1527.02v-31.255h14.298v78.648h-13.958v-5.775c-3.404 4.247-8.511 7.134-15.83 7.134-14.638 0-25.702-11.891-25.702-27.858s11.064-27.858 25.702-27.858c7.149-.001 12.085 2.887 15.49 6.964zm-26.553 20.893c0 8.154 5.277 14.608 13.617 14.608 8.17 0 13.617-6.285 13.617-14.608s-5.447-14.608-13.617-14.608c-8.341 0-13.617 6.625-13.617 14.608z"/><path d="m146.608-1506.127c0 1.699-.17 3.567-.34 4.756h-37.617c1.532 7.644 6.808 11.041 13.617 11.041 4.596 0 9.532-1.869 13.447-5.096l8.34 9.173c-5.957 5.436-13.617 7.984-22.638 7.984-16.17 0-27.574-11.041-27.574-27.688s10.893-28.028 26.723-28.028c15.489 0 25.871 11.381 26.042 27.858zm-37.787-4.926h23.489c-1.362-6.795-5.447-10.532-11.574-10.532-6.809.001-10.724 3.908-11.915 10.532z"/><path d="m191.884-1517.677c-4.255-2.038-10.893-4.247-16.851-4.247-5.447 0-8.17 1.869-8.17 4.756 0 3.058 3.745 3.737 8.681 4.586l4.766.679c11.404 1.699 17.872 6.795 17.872 15.797 0 10.871-9.021 18.006-24.34 18.006-7.149 0-16.681-1.359-23.489-6.285l5.617-10.871c4.596 3.057 10.042 5.266 18.042 5.266 6.638 0 9.872-1.869 9.872-4.926 0-2.548-2.723-3.907-8.851-4.926l-4.255-.679c-12.255-1.699-18.383-6.964-18.383-15.967 0-10.871 8.34-17.326 22.298-17.326 8.511 0 15.149 1.529 22.127 5.096z"/><path d="m247.713-1523.623v-7.814h8.17v48.072c0 16.817-11.404 26.159-27.404 26.159-8.34 0-16.51-2.548-21.787-6.964l3.574-6.625c4.936 3.737 11.234 6.115 18.213 6.115 11.234 0 19.234-6.455 19.234-18.515v-5.266c-3.915 5.436-10.042 8.833-18.553 8.833-14.468 0-25.702-10.871-25.702-26.499s11.064-26.499 25.702-26.499c8.51.34 14.638 3.737 18.553 9.003zm-35.745 17.836c0 10.532 7.319 18.855 18.213 18.855 11.064 0 18.893-8.833 18.213-20.214-.511-9.852-8.851-17.666-18.723-17.496-10.554.17-17.703 8.493-17.703 18.855z"/><path d="m316.648-1505.787c0 15.288-11.745 26.839-27.234 26.839s-27.234-11.551-27.234-26.839 11.574-26.839 27.234-26.839 27.234 11.551 27.234 26.839zm-46.127 0c0 11.211 8.17 19.195 18.893 19.195s18.893-8.154 18.893-19.195c0-11.211-8.17-19.195-18.893-19.195s-18.893 7.984-18.893 19.195z"/></g></g></svg>