<?xml version="1.0" encoding="utf-8"?>
<!-- Generator: Adobe Illustrator 23.0.3, SVG Export Plug-In . SVG Version: 6.00 Build 0)  -->
<svg version="1.1" id="Layer_1" xmlns="http://www.w3.org/2000/svg" xmlns:xlink="http://www.w3.org/1999/xlink" x="0px" y="0px"
	 width="1701px" height="234px" viewBox="0 0 1701 234" style="enable-background:new 0 0 1701 234;" xml:space="preserve">
<style type="text/css">
	.st0{fill:none;}
	.st1{enable-background:new    ;}
	.st2{fill:#262626;}
</style>
<rect x="32.5" y="38" class="st0" width="1724.9" height="190"/>
<g class="st1">
	<path class="st2" d="M69.3,123.3c-3,1.1-6.1,1.8-8.9,3.7l-3,2.8c-0.9,0.4-3.9-0.7-3.1-1.8c1.9-3.9,4.6-7.2,6.7-10.4
		c0.9-1.7,1.7-2,0.7-2c-4.3-0.7-8.3-0.9-12.4-1.8c-3.1-0.7-5.7-1.9-8.7-3.1c-8-3-13.3-8.9-15.7-17.2c-1.7-5.9-1.9-12-0.9-18.3
		c1.3-7.4,3.7-14.2,7.2-21.1c1.7-3,3.3-6.1,5.4-9.1c1.7-3,3.7-5.7,6.1-8.3c2.4-3.1,5-6.1,7.6-9.1c4.1-4.1,8.7-7.4,13.5-10.7
		c4.6-3,9.8-5.6,15-7.6c4.3-1.9,8.9-2.8,13.5-3.3c3.5-0.6,7-0.9,10.5-0.9c7.6,0.2,14.4,2,20.7,5.7c2.2,1.5,3.3,2.8,5.2,4.4
		c0.9,0.9,3.9-3.9,4.4-4.6c1.5-0.6,3.9,0.9,3.5,1.8c-0.7,1.5-2.4,3.7-3.3,5.2c-0.4,0.7,0,1.3,0.4,1.7c11.8,15.2,3.7,46.8-4.3,61
		c-11.3,20.2-32.6,35-53.3,41.1c1.3,2.4,1.3,4.6,1.5,6.5c0,0-0.7,0-0.9,0c0-1.8-0.4-4.1-1.1-6.1C74.5,121.8,70.3,122.9,69.3,123.3z
		 M87.5,8.2c-6.1,1.5-11.7,4.3-17,7.6c-7.4,5-13.9,10.7-19.2,17c-5.5,6.8-10.9,13.9-15,21.6c-2.4,4.4-4.6,9.1-6.5,13.9
		c-1.3,4.6-3,9.2-3.7,14.1c-0.7,7-0.4,13.5,3.9,19.2c2,2.6,4.3,4.6,7,6.3c5.7,3.5,11.1,4.8,17.4,5.9c2.8,0.4,6.7,0.9,8.3,0.9
		c0.6,0,4.4-6.5,6.7-9.8c12.6-20,39.8-61.2,54.8-82.7c1.7-2.2,4.6-5.9,4.4-6.1c-3-2.8-5.7-5-9.8-6.5c-5.2-2.4-10.5-3.1-15.9-3.1
		C97.3,6.2,92.5,7.1,87.5,8.2z M70.3,116.6c-2.6-0.9-2.6-0.4-3.5,0.6l-4.8,6.7l-0.9,1.3c0.4,0,1.3-0.2,1.7-0.4
		c3.7-0.9,6.8-2.4,12.6-3.9C73.6,119,72.3,117.7,70.3,116.6z M131.3,20.4C116.1,43.5,83,92.7,69.9,112.9l-1.5,2.2
		c3.7,0.9,5.5,3,7.6,5.6c20.7-6.8,42.2-21.1,52.4-40.7c8.5-16.5,16.5-45.5,4.1-60.9C132.2,19.1,131.5,20,131.3,20.4z"/>
	<path class="st2" d="M172.2,85.1c5-2.4,1.5,0.6-0.9,1.1c-3.7,1.5-7.4,2-11.1,2.4c-1.7,0.2-3.1,0.4-5,0c-2.4,3.7-5.5,7.4-9.1,9.8
		c-2.2,1.5-5.9,1.1-7-1.3c-1.1-3.9,1.8-9.3,4.1-11.8l2-2.8c-4.6-6.7-2-16.5,6.8-17.6c9.8-1.1,9.3,15,3.5,22.9c0.4,0,0.7,0.2,1.3,0.2
		C162,88.1,167.2,87.2,172.2,85.1z M154.2,88.5c-0.6,0-1.9-0.6-3-1.1c-1.1-0.6-2.2-1.5-2.8-1.9c-0.2,0.2-0.9,1.1-1.8,2.6
		c-1.9,3-3.7,5.4-4.3,8c-0.2,2,0.9,3.3,3.7,1.5c2.8-1.7,5-4.6,6.8-7.2L154.2,88.5z M147.4,67.4c-3.7,3-5.5,9.6-1.5,14.4
		c2.2-2,4.3-4.1,6.7-5.2c2.2-0.9,2.2,1.9,1.1,3l-3.7,4.1l-0.9,1.1c0.6,0.4,1.7,1.5,2.8,2c1.1,0.6,2.4,0.9,3,0.9
		C160.3,81.8,162.2,58.9,147.4,67.4z"/>
	<path class="st2" d="M206,88.1c-11.5,5.7-13.7,11.5-22.2,16.3c-5.4,1.8-4.6-5.9-3.5-9.1c3-7.6,9.1-14.1,16.5-16.1
		c-2-1.3-3.3-3.5-4.3-5.5l-0.4-1.5c-0.4,0-1.3,0.6-1.7,0.7c-5.9,3.3-10.5,9.1-16.3,11.8c-1.5,0.6-1.9,0.4-0.4-0.4
		c6.3-3.1,10.2-8.7,15.9-11.8l2.4-1.1c0-0.7,0-1.7,0.4-2.6c1.5-5.9,11.3-13.7,15-12.6c3.3,0.9-4.3,9.8-11.5,13.7
		c-0.4,0.2-0.7,0.7-0.7,1.1c-0.4,2.6,0.2,5,1.9,7.2c1.1,0.9,0.7,1.5-0.2,2.2c-6.1,6.5-14.1,13.7-14.1,22.2
		c0.6,3.3,12.9-9.3,15.4-10.7c4.6-3.3,15.2-8.1,15.5-7.4L214,85C211.2,85.5,209,86.6,206,88.1z M207.3,56.8
		c-1.1-0.9-4.4,1.3-5.4,2.4c-1.9,2-6.3,7.2-6.3,10C198.1,68.5,209.7,59.3,207.3,56.8z"/>
	<path class="st2" d="M226.9,76.1c-7.8,0.9-16.5,23.3-10,23.3c2.4,0.2,3.7-1.3,5.7-2.8c6.3-5,13.7-8,21.3-12
		c0.9-0.6,1.9-0.2,0.6,0.6c-8,4.3-16.6,8-23.1,13.3c-1.5,1.3-3.3,1.7-5.2,1.5c-5.9-1.1-5.5-10.2-3.7-13.9
		c3.7-7.6,10.9-19.8,20.9-18.1C239.2,68.5,233.6,75.7,226.9,76.1z M227.1,73.9L226,75c-1.3,1.3,4.6,0,6.8-2c1.5-0.9,4.3-4.3,0.2-3.5
		C230.6,70,228.8,72,227.1,73.9z"/>
	<path class="st2" d="M243.6,88.1c-0.6-4.1,3.7-7.4,5.9-9.3c4.8-3.5,10.7-3.9,10.9-0.2c0,0.2,0.4-0.2,1.5-1.1
		c1.7-1.3,2.2-2.4,4.1-3.9c1.1-0.9,4.3-0.2,3,1.9c-6.1,7.4-12.4,14.6-16.1,23.7c-2.8,9.8,7.4,1.5,12.2-1.9c5-3.9,10-7.8,15.5-10.7
		c5.7-3,6.5-3,2.6-0.4c-4.4,2-6.8,3.7-10.4,6.3c-4.4,3-8.9,6.5-13.3,9.4c-11.3,8-10.9-4.4-7.8-11.1c0.6-1.1,1.1-2.6,1.9-3.7
		c-2,0.9-4.3,2.4-6.1,3C245.3,90.9,244,90.3,243.6,88.1z M246.4,87.9c-0.6,0.9-0.7,2.6,1.1,1.7c5.5-2.2,8.5-5.4,11.7-9.4
		c2-3.3-2-4.8-4.4-2.2C251.9,81.1,248.8,84.4,246.4,87.9z"/>
	<path class="st2" d="M337.6,19.5c4.4-2.6,15.7-7.8,15.5,1.1c-2.4,10.9-23.3,33.5-30.2,40.5c-5,5.2-10.9,9.6-16.6,14.2l-9.3,6.5
		l-6.8,4.3c-0.7,0.4-1.3,1.1-1.8,1.8c-1.5,2.8-3,5.7-4.3,8.7c-1.7,4.3-5,12.4-6.1,16.7c-0.6,0.9-3.3,10,0.2,9.6
		c11.7-1.1,36.8-31.8,42.4-36.4c3.7-3,5.4-3.9,0.2,0.9c-4.3,3.7-31.4,36.4-43.7,36.4c-7.6-1.8,0-21.3,2-26.3l4.6-10.2
		C301.3,50.6,322.4,29.5,337.6,19.5z M320.2,62.2c6.8-5.9,30.7-32.7,31.8-41.6c0-6.8-9.8-1.7-11.8,0.4c-24.6,22.2-35.3,39-40,45.7
		c-4.3,6.1-7.8,12-9.6,17.6C301.3,78.7,311.5,70,320.2,62.2z"/>
	<path class="st2" d="M336.6,76.1c-7.8,0.9-16.5,23.3-10,23.3c2.4,0.2,3.7-1.3,5.7-2.8c6.3-5,13.7-8,21.3-12
		c0.9-0.6,1.9-0.2,0.6,0.6c-8,4.3-16.6,8-23.1,13.3c-1.5,1.3-3.3,1.7-5.2,1.5c-5.9-1.1-5.5-10.2-3.7-13.9
		c3.7-7.6,10.9-19.8,20.9-18.1C348.9,68.5,343.3,75.7,336.6,76.1z M336.8,73.9l-1.1,1.1c-1.3,1.3,4.6,0,6.8-2
		c1.5-0.9,4.3-4.3,0.2-3.5C340.3,70,338.5,72,336.8,73.9z"/>
	<path class="st2" d="M454.9,123.3c-3,1.1-6.1,1.8-8.9,3.7l-3,2.8c-0.9,0.4-3.9-0.7-3.1-1.8c1.8-3.9,4.6-7.2,6.7-10.4
		c0.9-1.7,1.7-2,0.7-2c-4.3-0.7-8.3-0.9-12.4-1.8c-3.1-0.7-5.7-1.9-8.7-3.1c-8-3-13.3-8.9-15.7-17.2c-1.7-5.9-1.8-12-0.9-18.3
		c1.3-7.4,3.7-14.2,7.2-21.1c1.7-3,3.3-6.1,5.4-9.1c1.7-3,3.7-5.7,6.1-8.3c2.4-3.1,5-6.1,7.6-9.1c4.1-4.1,8.7-7.4,13.5-10.7
		c4.6-3,9.8-5.6,15-7.6c4.3-1.9,8.9-2.8,13.5-3.3c3.5-0.6,7-0.9,10.5-0.9c7.6,0.2,14.4,2,20.7,5.7c2.2,1.5,3.3,2.8,5.2,4.4
		c0.9,0.9,3.9-3.9,4.4-4.6c1.5-0.6,3.9,0.9,3.5,1.8c-0.7,1.5-2.4,3.7-3.3,5.2c-0.4,0.7,0,1.3,0.4,1.7c11.8,15.2,3.7,46.8-4.3,61
		c-11.3,20.2-32.6,35-53.3,41.1c1.3,2.4,1.3,4.6,1.5,6.5c0,0-0.7,0-0.9,0c0-1.8-0.4-4.1-1.1-6.1C460,121.8,455.8,122.9,454.9,123.3z
		 M473,8.2c-6.1,1.5-11.7,4.3-17,7.6c-7.4,5-13.9,10.7-19.2,17c-5.5,6.8-10.9,13.9-15,21.6c-2.4,4.4-4.6,9.1-6.5,13.9
		c-1.3,4.6-3,9.2-3.7,14.1c-0.7,7-0.4,13.5,3.9,19.2c2,2.6,4.3,4.6,7,6.3c5.7,3.5,11.1,4.8,17.4,5.9c2.8,0.4,6.7,0.9,8.3,0.9
		c0.6,0,4.4-6.5,6.7-9.8c12.6-20,39.8-61.2,54.8-82.7c1.7-2.2,4.6-5.9,4.4-6.1c-3-2.8-5.7-5-9.8-6.5c-5.2-2.4-10.5-3.1-15.9-3.1
		C482.8,6.2,478,7.1,473,8.2z M455.8,116.6c-2.6-0.9-2.6-0.4-3.5,0.6l-4.8,6.7l-0.9,1.3c0.4,0,1.3-0.2,1.7-0.4
		c3.7-0.9,6.8-2.4,12.6-3.9C459.1,119,457.8,117.7,455.8,116.6z M516.8,20.4c-15.2,23.1-48.3,72.3-61.4,92.5l-1.5,2.2
		c3.7,0.9,5.5,3,7.6,5.6c20.7-6.8,42.2-21.1,52.4-40.7c8.5-16.5,16.5-45.5,4.1-60.9C517.8,19.1,517,20,516.8,20.4z"/>
	<path class="st2" d="M542.2,76.1c-7.8,0.9-16.5,23.3-10,23.3c2.4,0.2,3.7-1.3,5.7-2.8c6.3-5,13.7-8,21.3-12
		c0.9-0.6,1.9-0.2,0.6,0.6c-8,4.3-16.7,8-23.1,13.3c-1.5,1.3-3.3,1.7-5.2,1.5c-5.9-1.1-5.6-10.2-3.7-13.9
		c3.7-7.6,10.9-19.8,20.9-18.1C554.4,68.5,548.8,75.7,542.2,76.1z M542.4,73.9l-1.1,1.1c-1.3,1.3,4.6,0,6.8-2
		c1.5-0.9,4.3-4.3,0.2-3.5C545.9,70,544,72,542.4,73.9z"/>
	<path class="st2" d="M575.3,70h-0.9c14.2-10.9,11.7-0.7,8.7,5c-3.7,7-12.4,17.9-18.5,22.4c-3.9,2.6-15.4,6.8-15.5-2.6
		c0.6-13.9,35-3.9,42.7-9.3c4.6-3.1,5-1.1-0.4,1.3c-8.9,3.9-43.5-5.4-41.3,9.8c2.4,7.4,12.9-3.5,15.2-5.9
		c3.9-4.4,8.9-10.5,13.1-17.4l4.6-7.6L575.3,70z"/>
	<path class="st2" d="M608.8,73.1c-3.9,4.6-7.2,9.3-10.4,14.2c-1.5,2.8-8.9,16.3-1.3,16.3c6.7-0.2,18.1-12,22.8-15.5
		c7.6-6.5,5-3.3,0.9,0.2c-6.7,5.5-13.7,12.9-21.5,15.9c-9.1,2.6-8.5-9.6-7-14.1c2.4-7.2,6.7-12.2,11.7-17.6
		C608.2,67.9,611.9,69.2,608.8,73.1z M616.2,63.7c-4.3,4.6-8,3.3-4.8-0.6C615.6,58.5,619.3,59.8,616.2,63.7z"/>
	<path class="st2" d="M632.8,90.7c-6.1,6.1-13.9,9.6-10.9,0.6l1.3-3.5c1.1-3,2.2-4.8,4.3-6.8l4.8-4.6c1.3-1.1,3-2,4.4-3
		c1.9-0.7,6.1-0.7,5.5,2.6c-0.2,2-1.1,0.7-0.9,0c-0.2-1.1-1.1-1.7-2-1.1c-0.6,0.4-1.1,0.7-1.7,1.3c-3.5,3.3-7.2,6.8-9.8,11.3
		c-0.9,1.3-2,2.8-2.8,4.1c-0.6,0.9-2.2,5.4,0.2,3.9c1.7-1.1,3.5-2,5-3.3c2-1.9,3.9-3.9,5.7-5.9c5.6-5.7,10.4-11.8,16.1-17.2
		c1.9-2.4,4.1-0.4,2.8,1.1l-8.3,11.7c-1.1,1.7-2.4,3.1-3.7,4.8l-5.7,9.1c-0.4,0.7-1.8,3.1-1.7,3.3c2.4,0,22-11.5,23.9-12.8
		c5.5-3.5,4.3-0.7-0.2,1.1c-6.5,4.3-12.2,7-18.3,10.4l-5.5,2.8c-0.7,0.4-1.5,0.9-1.9,1.7l-12.8,18.9l-9.1,13.9L604,146
		c-4.8,6.1-8.9,13-13.7,19.2c-2.8,3.9-6.1,7.4-9.3,11.1l-3.5,3.9c-1.5,1.7-3,3.3-4.6,4.8c-2.4,2.4-4.6,4.6-7.2,6.8
		c-1.8,1.7-4.1,2.6-6.5,3.1c-1.1,0.2-1.9-0.4-2.4-0.9c-5-5-2.8-12.8-1.1-18.7c1.3-5.4,3.3-10.5,6.1-15.4c4.6-7.8,9.3-15.5,15.4-22
		c1.9-2,3.7-4.1,5.9-5.9c7-5.7,13.3-12.2,21.3-16.8c4.8-3,9.8-5.7,14.8-8.5c1.8-1.1,3.9-1.9,5.7-2.8c0.7-0.4,1.3-0.9,1.7-1.5
		l6.7-10.2l1.1-1.5c0.7-1.3,2.8-3.3,2-3.5L632.8,90.7z M622.1,106.1l-3.3,1.7c-3.1,2-6.5,3.9-9.6,5.7c-1.8,1.1-3.5,1.9-5.2,3
		c-3,1.7-21.6,17.4-23.9,19.4l-3.3,3.7c-1.7,2-3.3,4.1-4.8,6.1c-7,10.5-24.6,39-14.2,47.9c1.9,1.8,6.5-2.6,7.4-3.7
		c3.5-3.7,7-7.6,10.4-11.5c3.5-4.4,7.2-8.9,10.5-13.5c5.4-8,10.7-15.9,15.9-23.9l8.7-13.9c4.1-6.7,8.5-13.3,12.8-20l1.5-2.2
		C624.3,104.9,622.6,105.9,622.1,106.1z"/>
	<path class="st2" d="M666.9,81.8c1.3-0.2,1.9,0.2,1.7,1.3l-0.4,2l0.2,0.2c0.4-0.2,1.1-0.6,1.5-0.9c4.1-2.8,7.8-6.3,11.8-9.1
		c1.5-1.1,3.3-2,5.2-2.6c5.2-1.1,5,3,3,5.4c-4.4,7-9.3,14.1-13.7,21.3c-5.9,10.9-3.9,13.7-0.2,12.6c10.7-3.3,28.9-25.3,30.3-26.6
		c1.3-1.1,1.7-0.9,0.6,0.4c-7,8-18.5,21.6-29,26.3c-4.3,2-8.3,0.2-8.7-3.7c-0.4-1.7,0-3.5,0.4-5.2c1.1-4.1,3.3-7.6,5.7-11.1
		l10.2-14.2l1.9-3.1c0.4-0.4,0.4-1.3-1.1-0.9c-3.7,1.9-6.5,4.3-9.6,6.7c-4.8,3.7-7.2,7.8-9.3,11.7c-1.5,2.8-5.9-0.2-5-1.5
		c0.9-1.8,2.8-3.5,3.9-5.2c0.2-0.6,2-2.6,0.7-2.8l-4.4,2.8l-0.4-0.6C663.3,83.9,665.4,82,666.9,81.8z"/>
</g>
<g class="st1">
</g>
<g class="st1">
	<path class="st2" d="M741.7,81.3c24-0.4,38.5-0.2,52.9-0.4c0,0,0.4,0.7,0,1.1c-19.6,0.4-30,0.4-52.9,0.4V81.3z"/>
</g>
<g class="st1">
</g>
<g class="st1">
	<path class="st2" d="M840.2,93.3c3.1-8.5,16.1-16.3,20.2-21.3c3.5-4.6-3.3-2.6-4.8-1.5c-9.2,5.7-22.2,15.2-22.6,14.8l-0.4-0.4
		c5.4-2.8,15-10.4,20-13.3c2.6-1.7,5.9-3.3,9.1-3.3c2.4,0,4.8,0.7,4.1,2.8c-1.5,6.1-26.3,23.1-21.5,28.9c1.3,1.7,5.6,0.2,9.6-2
		c8-4.3,15.5-8.7,22.8-13.3l0.2,0.6c-9.4,6.7-18.9,12-29.4,16.8C840.1,104.8,838.2,98.5,840.2,93.3z"/>
	<path class="st2" d="M878.5,95.7c5.9-8.3,11.5-17.8,17.8-27.6c-5.2,4.3-14.2,13.1-19.6,17l-0.2-0.6c5.9-4.8,13.1-11.8,19.1-17.6
		c3-3,5-6.7,7.2-9.8c1.1-1.7,2.8-5.2,4.4-4.4c1.1,0.4-0.9,4.8-1.3,5.7c-2.8,5-5.4,9.8-8.1,14.6c-1.7,2.8-3,5-4.4,7.6l-3.9,7
		c3.3-2.8,7-5.7,10.5-8.3c2.2-1.7,5.5-4.6,8.5-5.7c2.6-0.9,4.6,0.6,4.1,2.6c-0.7,2.6-6.5,11.5-8.7,13c-0.4,0.2,2.8-0.2,3.7-0.2
		c4.8-0.6,12.4-1.9,16.5-3.5c2.8-1.5,5.4-0.7,1.1,0.2c-5.4,1.8-13.5,3.9-19.2,3.9c-0.9,0-1.7,0.2-2.6,0.2c-0.2,0-0.6,0.4-0.9,0.7
		c-2.2,2-16.1,12.2-12.8,4.8c1.7-2.4,4.8-4.3,7.6-5.5c1.5-0.7,2.6-1.8,3-2.4c1.1-1.3,13.5-16.1,6.1-11.7c-3.3,2-7.6,5.7-10.7,8
		c-2.2,1.7-3.9,3.5-5.7,5c-0.7,0.7-1.5,1.5-2.2,2.2c-5,5.7-9.4,13.7-13.3,20c-13,21.1-34.8,59.4-45.7,72.9
		c-5.6,7.2-17.8,14.1-13.9-0.6c5.9-21.8,33.5-53.7,55.9-79C873.9,100.5,876.7,98.3,878.5,95.7z M815.1,187.1c-0.4,7.6,6.7,2,9.4-2
		c16.5-25.3,29.6-50.7,45-74.9l7.2-11.1c-13,13.1-30,34.4-40.5,48.5C825.6,161.4,815.6,177.6,815.1,187.1z M889.8,95.9
		c-1.3,3,8-3.3,8.5-5.7C895,91.1,890.2,94.4,889.8,95.9z"/>
	<path class="st2" d="M925.2,88.1c-0.6-4.1,3.7-7.4,5.9-9.3c4.8-3.5,10.7-3.9,10.9-0.2c0,0.2,0.4-0.2,1.5-1.1
		c1.7-1.3,2.2-2.4,4.1-3.9c1.1-0.9,4.3-0.2,3,1.9c-6.1,7.4-12.4,14.6-16.1,23.7c-2.8,9.8,7.4,1.5,12.2-1.9c5-3.9,10-7.8,15.5-10.7
		c5.7-3,6.5-3,2.6-0.4c-4.4,2-6.8,3.7-10.4,6.3c-4.4,3-8.9,6.5-13.3,9.4c-11.3,8-10.9-4.4-7.8-11.1c0.6-1.1,1.1-2.6,1.8-3.7
		c-2,0.9-4.3,2.4-6.1,3C926.8,90.9,925.5,90.3,925.2,88.1z M927.9,87.9c-0.6,0.9-0.7,2.6,1.1,1.7c5.5-2.2,8.5-5.4,11.7-9.4
		c2-3.3-2-4.8-4.4-2.2C933.5,81.1,930.3,84.4,927.9,87.9z"/>
	<path class="st2" d="M1026,84.6c-5,4.3-8.5,9.4-12.4,14.4c-4.4,5.9-9.1,12.2-13.9,17.8c-4.3,4.8-7.8,8.1-11.1,6.3
		c-12.8-7,17.8-46.8,21.8-51.4c3-3.3,5.2-7.6,0-3.9c-5,3.3-9.6,7-14.6,10.7c-2.8,2.2-5.5,4.3-8.7,6.3c-2,0.9-7.4,4.6-6.3,1.1
		c0.4-1.3,0.9-2.8,1.5-4.1c0.6-1.1,1.1-2.2,1.8-3.3l2-3.7c-0.7,0.4-1.8,1.5-2.4,2c-5,4.6-9.4,10.2-15.5,12.8
		c-1.9,1.1-2.4,0.6-2.4-1.7c0-3.3-1.3-4.4,2.2-4.4c1.8,0.2-0.9,4.6-0.9,5.9c6.8-2.2,12-9.2,17-13.7c0.7-0.7,1.9-1.7,3-2.4
		c1.1-0.7,5.9-1.8,4.6,0.2c-1.1,1.8-4.8,8.5-5.7,10.4c-2.2,3.3,17.9-12.6,21.6-15c1.7-1.3,6.1-4.1,7.2-3.3
		c4.4,4.1-23.9,38.7-26.1,51.2c-0.7,3,0,8,4.1,5.4c2.2-1.7,4.6-3.7,6.5-5.9c3.9-4.4,7.2-9.1,10.9-13.9c3-3.9,5.9-7.8,8.9-11.8
		c2-2.6,3.9-4.8,6.7-6.1L1026,84.6z"/>
	<path class="st2" d="M1054.5,85.1c5-2.4,1.5,0.6-0.9,1.1c-3.7,1.5-7.4,2-11.1,2.4c-1.7,0.2-3.1,0.4-5,0c-2.4,3.7-5.5,7.4-9.1,9.8
		c-2.2,1.5-5.9,1.1-7-1.3c-1.1-3.9,1.8-9.3,4.1-11.8l2-2.8c-4.6-6.7-2-16.5,6.8-17.6c9.8-1.1,9.3,15,3.5,22.9c0.4,0,0.7,0.2,1.3,0.2
		C1044.3,88.1,1049.5,87.2,1054.5,85.1z M1036.5,88.5c-0.6,0-1.8-0.6-3-1.1c-1.1-0.6-2.2-1.5-2.8-1.9c-0.2,0.2-0.9,1.1-1.8,2.6
		c-1.9,3-3.7,5.4-4.3,8c-0.2,2,0.9,3.3,3.7,1.5c2.8-1.7,5-4.6,6.8-7.2L1036.5,88.5z M1029.7,67.4c-3.7,3-5.5,9.6-1.5,14.4
		c2.2-2,4.3-4.1,6.7-5.2c2.2-0.9,2.2,1.9,1.1,3c-1.3,1.3-2.4,2.6-3.7,4.1l-0.9,1.1c0.6,0.4,1.7,1.5,2.8,2c1.1,0.6,2.4,0.9,3,0.9
		C1042.6,81.8,1044.5,58.9,1029.7,67.4z"/>
	<path class="st2" d="M1061.7,91.4c-2.2,3.5-4.8,0.6-2.8-2c2.6-3.9,5-7.8,7.6-11.8c0.7-1.3,2-4.6-0.6-2.8c-4.1,2.8-6.5,7-9.8,10.4
		c-0.7,0.7-0.7-0.6,2.6-4.1c2-2.2,8.1-9.3,10-7.4c1.5,1.5-0.6,5.9-1.1,7.8c1.7-1.1,4.3-3.3,6.1-3.7c3.1-0.4,1.7,2.6,1.5,4.3
		c-0.4,1.5,1.5,0.2,2.2-0.4c7.4-5.2,13.3-11.8,21.6-15.2c5.4-2.2,3.9,4.3,2,6.7c-5.5,8.9-11.3,17.8-16.8,26.6
		c-9.4,14.2-3.1,22.2,9.4,9.1c4.3-5,8.7-10.2,13.1-15.2c12-13.1,12.2-12,1.1,0c-4.3,5-8.3,10-12.8,15c-5,6.1-16.1,12.6-18.9,2.2
		c-0.4-2,0-4.3,0.6-6.5c1.3-5,4.1-9.4,7.2-13.9c5.5-7.8,10.4-14.6,15-21.6c3.9-6.8-19.8,11.3-23.9,16.6c-1.3,1.5-2.2,3.1-3.5,4.4
		c-2.4,2.6-4.3,0.2-3.3-1.3c1.1-2.2,2.6-4.3,3.9-6.5c0.4-0.6,0.9-1.3,1.1-2.2c1.1-3.3-4.8,1.7-5.4,2.6
		C1065.7,85.3,1063.9,88.3,1061.7,91.4z"/>
	<path class="st2" d="M1152.3,85.1c-7.4,3.7-13.7,12.4-20.7,16.3c-2.8,1.5-5.4,1.1-7-0.9c-3.1-3.9,0.4-13,3-17.2
		c-1.3,0.2-4.8,0-6.1,0.7c-1.3,0.7-1.7,1.7-2.6,2.8c-0.7,0.7-1.3,2.2-2.6,3.3c-0.4,0.4-1.3,1.1-2.2,0.2c-1.1-0.4-0.9-0.9-0.4-2
		c0.7-1.5,1.7-3.5,2.8-5.2c1.9-3,4.4-5.7,6.7-8c0.9-0.9,1.7,0.2,2.4,1.1c0.7,1.1-2.8,4.3-3.7,6.8c2.4-0.6,4.3,0,6.3-0.7
		c0.9-0.4,1.8-2.2,2.6-3.3c1.7-3,4.1-5.4,6.5-8c0.7-0.9,3.5-0.4,2.8,0.9c-3.3,5.9-7.6,11.5-10.7,17.2c-2.2,4.4-6.3,10.9-1.9,12.4
		c4.3,1.1,11.5-6.7,14.2-9.3c3-2.8,10.7-8.5,10.7-8.1V85.1z"/>
	<path class="st2" d="M1164.4,74.8c-3.5,4.4-6.8,8.5-9.8,13.1c-0.6,0.9-1.8,3.9,0.4,4.3c3.1-0.2,10.2-8,13.1-11.3
		c2.4-3,4.8-5.5,7.4-8.3c4.3-4.6,8-3.3,4.8,0.6c-3.9,4.6-7.2,9.3-10.4,14.2c-1.5,2.8-8.9,16.3-1.3,16.3c6.7-0.2,18.1-12,22.8-15.5
		c7.6-6.5,5-3.3,0.9,0.2c-6.7,5.5-13.7,12.9-21.5,15.9c-9.1,2.6-8.5-9.6-7-14.1c0.4-1.8,3.5-7,0-3.5c-1.7,1.5-3.3,3-5.2,4.4
		c-1.7,1.5-3.9,2-5,1.5c-7.6-3.3,5.2-17.2,7.4-19.2C1162.9,71.6,1166.6,72.6,1164.4,74.8z"/>
	<path class="st2" d="M1208,74.8c-3.5,4.4-6.8,8.5-9.8,13.1c-0.6,0.9-1.8,3.9,0.4,4.3c3.1-0.2,10.2-8,13.1-11.3
		c2.4-3,4.8-5.5,7.4-8.3c4.3-4.6,8-3.3,4.8,0.6c-3.9,4.6-7.2,9.3-10.4,14.2c-1.5,2.8-8.9,16.3-1.3,16.3c6.7-0.2,18.1-12,22.8-15.5
		c7.6-6.5,5-3.3,0.9,0.2c-6.7,5.5-13.7,12.9-21.5,15.9c-9.1,2.6-8.5-9.6-7-14.1c0.4-1.8,3.5-7,0-3.5c-1.7,1.5-3.3,3-5.2,4.4
		c-1.7,1.5-3.9,2-5,1.5c-7.6-3.3,5.2-17.2,7.4-19.2C1206.5,71.6,1210.2,72.6,1208,74.8z M1212.4,57.8c1.1,0,1.8,0.6,2,1.7
		c0,0.4,0,0.7-0.2,1.1c-0.2,1.5,1.5,4.3,3,3.9c5.4-0.2,8.1-4.8,12.8-6.3c1.3-0.6,2.4-0.2,3.5,0.6c0.4,0.2,0.6,0.7,0.7,1.3
		c-0.4,0-0.9,0.2-1.3,0c-2-0.6-3.9-0.2-5.9,0.6c-2.8,1.1-5.4,3.5-8.3,4.3c-2.8,0.4-4.4,0-5.2-1.1c-0.7-1.1-1.5-2.2-2.2-3.5
		c-0.2-0.2-0.2-0.6-0.2-0.6C1211.2,58.3,1211.5,58,1212.4,57.8z"/>
	<path class="st2" d="M1303.1,84.8c1.3-0.9,3.3-2.8,4.8-3c1.3-0.2,1.8,0.2,1.7,1.3c-0.2,0.7-0.2,1.3-0.4,2l0.2,0.2
		c0.4-0.2,1.1-0.6,1.5-0.9c4.1-2.8,7.8-6.3,11.8-9.1c1.5-1.1,3.3-2,5.2-2.6c5.2-1.1,5,3,3,5.4c-4.4,7-9.3,14.1-13.7,21.3
		c-5.9,10.9-3.9,13.7-0.2,12.6c10.7-3.3,28.9-25.3,30.3-26.6c1.3-1.1,1.7-0.9,0.6,0.4c-7,8-18.5,21.6-29,26.3
		c-4.3,2-8.3,0.2-8.7-3.7c-0.4-1.7,0-3.5,0.4-5.2c1.1-4.1,3.3-7.6,5.7-11.1c3.3-4.6,6.8-9.4,10.2-14.2l1.9-3.1
		c0.4-0.4,0.4-1.3-1.1-0.9c-3.7,1.9-6.5,4.3-9.6,6.7c-4.8,3.7-7.2,7.8-9.3,11.7c-1.5,2.8-5.9-0.2-5-1.5c0.9-1.8,2.8-3.5,3.9-5.2
		c0.2-0.6,2-2.6,0.7-2.8l-4.4,2.8L1303.1,84.8z"/>
	<path class="st2" d="M1349.9,95.7c5.9-8.3,11.5-17.8,17.8-27.6c-5.2,4.3-14.2,13.1-19.6,17l-0.2-0.6c5.9-4.8,13.1-11.8,19.1-17.6
		c3-3,5-6.7,7.2-9.8c1.1-1.7,2.8-5.2,4.4-4.4c1.1,0.4-0.9,4.8-1.3,5.7c-2.8,5-5.4,9.8-8.1,14.6c-1.7,2.8-3,5-4.4,7.6l-3.9,7
		c3.3-2.8,7-5.7,10.5-8.3c2.2-1.7,5.5-4.6,8.5-5.7c2.6-0.9,4.6,0.6,4.1,2.6c-0.7,2.6-6.5,11.5-8.7,13c-0.4,0.2,2.8-0.2,3.7-0.2
		c4.8-0.6,12.4-1.9,16.5-3.5c2.8-1.5,5.4-0.7,1.1,0.2c-5.4,1.8-13.5,3.9-19.2,3.9c-0.9,0-1.7,0.2-2.6,0.2c-0.2,0-0.6,0.4-0.9,0.7
		c-2.2,2-16.1,12.2-12.8,4.8c1.7-2.4,4.8-4.3,7.6-5.5c1.5-0.7,2.6-1.8,3-2.4c1.1-1.3,13.5-16.1,6.1-11.7c-3.3,2-7.6,5.7-10.7,8
		c-2.2,1.7-3.9,3.5-5.7,5c-0.7,0.7-1.5,1.5-2.2,2.2c-5,5.7-9.4,13.7-13.3,20c-12.9,21.1-34.8,59.4-45.7,72.9
		c-5.5,7.2-17.8,14.1-13.9-0.6c5.9-21.8,33.5-53.7,55.9-79C1345.3,100.5,1348.1,98.3,1349.9,95.7z M1286.4,187.1
		c-0.4,7.6,6.7,2,9.4-2c16.5-25.3,29.6-50.7,45-74.9l7.2-11.1c-13,13.1-30,34.4-40.5,48.5C1297,161.4,1287,177.6,1286.4,187.1z
		 M1361.2,95.9c-1.3,3,8-3.3,8.5-5.7C1366.4,91.1,1361.6,94.4,1361.2,95.9z"/>
	<path class="st2" d="M1426.3,85.1c5-2.4,1.5,0.6-0.9,1.1c-3.7,1.5-7.4,2-11.1,2.4c-1.7,0.2-3.1,0.4-5,0c-2.4,3.7-5.5,7.4-9.1,9.8
		c-2.2,1.5-5.9,1.1-7-1.3c-1.1-3.9,1.9-9.3,4.1-11.8l2-2.8c-4.6-6.7-2-16.5,6.8-17.6c9.8-1.1,9.3,15,3.5,22.9c0.4,0,0.7,0.2,1.3,0.2
		C1416.1,88.1,1421.3,87.2,1426.3,85.1z M1408.4,88.5c-0.6,0-1.8-0.6-3-1.1c-1.1-0.6-2.2-1.5-2.8-1.9c-0.2,0.2-0.9,1.1-1.9,2.6
		c-1.8,3-3.7,5.4-4.3,8c-0.2,2,0.9,3.3,3.7,1.5c2.8-1.7,5-4.6,6.8-7.2L1408.4,88.5z M1401.5,67.4c-3.7,3-5.5,9.6-1.5,14.4
		c2.2-2,4.3-4.1,6.7-5.2c2.2-0.9,2.2,1.9,1.1,3c-1.3,1.3-2.4,2.6-3.7,4.1l-0.9,1.1c0.6,0.4,1.7,1.5,2.8,2c1.1,0.6,2.4,0.9,3,0.9
		C1414.5,81.8,1416.3,58.9,1401.5,67.4z"/>
	<path class="st2" d="M1441.3,76.1c-7.8,0.9-16.5,23.3-10,23.3c2.4,0.2,3.7-1.3,5.7-2.8c6.3-5,13.7-8,21.3-12
		c0.9-0.6,1.9-0.2,0.6,0.6c-8,4.3-16.6,8-23.1,13.3c-1.5,1.3-3.3,1.7-5.2,1.5c-5.9-1.1-5.6-10.2-3.7-13.9
		c3.7-7.6,10.9-19.8,20.9-18.1C1453.5,68.5,1448,75.7,1441.3,76.1z M1441.5,73.9l-1.1,1.1c-1.3,1.3,4.6,0,6.8-2
		c1.5-0.9,4.3-4.3,0.2-3.5C1445,70,1443.1,72,1441.5,73.9z"/>
	<path class="st2" d="M1497,90.1c-7.2,5.2-19.2,20.7-26.1,26.1c-9.1,8.5-11.5-2.2-7.8-9.8c2.6-5.4,11.7-17,7.2-21.3
		c-0.7-0.9-1.8,0.2-2.6,1.9c-0.4,0.9-4.3,8.7-5.7,7.8c-4.3-0.9-2.6-4.1-1.8-5.2c2.6-3.7,5.7-6.8,8.1-10.4c2.8-5.2-7,4.3-9.3,5.7
		c-2.4,1.5-2,0.4,0-0.7c3.3-2.6,8.9-8.7,13.7-8c3.5,0.6-2.4,6.5-1.5,6.5c5.9-2,11.3-8,14.6-13.5c0,0,0.7,0,0.9,0.4
		c-3,4.8-6.8,9.6-11.8,12.4c-0.7,0.4-3.5,1.7-3.7,1.8c-0.6,0.6,0.2,1.3,0.6,2c2.4,5.9-0.2,11.8-2,17.9c-1.9,4.4-3.1,5.9-4.1,10.5
		c-0.4,4.4-0.9,5.7,6.5-0.9c8.3-6.5,16.7-19.2,27.4-26.3c4.1-3.9,5.5-4.4,1.8-0.6C1500.1,87.9,1498.5,89,1497,90.1z"/>
	<path class="st2" d="M1508.4,91.4c-2.2,3.5-4.8,0.6-2.8-2c2.6-3.9,5-7.8,7.6-11.8c0.7-1.3,2-4.6-0.6-2.8c-4.1,2.8-6.5,7-9.8,10.4
		c-0.7,0.7-0.7-0.6,2.6-4.1c2-2.2,8.1-9.3,10-7.4c1.5,1.5-0.6,5.9-1.1,7.8c1.7-1.1,4.3-3.3,6.1-3.7c3.1-0.4,1.7,2.6,1.5,4.3
		c-0.4,1.5,1.5,0.2,2.2-0.4c7.4-5.2,13.3-11.8,21.6-15.2c5.4-2.2,3.9,4.3,2,6.7c-5.5,8.9-11.3,17.8-16.8,26.6
		c-9.4,14.2-3.1,22.2,9.4,9.1c4.3-5,8.7-10.2,13.1-15.2c12-13.1,12.2-12,1.1,0c-4.3,5-8.3,10-12.8,15c-5,6.1-16.1,12.6-18.9,2.2
		c-0.4-2,0-4.3,0.6-6.5c1.3-5,4.1-9.4,7.2-13.9c5.5-7.8,10.4-14.6,15-21.6c3.9-6.8-19.8,11.3-23.9,16.6c-1.3,1.5-2.2,3.1-3.5,4.4
		c-2.4,2.6-4.3,0.2-3.3-1.3c1.1-2.2,2.6-4.3,3.9-6.5c0.4-0.6,0.9-1.3,1.1-2.2c1.1-3.3-4.8,1.7-5.4,2.6
		C1512.5,85.3,1510.7,88.3,1508.4,91.4z"/>
	<path class="st2" d="M1626.5,84.4c3.1-2.6,14.1-11.8,17.4-14.2c3.1-2.4,6.7-4.3,10.2-5.5c0.7-0.2,1.7-0.4,2.4-0.4
		c1.1,0,1.9,0.7,1.9,1.8c0.2,3.1-2,6.8-6.7,11.5c-5.5,5.6-13.1,10-18.5,12.2c1.5,1.5,3.3,3.5,3.1,5.9c0,0.6,0,1.3,0,1.9
		c0.4-0.2,0.9-0.4,1.3-0.6c4.3-2,22.4-8.3,26.1-10.7c2.4-1.7,5.6-2.6,3.7-1.1c-9.6,5.9-16.8,6.8-26.3,11.3c-1.3,0.7-2.8,1.3-4.1,2
		c-0.4,0.2-0.7,0.7-0.9,1.3c-4.1,15.7-14.2,32.2-22.6,44c-8,10.7-20.7,28.5-34.4,30.5c-2.6,0.4-4.8-0.7-6.5-2.8
		c-0.9-1.3-0.9-2.8-0.4-4.3c0.6-2.6,1.3-5,2.2-7.4c0.7-2,1.7-4.1,2.4-6.1c1.1-3,2.8-5.6,4.6-8c2.2-3.1,4.4-6.5,6.8-9.4
		c2.6-3.1,5.5-6.1,8-9.3c4.1-5,8.9-9.1,13.9-12.9c4.4-3.1,8.9-6.3,13.3-9.3c2.6-1.7,5.2-3.1,8-4.6c1.5-0.7,2.2-2,2.6-3.7
		c0.6-2,0.6-4.1-1.5-6.1c-0.7-0.7-0.7-0.7,0-1.5c5.4-3.7,10.2-8,14.8-12.6c2.8-3,5.4-5.7,8-8.7c2.8-3.5-3.3-1.5-5-0.4
		c-3.7,1.9-7,4.3-10.4,7c-3.5,3.1-9.4,7.4-12.9,10.5C1626.7,85.3,1623.5,86.4,1626.5,84.4z M1632.2,101.1c-0.4,0.4-0.9,0.4-1.3,0.7
		c-4.8,3-9.8,5.9-14.4,9.1c-3.3,2.2-6.5,4.8-9.6,7.4c-2.4,2-4.8,4.1-7,6.5c-2.8,3-5.4,6.3-8.1,9.4c-1.1,1.3-2.4,2.4-3.3,3.9
		c-2.8,3.7-5.5,7.6-8.1,11.5c-0.7,1.1-1.3,2.2-1.7,3.5c-0.6,1.1-0.9,2.4-1.5,3.3c-1.7,3.5-3,7-3.7,10.7c-0.6,2.8,0.4,4.6,2.6,5.4
		c1.5,0.4,3,0.4,4.4-0.2c3.1-1.3,5.9-3.5,8.3-6.1c0.7-0.7,1.5-1.7,2.2-2.6c3.7-4.1,7.4-8.5,10.5-13.1c3.7-5,7.4-10,10.7-15.2
		c3.9-5.9,7.4-11.8,11.1-17.8c2.2-3.7,4.3-7.4,6.5-10.9c0.9-1.7,1.7-3.5,2.6-5.2C1632.4,101.2,1632.4,101.2,1632.2,101.1z"/>
</g>
</svg>
