<?xml version="1.0" encoding="utf-8"?><svg xmlns="http://www.w3.org/2000/svg" xmlns:xlink="http://www.w3.org/1999/xlink"><symbol viewBox="0 0 180.679 145.616" id="dd-logo-letters" xmlns="http://www.w3.org/2000/svg"><path d="M73.836 137.576V3.85h9.986v141.484c-.646.061-1.404.195-2.161.195-9.378.009-18.763.225-28.133-.064-12.358-.38-23.978-3.346-33.889-11.255C9.356 126.008 2.756 115.6.796 102.466-1.028 90.249.071 78.394 6.313 67.525c8.276-14.412 20.806-22.867 37.229-25.622 7.004-1.175 14.017-1.264 21.216-1.021v7.86c-2.891 0-5.653-.039-8.414.007-8.517.141-16.878 1.201-24.541 5.211C18.277 61.038 9.905 72.119 8.171 87.316c-3.176 27.837 15.671 46.151 37.437 49.308 9.224 1.337 18.465.754 28.228.952zm45.918-32.771v-7.782c3.864-.197 7.617-.324 11.359-.59 22.019-1.566 38.247-17.229 41.034-35.986 2.3-15.474-1.383-28.991-12.878-39.982-6.274-5.999-13.824-9.664-22.284-11.265-10.051-1.903-20.234-1.001-30.766-1.187v96.618h-9.406V.063h2.152c9.278.006 18.562-.182 27.833.07 10.764.293 21.145 2.447 30.315 8.461 12.596 8.261 20.621 19.637 22.824 34.753 2.053 14.086.029 27.35-8.401 39.176-8.378 11.752-19.758 18.79-34.005 21.103-3.331.541-6.702.9-10.068 1.145-2.473.178-4.968.034-7.709.034z"/></symbol><symbol id="icon-brain" xml:space="preserve" viewBox="0 0 512 512" xmlns="http://www.w3.org/2000/svg"><style>.abst0{fill:#262626}</style><path class="abst0" d="M486 303.8c0-29.4-14.3-56.1-37.9-72.4 10.8-13.6 16.7-30.5 16.7-48 0-27.1-14.3-52.1-37.2-66 .8-3.9 1.2-7.9 1.2-12 0-34-27.6-61.6-61.6-61.6-4.2 0-8.4.4-12.5 1.3-4.6-25.6-27-45.1-53.9-45.1-18.5 0-34.9 9.2-44.8 23.3C246.1 9.2 229.7 0 211.2 0c-26.9 0-49.3 19.5-53.9 45.1-1.7-.4-3.5-.6-5.3-.8-5.5-.6-10.5 3.3-11.1 8.8s3.3 10.5 8.8 11.1c4.3.5 8.5 1.7 12.4 3.5 0 0 .1 0 .1.1 7.9 3.6 14.3 9.5 18.6 17 1.9 3.2 5.2 5 8.7 5 1.7 0 3.4-.4 5-1.3 4.8-2.8 6.4-8.9 3.7-13.7-5.3-9.2-12.7-16.7-21.7-22 1.2-18.2 16.3-32.6 34.7-32.6 19.2 0 34.8 15.6 34.8 34.8v28.5c0 5.5 4.5 10 10 10s10-4.5 10-10V54.8c0-19.2 15.6-34.8 34.8-34.8 18.4 0 33.6 14.4 34.7 32.6-9 5.4-16.4 12.9-21.7 22-.9 1.5-1.3 3.2-1.3 5v43.7h-123c-5.5 0-10 4.5-10 10V168h-13.4c-5.5 0-10 4.5-10 10s4.5 10 10 10h23.4c5.5 0 10-4.5 10-10v-34.7h69.8v75.2l-23.2-.1c-5.5 0-10 4.5-10 10s4.5 10 10 10l56.5.1v37.9c0 5.5 4.5 10 10 10s10-4.5 10-10v-47.8c0-5.5-4.5-10-10-10l-23.3-.1v-75.2h33.3c5.5 0 10-4.5 10-10V82.4c4.3-6.5 10.2-11.6 17.3-14.8 0 0 .1 0 .1-.1 5.4-2.5 11.3-3.8 17.3-3.8 22.9 0 41.6 18.7 41.6 41.6 0 4.7-.8 9.2-2.3 13.6 0 0 0 .1-.1.1-3.3 9.4-9.8 17.3-18.5 22.3-4.8 2.8-6.4 8.9-3.7 13.7 1.9 3.2 5.2 5 8.7 5 1.7 0 3.4-.4 5-1.3 9.3-5.4 17-13.1 22.4-22.2 15.1 10.6 24.5 28.1 24.5 46.9 0 14.3-5.3 28-14.8 38.4-3-1.2-6.1-2.2-9.2-3-.8-.2-1.7-.3-2.6-.3h-37.8v-27.8c0-5.5-4.5-10-10-10s-10 4.5-10 10v37.8c0 5.5 4.5 10 10 10H417c3.8 1.1 7.4 2.5 11 4.2.1 0 .1 0 .2.1 23.5 11.5 38 34.9 38 61 0 5.1-.6 10-1.6 14.8h-84v-42.2c0-5.5-4.5-10-10-10s-10 4.5-10 10v42.2H266v-42.2c0-5.5-4.5-10-10-10h-56.5v-30.2c0-5.5-4.5-10-10-10s-10 4.5-10 10v40.2c0 5.5 4.5 10 10 10H246v42.2c0 5.5 4.5 10 10 10h45.4v73.7c0 5.5 4.5 10 10 10s10-4.5 10-10v-73.7h135c-7.4 12.4-18.7 22.4-32.8 28.1-.1 0-.1 0-.2.1-8.1 3.3-16.7 5-25.5 5-5.9 0-11.9-.8-17.6-2.3-5.3-1.4-10.8 1.7-12.2 7.1-1.4 5.3 1.7 10.8 7.1 12.2 7.4 2 15.1 3 22.8 3 6.9 0 13.7-.8 20.4-2.4-.4 27.8-20.4 51.1-47.9 55.6h-.1c-8 1.3-16.2.9-24.1-1.2-5.3-1.4-10.8 1.7-12.2 7.1-1.4 5.3 1.7 10.8 7.1 12.2 5.4 1.5 11 2.3 16.6 2.5-8.2 15.8-24.7 26.3-43.2 26.3-26.8 0-48.6-21.8-48.6-48.6v-62.7c0-5.5-4.5-10-10-10h-56.5v-42.1c0-5.5-4.5-10-10-10h-61V271c0-5.5-4.5-10-10-10H61c6.1-7.5 13.9-13.8 23-18.3.1 0 .1 0 .2-.1 3.9-1.9 8-3.4 12.2-4.6 5.3-1.4 8.5-6.9 7.1-12.2-1.4-5.3-6.9-8.5-12.2-7.1-3.1.8-6.2 1.9-9.2 3-9.5-10.5-14.8-24.2-14.8-38.4 0-18.8 9.3-36.3 24.5-46.9 5.4 9.2 13 16.9 22.3 22.2 1.6.9 3.3 1.3 5 1.3 3.5 0 6.8-1.8 8.7-5 2.8-4.8 1.1-10.9-3.7-13.7-8.6-5-15.2-12.9-18.5-22.3 0 0 0-.1-.1-.1-1-2.8-1.7-5.8-2-8.7-.6-5.5-5.6-9.4-11.1-8.8-5.5.6-9.4 5.6-8.8 11.1.2 1.6.4 3.2.8 4.8-22.8 13.9-37.2 39-37.2 66 0 17.5 6 34.4 16.7 48-23.7 16.3-37.9 43-37.9 72.4 0 33.4 18.5 63.4 47.9 78.3-.2 2.2-.3 4.3-.3 6.5 0 18.4 6.6 36.3 18.6 50.3 10.4 12.1 24.3 20.7 39.6 24.6 8.7 28.5 35.3 48.6 65.6 48.6 24.8 0 46.5-13.2 58.6-33 12.1 19.8 33.8 33 58.6 33 30.3 0 56.9-20.1 65.6-48.6 15.3-3.9 29.2-12.5 39.6-24.6 12-14 18.6-31.8 18.6-50.3 0-2.2-.1-4.3-.3-6.5 29.4-14.7 47.9-44.7 47.9-78.1zM197.4 492c-18.5 0-35-10.5-43.2-26.3 5.6-.2 11.1-1.1 16.6-2.5 5.3-1.4 8.5-6.9 7.1-12.2-1.4-5.3-6.9-8.5-12.2-7.1-7.8 2.1-16.1 2.5-24.1 1.2h-.1c-27.5-4.5-47.5-27.8-47.9-55.6 6.7 1.6 13.5 2.4 20.4 2.4 7.7 0 15.3-1 22.8-3 5.3-1.4 8.5-6.9 7.1-12.2-1.4-5.3-6.9-8.5-12.2-7.1-5.7 1.5-11.7 2.3-17.6 2.3-8.8 0-17.3-1.7-25.5-5-.1 0-.1 0-.2-.1-25.7-10.5-42.3-35.2-42.3-63 0-7.9 1.3-15.6 3.9-22.7h58.6v47.6c0 5.5 4.5 10 10 10h61v73.7c0 5.5 4.5 10 10 10s10-4.5 10-10v-21.7H246v52.7c0 26.8-21.8 48.6-48.6 48.6z"/><path class="abst0" d="M108.3 78.9c5.5 0 10-4.5 10-10s-4.5-10-10-10-10 4.5-10 10 4.5 10 10 10z"/></symbol><symbol id="icon-brush" xml:space="preserve" viewBox="0 0 512 512" xmlns="http://www.w3.org/2000/svg"><style>.acst0{fill:#ccc2c3}</style><path class="acst0" d="M497 0h-60c-8.3 0-15 6.7-15 15v15H298.4C292.2 12.5 275.6 0 256 0s-36.2 12.5-42.4 30H90V15c0-8.3-6.7-15-15-15H15C6.7 0 0 6.7 0 15v60c0 8.3 6.7 15 15 15h60c8.3 0 15-6.7 15-15V59.8h62.4c-54.1 34.3-87 92.2-91 153.6C43.7 219.5 31 236.3 31 256c0 24.8 20.2 45 45 45s45-20.2 45-45c0-19.4-12.3-35.9-29.5-42.3C96.8 143.1 147.7 82.2 215.7 65c7.4 14.8 22.7 25 40.3 25s32.9-10.2 40.3-25c68 17.3 118.9 78.1 124.2 148.8-17.2 6.3-29.5 22.9-29.5 42.3 0 24.8 20.2 45 45 45s45-20.2 45-45c0-19.7-12.7-36.5-30.4-42.6-4-61.6-37-119.2-91-153.4H422v15c0 8.3 6.7 15 15 15h60c8.3 0 15-6.7 15-15V15c0-8.3-6.7-15-15-15zM60 60H30V30h30v30zm16 211c-8.3 0-15-6.7-15-15s6.7-15 15-15 15 6.7 15 15-6.7 15-15 15zM256 60c-8.3 0-15-6.7-15-15s6.7-15 15-15 15 6.7 15 15-6.7 15-15 15zm180 181c8.3 0 15 6.7 15 15s-6.7 15-15 15-15-6.7-15-15 6.7-15 15-15zm46-181h-30V30h30v30z"/><path class="acst0" d="M388.5 307.7l-120-180c0-.1-.1-.1-.1-.2l-.6-.9c-6.3-7.9-18.4-7.3-24 .9 0 .1-.1.1-.1.2l-120 180c-4 5.9-3.2 13.9 1.9 18.9 29.9 29.9 49 69 54.2 110.9-2.3 1.9-4.6 3.9-6.7 6.1C158.8 458 151 477 151 497c0 8.3 6.7 15 15 15h180c8.3 0 15-6.7 15-15 0-20-7.8-39-21.8-53.4-2.1-2.2-4.4-4.2-6.7-6.1 5.2-41.9 24.2-81 54.2-110.9 5-5 5.7-13 1.8-18.9zM256 301c8.3 0 15 6.7 15 15s-6.7 15-15 15-15-6.7-15-15 6.7-15 15-15zm-72.4 181c6.2-17.8 23.2-31 42.4-31h60c19.3 0 36.2 13.2 42.4 31H183.6zm120.6-58.7c-5.9-1.5-12-2.3-18.2-2.3h-60c-6.2 0-12.3.8-18.2 2.3-7-40.4-25.3-78.2-52.6-108.9L241 185.5v88c-17.5 6.2-30 22.9-30 42.4 0 24.8 20.2 45 45 45s45-20.2 45-45c0-19.6-12.5-36.2-30-42.4v-88l85.9 128.8c-27.4 30.8-45.6 68.6-52.7 109z"/></symbol><symbol viewBox="0 0 512 453.076" id="icon-brush_thin" xmlns="http://www.w3.org/2000/svg"><path d="M278.35 453.073a7.536 7.536 0 01-7.535-7.535v-20.036a5.21 5.21 0 00-5.204-5.204h-20.229a5.21 5.21 0 00-5.204 5.204v20.036a7.536 7.536 0 01-15.07 0v-20.036c0-11.179 9.095-20.274 20.274-20.274h20.229c11.179 0 20.274 9.095 20.274 20.274v20.036a7.534 7.534 0 01-7.535 7.535z"/><path d="M327.943 177.641a7.536 7.536 0 00-12.112 8.968l37.416 50.535c4.162 5.621 3.861 14.087-.685 19.275l-40.311 46.004H198.745l-40.311-46.004c-4.546-5.188-4.847-13.654-.685-19.275l74.285-100.33v57.168c-9.417 7.237-14.921 18.307-14.921 30.389 0 21.166 17.22 38.386 38.386 38.386s38.386-17.22 38.386-38.386a38.285 38.285 0 00-13.916-29.572V138.17l16.546 22.346a7.535 7.535 0 1012.112-8.968l-32.319-43.652c-5.088-6.872-12.672-10.813-20.806-10.813s-15.719 3.941-20.806 10.813l-89.055 120.279c-8.352 11.28-7.723 27.691 1.464 38.175l33.618 38.364c-8.395 3.914-14.23 12.428-14.23 22.285v35.947c0 11.005 7.271 20.343 17.261 23.466l2.056 59.389a7.535 7.535 0 1015.061-.52l-1.999-57.755h114.266l-1.999 57.755a7.536 7.536 0 0015.061.52l2.068-59.733c9.463-3.421 16.244-12.493 16.244-23.121V327c0-9.857-5.835-18.371-14.23-22.285l33.618-38.364c9.186-10.482 9.815-26.894 1.464-38.175l-37.421-50.535zm-72.445-65.488c3.358 0 6.446 1.673 8.694 4.71l.705.952v80.77a7.534 7.534 0 003.393 6.294c6.589 4.336 10.524 11.623 10.524 19.489 0 12.856-10.459 23.316-23.316 23.316s-23.316-10.459-23.316-23.316c0-8.239 4.217-15.706 11.282-19.974a7.536 7.536 0 003.639-6.449v-81.447c2.22-2.797 5.18-4.345 8.395-4.345zm73.94 250.793c0 5.242-4.266 9.508-9.508 9.508H191.067c-5.243 0-9.508-4.266-9.508-9.508v-35.947c0-5.242 4.266-9.508 9.508-9.508H319.93c5.243 0 9.508 4.266 9.508 9.508v35.947zM105.551 179.952c.99-23.872 7.629-47.246 19.381-67.957a7.534 7.534 0 00-2.835-10.271 7.533 7.533 0 00-10.272 2.835c-13.024 22.953-20.347 48.869-21.356 75.32-13.003 3.306-22.65 15.11-22.65 29.128 0 16.571 13.481 30.052 30.052 30.052s30.052-13.481 30.052-30.052c.001-13.918-9.509-25.652-22.372-29.055zm-7.679 44.037c-8.261 0-14.982-6.721-14.982-14.982s6.721-14.982 14.982-14.982 14.982 6.721 14.982 14.982-6.721 14.982-14.982 14.982z"/><path d="M496.046 0h-24.214c-8.797 0-15.954 7.157-15.954 15.954v4.572H284.061v-4.572C284.061 7.157 276.904 0 268.107 0h-24.214c-8.797 0-15.954 7.157-15.954 15.954v4.572H56.122v-4.572C56.122 7.157 48.964 0 40.168 0H15.954C7.157 0 0 7.157 0 15.954v24.214c0 8.797 7.157 15.954 15.954 15.954h24.214c8.797 0 15.954-7.157 15.954-15.954v-4.572h130.802a165.979 165.979 0 00-55.309 41.181 7.534 7.534 0 00.677 10.634 7.509 7.509 0 004.976 1.88c2.09 0 4.169-.864 5.658-2.556 22.281-25.31 52.213-42.325 85.013-48.514v1.948c0 8.797 7.157 15.954 15.954 15.954h24.214c8.797 0 15.954-7.157 15.954-15.954V38.22c68.403 12.889 119.51 71.876 122.397 141.732-12.867 3.4-22.382 15.136-22.382 29.056 0 16.571 13.481 30.052 30.052 30.052 16.571 0 30.052-13.481 30.052-30.052 0-14.016-9.646-25.819-22.648-29.127-2.408-63.382-40.904-118.713-96.452-144.283h130.798v4.572c0 8.797 7.157 15.954 15.954 15.954h24.214c8.797 0 15.954-7.157 15.954-15.954V15.954C512 7.157 504.843 0 496.046 0zM41.052 40.168a.886.886 0 01-.884.884H15.954a.886.886 0 01-.884-.884V15.954c0-.487.397-.884.884-.884h24.214c.487 0 .884.397.884.884v24.214zm388.059 168.838c0 8.261-6.721 14.982-14.982 14.982s-14.982-6.721-14.982-14.982 6.721-14.982 14.982-14.982 14.982 6.72 14.982 14.982zM268.991 40.168a.886.886 0 01-.884.884h-24.214a.886.886 0 01-.884-.884V15.954c0-.487.397-.884.884-.884h24.214c.487 0 .884.397.884.884v24.214zm227.939 0a.886.886 0 01-.884.884h-24.214a.886.886 0 01-.884-.884V15.954c0-.487.397-.884.884-.884h24.214c.487 0 .884.397.884.884v24.214z"/></symbol><symbol viewBox="0 0 480 480" id="icon-calendar" xmlns="http://www.w3.org/2000/svg"><path d="M440 48h-40V32c0-17.673-14.327-32-32-32s-32 14.327-32 32v16h-64V32c0-17.673-14.327-32-32-32s-32 14.327-32 32v16h-64V32c0-17.673-14.327-32-32-32S80 14.327 80 32v16H40C17.909 48 0 65.909 0 88v320c0 22.091 17.909 40 40 40h224a8 8 0 000-16H40c-13.238-.04-23.96-10.762-24-24V160h448v136a8 8 0 0016 0V88c0-22.091-17.909-40-40-40zm-88-16c0-8.837 7.163-16 16-16s16 7.163 16 16v48c0 8.837-7.163 16-16 16s-16-7.163-16-16V32zm-128 0c0-8.837 7.163-16 16-16s16 7.163 16 16v48c0 8.837-7.163 16-16 16s-16-7.163-16-16V32zM96 32c0-8.837 7.163-16 16-16s16 7.163 16 16v48c0 8.837-7.163 16-16 16s-16-7.163-16-16V32zm368 112H16V88c.04-13.238 10.762-23.96 24-24h40v16c0 17.673 14.327 32 32 32s32-14.327 32-32V64h64v16c0 17.673 14.327 32 32 32s32-14.327 32-32V64h64v16c0 17.673 14.327 32 32 32s32-14.327 32-32V64h40c13.238.04 23.96 10.762 24 24v56z"/><path d="M224 216c0-8.837-7.163-16-16-16h-32c-8.837 0-16 7.163-16 16v24c0 8.837 7.163 16 16 16h32c8.837 0 16-7.163 16-16v-24zm-48 24v-24h32v24h-32zm-48-24c0-8.837-7.163-16-16-16H80c-8.837 0-16 7.163-16 16v24c0 8.837 7.163 16 16 16h32c8.837 0 16-7.163 16-16v-24zm-48 24v-24h32v24H80zm320 16c8.837 0 16-7.163 16-16v-24c0-8.837-7.163-16-16-16h-32c-8.837 0-16 7.163-16 16v24c0 8.837 7.163 16 16 16h32zm-32-40h32v24h-32v-24zm-144 72c0-8.837-7.163-16-16-16h-32c-8.837 0-16 7.163-16 16v24c0 8.837 7.163 16 16 16h32c8.837 0 16-7.163 16-16v-24zm-48 24v-24h32v24h-32zm-48-24c0-8.837-7.163-16-16-16H80c-8.837 0-16 7.163-16 16v24c0 8.837 7.163 16 16 16h32c8.837 0 16-7.163 16-16v-24zm-48 24v-24h32v24H80zm128 32h-32c-8.837 0-16 7.163-16 16v24c0 8.837 7.163 16 16 16h32c8.837 0 16-7.163 16-16v-24c0-8.837-7.163-16-16-16zm-32 40v-24h32v24h-32zm96-128h32c8.837 0 16-7.163 16-16v-24c0-8.837-7.163-16-16-16h-32c-8.837 0-16 7.163-16 16v24c0 8.837 7.163 16 16 16zm0-40h32v24h-32v-24zm-16 96c0 8.837 7.163 16 16 16a8 8 0 000-16v-24h32a8 8 0 000-16h-32c-8.837 0-16 7.163-16 16v24zm-144 32H80c-8.837 0-16 7.163-16 16v24c0 8.837 7.163 16 16 16h32c8.837 0 16-7.163 16-16v-24c0-8.837-7.163-16-16-16zm-32 40v-24h32v24H80z"/><path d="M376 272c-57.438 0-104 46.562-104 104s46.562 104 104 104 104-46.562 104-104c-.066-57.41-46.59-103.934-104-104zm0 192c-48.601 0-88-39.399-88-88s39.399-88 88-88 88 39.399 88 88c-.057 48.577-39.423 87.943-88 88z"/><path d="M422.224 342.464L360 404.688 331.72 376.4a8 8 0 00-11.312.196 8 8 0 000 11.116l33.936 33.944a8 8 0 0011.312 0l67.88-67.88a8 8 0 00-.196-11.312 8 8 0 00-11.116 0z"/></symbol><symbol viewBox="0 0 1280 1218" id="icon-checkmark" xmlns="http://www.w3.org/2000/svg"><path d="M1206.7 1c-13.4 2.4-27.9 8.5-37.3 15.6-9.6 7.3-131.1 120.9-400.4 374.4-207 194.8-257.8 242.5-332.5 311.9-28 26.1-56.6 53-63.4 59.8-6.9 6.8-13.5 12.6-14.8 12.9-1.7.5-6.8-1.4-17.6-6.4-8.4-3.9-29.9-13.4-47.9-21.1-18.1-7.8-47.3-20.4-65-28-211.7-91.2-196.4-85-207.1-83-8.2 1.5-14.2 5.8-17.7 12.7-5.4 10.4-2.9 21.8 8.5 39.2 5.2 7.8 28.8 49.1 68.5 119.5 93.8 166.5 128.6 226.9 171.8 298 25 41.2 47.8 78.4 50.8 82.6 6.6 9.4 18.4 20.8 24.7 23.7 6.2 2.9 15.1 5.2 20.2 5.2 9.9 0 22.1-5.1 30.7-12.9 6.4-5.7 10.8-12 27.1-38.6 18.3-30 33.9-54.3 53.6-84 159.8-239.6 356.7-488.1 758.3-956.7 29.5-34.5 54.8-64.5 56.2-66.7 1.4-2.2 3.5-6.8 4.7-10.3 6.7-19.8-7.7-38.8-34.8-45.9-8.8-2.3-28.8-3.4-36.6-1.9z"/></symbol><symbol id="icon-diploma" xml:space="preserve" viewBox="0 0 512 512" xmlns="http://www.w3.org/2000/svg"><style>.agst0{fill:#262626}</style><path class="agst0" d="M445.7 516L417 487.3 388.3 516H369V397.6c-15.3-13.7-24-33.2-24-53.6 0-18.1 6.8-35.4 19.1-48.8 11.8-12.8 27.7-20.8 44.9-22.7v-.2l2-.1h14v.3c18.7 2.1 35.7 11.4 47.7 25.9V78h-352v80h-80v224h287.7v16H24.6V146.7L109.3 62h379.3v274.7c.2 2.4.4 4.9.4 7.3 0 20.4-8.7 39.9-24 53.6V516h-19.3zm3.3-19.2v-88.3c-9.9 4.9-20.9 7.5-32 7.5s-22.1-2.6-32-7.5v88.3l32-32 32 32zM417 288c-30.9 0-56 25.1-56 56s25.1 56 56 56c30.7 0 55.8-24.9 56-55.6h-.4v-6.9c-3.2-28.2-27.1-49.5-55.6-49.5zM104.6 142V89.3L51.9 142h52.7z"/><path class="agst0" d="M26.6 147.5V396h299.7v-12H38.6V156h80V76h356v266.5h12V64H110.1l-83.5 83.5zm80-3.5H47.1l59.5-59.5V144zM423 274.3l-12-.1v.1c-35.8 3.1-64 33.2-64 69.7 0 21 9.3 39.8 24 52.7V514h16.5l29.5-29.5 29.5 29.5H463V396.8c14.7-12.8 24-31.7 24-52.7 0-36.6-28.2-66.7-64-69.8zm28 227.3l-34-34-34 34v-96.3c10.1 5.6 21.7 8.8 34 8.8s23.9-3.2 34-8.8v96.3zm-34-99.5c-32 0-58-26-58-58s26-58 58-58 58 26 58 58c0 31.9-26 58-58 58z"/><path class="agst0" d="M141 152.5h100v16H141z"/><path class="agst0" d="M143 154.5h96v12h-96v-12zm161.6-3.9h68v16h-68z"/><path class="agst0" d="M306.5 152.5h64v12h-64v-12zM141 197h228v16H141z"/><path class="agst0" d="M143 199h224v12H143v-12zm-2 30h228v16H141z"/><path class="agst0" d="M143 231h224v12H143v-12zm-2 30h166.6v16H141z"/><path class="agst0" d="M143 263h162.7v12H143v-12zm-2 29.4h68v16h-68z"/><path class="agst0" d="M143 294.4h64v12h-64v-12zm273 89c-22 0-40-17.9-40-40s17.9-40 40-40 40 17.9 40 40-18 40-40 40zm0-64c-13.2 0-24 10.8-24 24s10.8 24 24 24 24-10.8 24-24-10.8-24-24-24z"/><path class="agst0" d="M416 305.5c-21 0-38 17-38 38 0 20.9 17 38 38 38s38-17.1 38-38c0-21-17-38-38-38zm0 64c-14.3 0-26-11.7-26-26s11.7-26 26-26 26 11.7 26 26-11.7 26-26 26z"/></symbol><symbol id="icon-eye" xml:space="preserve" viewBox="0 0 512 512" xmlns="http://www.w3.org/2000/svg"><style>.ahst0{fill:#262626}</style><path class="ahst0" d="M10.8 144c-4.9 0-8.8-4-8.8-8.8v-124c0-4.9 4-8.8 8.8-8.8h124c4.9 0 8.8 4 8.8 8.8s-4 8.8-8.8 8.8H19.7v115.1c0 5-4 8.9-8.9 8.9zm0 366.1c-4.9 0-8.8-4-8.8-8.8v-124c0-4.9 4-8.8 8.8-8.8s8.8 4 8.8 8.8v115.1h115.1c4.9 0 8.8 4 8.8 8.8s-4 8.8-8.8 8.8H10.8zm366.1 0c-4.9 0-8.8-4-8.8-8.8s4-8.8 8.8-8.8H492V377.3c0-4.9 4-8.8 8.8-8.8s8.8 4 8.8 8.8v124c0 4.9-4 8.8-8.8 8.8H376.9zM500.8 144c-4.9 0-8.8-4-8.8-8.8V20.1H376.9c-4.9 0-8.8-4-8.8-8.8s4-8.8 8.8-8.8h124c4.9 0 8.8 4 8.8 8.8v124c0 4.8-4 8.7-8.9 8.7zM256 401.5c-47 0-93.2-12.8-133.6-37-41.5-24.9-75.2-60.9-97.3-104.2-1.3-2.5-1.3-5.5 0-8 25-48.8 64-87.8 112.8-112.8 36.9-18.9 76.5-28.4 117.7-28.4 47 0 93.2 12.8 133.6 37 41.5 24.9 75.2 60.9 97.3 104.2 1.3 2.5 1.3 5.5 0 8-25 48.8-64 87.8-112.8 112.8-36.9 18.9-76.5 28.4-117.7 28.4zM43 256.3C85 335 166.4 383.8 255.8 383.8h.1v2.8l.1-2.8c89.3 0 170.7-48.8 212.8-127.5-22.8-42.7-57.5-77.1-100.3-99.7-34.6-18.2-73.5-27.9-112.3-27.9-89.6 0-171.1 48.8-213.2 127.6z"/><path class="ahst0" d="M255.9 302.6c-2.8 0-5.6-.3-8.3-.8-12.2-2.2-22.8-9-29.8-19.2s-9.7-22.5-7.5-34.7c4-22.1 23.2-38.1 45.5-38.1 2.8 0 5.6.3 8.3.8.8.2 1.6.4 2.4.8 4.3 2.2 6.1 7.5 3.9 11.9-1 1.9-1.5 4-1.4 6.1 0 7.5 6.1 13.7 13.7 13.7 2.1 0 4.2-.5 6.1-1.4 1.2-.6 2.6-1 4-1s2.7.3 3.9.9c2.5 1.2 4.3 3.6 4.8 6.3 1 5.5 1 11.1 0 16.5-4.1 22.2-23.2 38.2-45.6 38.2zm-4.6-74.7c-13.8 2.2-24.2 14-24.2 28.4 0 15.8 12.9 28.7 28.7 28.7 14.3 0 26.2-10.4 28.3-24.2h-1.5c-1.7 0-3.4-.1-5.1-.4-15.8-2.6-26.9-16.8-26.2-32.5z"/><path class="ahst0" d="M255.8 340.1c-46.2 0-83.9-37.6-83.9-83.9 0-46.2 37.6-83.9 83.9-83.9h1c46 .3 83.2 37.9 82.9 83.9 0 46.3-37.6 83.9-83.9 83.9zm0-150.1c-36.5 0-66.2 29.7-66.2 66.2s29.7 66.2 66.2 66.2h.2c10.2 0 20.4-2.4 29.5-7.1 22.5-11.3 36.5-34 36.5-59.2 0-36.4-29.7-66.1-66.2-66.1v-2.8 2.8z"/></symbol><symbol viewBox="0 0 512 512" id="icon-facebook" xmlns="http://www.w3.org/2000/svg"><path d="M437 0H75C33.6 0 0 33.6 0 75v362c0 41.4 33.6 75 75 75h151V331h-60v-90h60v-61c0-49.6 40.4-90 90-90h91v90h-91v61h91l-15 90h-76v181h121c41.4 0 75-33.6 75-75V75c0-41.4-33.6-75-75-75z"/></symbol><symbol id="icon-hand-heart" xml:space="preserve" viewBox="0 0 120.3 110.2" xmlns="http://www.w3.org/2000/svg"><style>.ajst0{fill:#262626}</style><path class="ajst0" d="M7.3 69.3c0 5.5.1 11 0 16.5 0 2.4.8 3.2 3.2 3.2 8.3-.1 16.7-.1 25 0 2.4 0 3-.8 3.3-3.1 1.6-13.7-2.5-25.2-12.3-34.9-1.8-1.8-3.7-3.2-6.1-1.5-2.6 1.9-2 4.3-.4 6.6 2.2 3.3 4.4 6.7 6.6 10 .9 1.5 1.8 3.1 0 4.4-2 1.3-3-.5-3.9-1.9-2.5-3.7-5.1-7.4-7.4-11.3-2.5-4.2-1.5-8.9 2.1-11.6 3.6-2.7 8.4-2.3 11.7 1.2 9 9.6 15.9 20.1 14.4 34.2-.8 7.5 4 14.5 2.4 22.2-.2 1 0 2-.1 3-.2 1.6.1 3.7-2.3 3.8-2.3.1-2.4-1.9-2.4-3.6-.1-3-.2-6 0-9 .3-3.5-1.1-4.2-4.3-4.1-9.3.2-18.7.2-28 0-3.2-.1-4 1.1-3.8 4 .2 3.1.1 6.3 0 9.5 0 1.6-.6 3.2-2.4 3.3-1.8.1-2.6-1.5-2.4-3.1.8-6.4-2.1-13.2 2.1-19.3.7-1 .2-2.9.2-4.4.3-12.6-1.1-25.4 1.3-37.9 2.7-14.2 9.3-27 15.2-40 2.3-5.1 7.8-6.6 12.7-4.4 4.6 2 7.1 6.9 5.1 12.1-3.3 8.9-7.3 17.5-11 26.2-.6 1.4-1.6 2.8-3.4 1.9-1.8-.9-1.4-2.4-.8-3.9 3.3-7.8 6.6-15.6 10-23.4 1.6-3.6 2.2-7-2.2-8.8-4.4-1.8-6.3 1.4-7.7 4.8-3.1 7.5-6.2 15.1-9.4 22.5-5 11.8-5.5 24.2-5 36.8zm67.4 30.5c1.7-10 2.1-20.1 3.1-30.1 1-9.9 8.2-16.9 14.8-23.7 3-3.1 7.1-2.7 10.6-.1s4.6 6.5 2.7 10.2c-2.4 4.7-5.6 9-8.6 13.4-.7 1.1-1.9 2.1-3.4 1-1.3-1-1.1-2.4-.4-3.6 2.3-3.7 4.7-7.3 7.1-10.9 1.5-2.3 2.1-4.8-.5-6.6-2.4-1.7-4.2-.2-6 1.6-9.6 9.5-13.8 20.9-12.3 34.4.3 3 1.3 3.5 3.9 3.5 9.8-.1 19.7.1 29.5-.1 3.9-.1 5.4 1.3 5.1 5.2-.3 4-.1 8-.1 12 0 1.9.1 4.2-2.4 4-2.4-.1-2.3-2.4-2.3-4.2 0-3-.1-6 0-9 .1-2.5-.6-3.5-3.3-3.5-9.7.1-19.3.1-29 0-2.8 0-4 .7-3.7 3.7.2 2.8.1 5.7 0 8.5-.1 1.9.5 4.7-2.4 4.5-2.8-.1-2.1-2.9-2.2-4.7-.3-1.8-.2-3.6-.2-5.5z"/><path class="ajst0" d="M79.2 25C74.5 20.7 69 20 63 23c-2 1-3.4 1.1-5.5.1C47.3 18 36 25.2 35.9 36.8c0 2.4.4 4.6 1.5 6.8 4.8 9.1 12.8 15.2 20.8 21.2 1.2.9 2.6 1 3.8.1 8.4-6.4 17-12.6 21.4-22.6 2.6-5.7.6-12.9-4.2-17.3zm-2.1 19.4C73 50.1 67.7 54.7 62.2 59c-1.4 1.1-2.4 1.3-3.9.1-5.7-4.6-11.3-9.3-15.5-15.4-3-4.3-3-8.7-.2-13 3.4-5.1 8.9-6.2 13.8-2.7 2.4 1.8 4.4 2.8 7 .4 3-2.8 6.5-3.3 10.1-1.5 3.9 1.9 6.5 6.4 6.4 10.6-.2 2.6-1.3 4.9-2.8 6.9zm40.7 15.7c0 3 .1 6 0 9 0 1.8.3 4.2-2.2 4.3-2.6.1-2.4-2.2-2.5-4.1v-.5c2.6-22-7-40.9-15.2-60.1-1.3-3.1-3.6-5-7.1-3.5-3.7 1.5-4.1 4.5-2.6 7.9 3.3 7.8 6.7 15.6 10 23.4.7 1.6 2.1 3.7-.3 4.8-2.7 1.3-3.2-1.4-4-3.1-3.2-7.5-6.5-14.9-9.6-22.4-2.9-6.9-1.1-12.4 4.6-14.7 5.7-2.3 10.8.2 13.8 7 3.3 7.6 6.4 15.3 9.6 23 3.9 9.1 5.6 18.9 5.5 29zM32 103.2c-1.5.2-2.2-.7-2.4-1.9-.3-1.4.6-2.3 1.8-2.5 1.5-.3 2.6.5 2.7 2.1.1 1.2-.8 2-2.1 2.3zm58.8-2.1c-.4 1.2-.9 2.2-2.3 2.1-1.5-.2-2.4-1.1-2.2-2.7.2-1.3 1.3-1.9 2.5-1.8 1.3.1 2 1 2 2.4zm26.8-20.4c-.2 1.7-.8 2.6-2.2 2.5-1.4-.1-2.1-.9-2.1-2.2 0-1.3.9-2.1 2.2-2.1 1.5-.1 1.8 1 2.1 1.8z"/></symbol><symbol viewBox="0 0 253.4 312.7" id="icon-heart" xmlns="http://www.w3.org/2000/svg"><path d="M201.7 190.7c-.1 1.2-.2 2.4-.2 3.6-1.4 1-.7-2.9-2.6-.9-1.2 1.3-2.8 2.2 0 4.2-2.9-1.6-3.2.1-4.5 1.5-1.2 1.3-3 2.3-4.1 4-.2.4.9 2.7-1.3 1.1-.8-.6-.9.7-.9 1.1 0 2.1 2-.7 2.4 1.3-1.5.7-1.8 2.3-2.5 3.7-.8 1.6-2.3 3.4-5 3.2-2.9-.2-3.8 2.4-5.1 4.6 1.2.8 2.4.2 3.5.4-.9 1.8-2 3.6-2.8 5.5-.4.9-.7 1.2-1.6 1.1-4.2-.6-4.7 2.6-4.8 5.3 0 2.4-1.6 4.2-1.5 6.5 0 .8-1.5 1.1-1.7.4-1-3.2-2.2-.8-3.3-.2-2 1.1-3.5 2.8-5.1 4.4-1.3 1.3-1.1 2.7.3 3.9 1-.1.8-1 1.1-1.6.3-.6.7-1.5 1.6-.6.6.6.1 1.1 0 1.7-.5 3.5-5.4 3.4-5.5 7-1.1-.2-2 1-3.2.4-2-1-3.1 1.1-4.7 1.5-.9.2-.9 1.5-.5 2.3.1.2 1.2 0 1.8 0-1.5 2-1.5 2-3.8 1.6-.3 0-.8.2-.9.4-.4.6-.7 1.8.1 2 1.7.5 1.8 1.7 1.3 2.8-.8 1.9-1.2-.7-2.2-.4-1.5.5-1.8 1.4-1.6 2.8.4 2.6-2.1 5.9-4.7 6.1-.9.1-1.8 0-2.2.9-2.2 5.1-6.4 7.9-11.1 10.3-.8.4-.7.5-.6 2.8-1.1.1-.9-1-1.3-1.4-.7-.6.3-2.1-1.1-2-1.6.2-.4 2-1.3 2.7 2.8 4.2-1.2 5-3.4 6.6-.6.4-1.6 3.6-2.7.2-.4 3.4-6.8-1.4-5.8 4.4.2 1.3-2.9-.1-3.9 1.5-.3.4-1.8 0-1.8 1.2-.1 2.4-2.5 2.6-3.8 3.5-2.4 1.6-4.9 2.9-5.2 6.3-1.4-1.4.9-4.8-2.8-4.4-.3 0-.3-1.5-1-.9-.5.4-.7 2-.3 2.4.6.7 2.9.6.7 2.1-1.8 1.3-2.4 0-2.8-1.5-.1-.2-.3-.3-.7-.7-1.1 1.2-1.6 2.4-1.3 4 .2 1.1 0 1.9-1.1 1.9-1.3 0-.8-.8-.4-1.5.2-.4-.1-.7-.5-.6-.7.2-1.4.7-1.5 1.5-.5 2.8-1.6 2.1-2.7.4-.9-1.2-1.3-1.4-1.6.4-.2.8-1 0-1.3-.4-1-1.1-.4-2.6.3-3 1.2-.7 1.9-1.8 2.7-3 1 1.3 2 3.3 3.7 2.6 1.3-.5-.3-3.2 1.9-3.8-.9-1-1.6-.7-2.2-.2-.6.5-.9 0-1.1-.4-.4-.7.2-.8.7-.9 1.6-.6 3.1-1.2 3.9-2.9.3-.6 1.6-1.5 2 .4 0 .1 1.2 1 1.9.4.6-.5 1.1-1.1.6-1.9-.6-.9-.3-1.8.3-2.4 3.6-3.3 7.2-6.5 11.3-9.4-1.8 3.7-2.7 7.6-2.9 11.6 2.1-.3 1.9-.3 1.6-2.9-.3-2.5 2.5-3.4 3.6-5.3.8-1.4 5-1.2 1.8-4.4-.5-.5-.5-1.4-1.3-1.5 3.8-5.8 11.5-7.9 13.4-15.4-1.4-.5-3.4 1.7-5.1 0-.1-.1-1.8.9-1.8 1.4 0 .9.4 2.3 2.2 1.5-1.9.2-3.4 2-5.6.1-1.1-1-3.6-.3-4.8 1.3-1.2 1.6-2.4.8-3.1 0-1.7-1.9-1.7-4.4-1.4-6.6.3-2.2 2-4 4.4-4.7 1-.3 1.1-.9.1-2.1-1.6-2-4-3.5-3.2-6.5-1.5-.4-2.6.8-3.9 0-.3-.2-.8-.2-1.1-.1-.3.1-.6.6-.6.8 1 3-4.9 3.8-2.5 6.9 1.8 2.4-2.1 1.2-1.4 2.8.2.5-1 .6-1.4.1-.7-.8-.9-1.6.2-2.5 1.1-.8-.3-1.1-.6-1.6-.7-.9-2.7-1-1.7-3 .3-.6-.8-1.2-1.5-.6-.6.6-2.7.4-1.6 2.1.7 1 1.4 1.7-.1 2.1-1.3.3-1.3-.9-1.2-1.8.1-2.8-3.6-.6-3.8-2.9-2.4.4-2.8-1.9-3.9-3.1-1.5 1.3-.5 2.1.2 3.1.3.5.2 1.6-.8 1.7-.7.1-1-.4-1.2-1.1-.6-2.3 0-4.6 1.1-6.3 2.4-4.1 5.4-7.9 8.1-11.8.7-1-1.4-7-2.8-7.4-1-.3-1.3-.9-1.9-1.5-2.4-2.3-4.3-2.1-5.9.8-1 1.9-1.7 3.5-4 1-.9-1-2.6-1.3-4.1-1.3-3.9.1-3.9.1-5.1-3.3-1.2-.2-1.5 2.7-2.8 1.1-1.1-1.3-1.7-3.9-.4-4.9 2.6-2 3-5.7 6.3-6.9.8-.3.5-1.4.1-2-1.9-2.9-3.7-5.7-5.8-8.4-.5-.6-.7-.7-.3-1.3.3-.5.5-1.7 0-1.6-3.6.4-4.1-3.6-6.6-4.6-.9-.4-1.9-2.1-2.5.4-.1.5-1.1.4-1.6-.1-.7-.7 0-1 .4-1.4.4-.5.7-1 .1-2-.8.7-2.2.6-2.4 2.1-.1.9.1 2.3-1.5 1.5-.9-.5-1.6-1.3-.8-2.5 1.6-2.3.6-5.7 3.1-7.7.3-.2 1.5-2.3-1.3-1.5-1.4.4-2-3.2-4.3-3.1-.2-5.3-2.5.6-3.2-.6-1.1-.4.9-5-2.5-1.6-.6.6-1.2-.2-1.7-.7-.7-.7-1.3-1.7-2.7-1-1.9 1-2.6.4-2.3-1.9.2-1.1 0-2.2.9-3.1.7-.8 1.5-1.6 1.1-3.1-2.5 2.2-4.9 4.3-7.4 6.5-1.1-.7-.9-2.9-.1-3.5 2.5-1.9 2.8-5.7 6.1-6.9.4-.1 2.1-3.1.7-3.8-2.2-1-1.2-2.2-1.2-3.5 0-.7.8-2.5-1.6-1.7-.7.2-3.6-1.5-2.3-3.8.8-1.5-.4-1.8-.9-1.7-3.3.4-6.2-2-9.7-.9-3.6 1.1-6.9-2.1-7.3-5.9-.2-2 2.1-2.7 2.7-3.1 4.7-3.2 5.3-7.7 5-12.5-.2-2.6-.4-4.6 3.3-5.3-5.7.4-4.3-4.4-5.2-6.7-.5-1.3-.9-2-1.9-2.4-2.3-1-2.6-1.8-1.7-3.8.3-.6.4-1.7 0-2.1-.6-.7-1.6-.3-1.8.4-1.1 2.9-3.6-.1-5.1 1.3-.3.3.6-1.3-.2-2.4-.9-1.3.8-1.1 1.5-.9 1.8.4 1.5-1 1.9-2 .8-1.8 1-3.9.3-5.4-.8-1.6-1.3-1.5.5-3.3 2.2-2.2 1.2-5.1.9-7.3-.5-3 .8-4.4 3-6-4.5-.6-1.9-4.1-2.7-6.3-.4-1 .8-.6 1.5-.6 1 .1 2.6-3.5 2.2-4.3-.7-1.2-1.2-.4-1.7.1-.4.4-.8.8-1.1 0-.2-.4-.4-1.1-.2-1.4 1.9-2.1 2.3-4.3.7-6.8-.7-1.1.8-1.9 1.1-2.9 2.2-6.2 2.7-12.8 5.4-18.9.5-1.2.4-3.4.6-5.1.2-2.4 2.2-3.2 3.3-4.7.8-1 1.7.4 2.7.2-.4-3.3-1.2-6.3 2.7-8.7 1-.6 1.9-3.5 3.4-5.1 3-3.4 6.7-6.7 10.3-8.5 2.7-1.3 5.5-3.7 9-3.8.7 0 2 .2 1.8-.7-.9-4 3.7-3.8 4.4-6.4 1.8.3-.4 3 1.7 2.5 1.6-.4 4.1.9 4.8-1.8.4-1.5 1-1.7 1.6-.1.3.8.4 1.2 1.1.4.9-1.1 1.6-.9 2.3.3 1.2 2.1 2.3 1.3 3.6-.1-.1-1.6 1.1-1.7 2 .1.6 1.1 1.7 1.7 2.4 2.7 1 1.3 2.8 1.5 4.1 0 2-2.3 4.7-2 5.6.9.3.9 1 .8 1.4.6 2-1.5 3 .2 4.4 1.2.6.5 1.8 2.9 2.7 0 0-.1 1.2-1.2 1.6.2.3 1-.1 3.3 1.9.8.6-.7.6.8.6 1.2.4 3.6 2.3 5.1 5.7 4.2 1 1.5-1.5 1.4-.8 2.4 1.2 1.6 1.4-.4 2.1-.7 1.7-.7 1.8.4 1.9 1.7 0 .8-.1 2 1.2 1.8 1.7-.3-.6-1.7.6-2.3.4.5 1.2 1.1 1.2 1.6.1 2.2.6 2.9 2.6 1.4 1.4-1 1.2.6 1.4 1.1.8 2-.6.4-.9.5-1.9.6-2.5.9-1.7 3.6 1.3 4.6 4.4 2.5 6.8 3.3.6.2 1.3-2.4 1.5.1.1 1 1.4 2-.2 2.9-3.5 2.1-.1 4.7.7 5 3.1 1.1 3.5 3.8 4.5 6 .8 1.8.6 2.1 3.4 2.4 1.4.2 1.3.9 1.3 1.7-.2 2.3 2 4.2 2 5.4.2 3 2.8 3.4 3.6 5.4.6 1.5 1 2.8-1.4 2.9-.9 0-1.7.6-1.5 1.7.1.8-.3 2.3 1.5 1.6-.2 2.9 5.2 1.5 4 5.2 1.9-.6 3.1 2 4.8 1.1.4-.2 1.9-1.9.2-3.1-.8-.6 0-.8.6-1.1 2.2-1.2 3.2-2.9 4-5.4 1.6-5 4.1-9.7 7.3-14 .5-.6 2.2-.9.8-2.7-.6-.8.4-3.3 2.2-3.8 1-.3 1-.7 1.3-1.4 1.5-4.3 5.1-7 7.6-10.5 2-2.7 4.7-5 6.1-8.2.4-.8.8-1.9 1.8-1.1 3.4 3 3.7-.6 4.4-2.2.7-1.5 2.2-1.9 2.7-2.7 1.7-2.5 4.7-2 6.4-3.8.2-.2.3-.6.4-1.1.5 1.9.3 4.7 3.3 1.7.8-.8 2.5-.5 1.8 1.5-.5 1.4-.1 2.4.9 3.6.8-1.2 1-3.2 3.1-2.1.2.1.9-.2 1-.4 3.1-6.5 4.4 0 6.7 1-.9-1.7.9-2.8.4-4.3 2.3.8.8 5.6 4.6 4.5.9-.3 2.2-2.2.8-4 1.5 1.1 5.3-.3 3.8 3.9-.1.3 2.8.3 3.7-.6 1.6-1.4 2.3-.2 3 .7 1.1 1.5-1.1 1.2-1.3 2.1-2.5-.8-1.6 1.8-2.8 2.6 2.4-.2 4.6 1.9 7.1.3 1-.6 2.1.2 2.2 1.3.2 2.7 2.5 1.9 3.9 2.6.2.1.5.3.6.3 3.6-1.4 6.1.7 5.9 5.1 0 .9.1 1.6.6 1.9.4.3 1.8.8.9-.8-.3-.6.1-1 .5-1.2 1-.5 2.1.5 2.2.9.6 2.2 2.4 1.9 4.7 2.5-2.1.9-3.3 1.9-1 3.2-1.6 1.1-1.8-2-2.8-.6-.3.4-1.5 2.3.5 3 .1 0 .1.2.2.3 1.6 1.3-3.5.4-.8 2.6 1.2.9 2.6.3 3.6 1.5 1.6 2 4.3 3.2 3.5 7 1.4-1.3 1-3.3 3.1-3-.7 2.3.1 5.8-4.4 4.6-.6-.1-1.6.6-1.6 1.7s0 2.5 1.1 2.8c1.6.5 2.7 1.6 4.1 2.3 2 1.1 3.8 5.5 2.7 7.3-.4.7-1.1.6-1.6.1s-.7-1.5-1.5-.4c-.3.5-.7 1.4 0 1.7 3 1.4.5 3 .1 4.2-1 2.6-1.2 2.5 1.5 3.4.7.3 1.1.7 1.1 1.6 0 2 1.5 4.9-1.6 5.2-2.1.2-1.8 1.3-2.2 2.3 1-.2 1.4 2.6 2.9.5.3-.4 2.4-1.2 1.9 1.1-.4 1.9-.3 3.4 1.6 4.4.7.3.7 1 .5 1.6 0 .2-.7.5-.9.4-1.4-.5-3.1-1.6-3.5.7-.3 2-2.1 4.5.6 6.3.1.1 0 .5 0 .9-1.2.3-2.3-2.4-3.6-.3-1.2 2.1 1 2.1 1.7 3 1.7 1.9 1.5 4.3 1.8 6.6-1.2-.1-.8-1.6-1.7-2-.5.8-.3 1.5-.4 2.2-.3 2.4 1.7 6.1-3.4 6-1 0-1.2 1.5-1.1 2.7.2 1.9-.2 3.8-2.2 5-1.4.8-1.3 1 .3 2.1.3.3.5.9.5 1.3 0 .8-.6.9-1.3.7-2.5-.6-3.1 0-1.7 2.4.6 1.1-.4 1.6-1.3 2.2-1.5 1.1-3.7 2-2.3 4.7.7 1.4-.9 1.7-1.3 1.7-2.4-.1-2.6 1.6-3.1 3.2-.9 3-3.4 5.7-1.2 9.1-2.4.2-1.3 3.4-3.7 4.1-1.7.5-4.6 1.4-3.8 4.8.3 1.3-1.1 1.4-2 1.7-2.5 1-2.5 2.6-1 4.4 1.3 1.5 1.5 2.2-.4 3.6-1.7 1.2-.6 4.7-3.3 5.7-2.2.8-2.1 5.5-6 3.4-.9-.5-.6.7-.9 1.2-2.1 3.3-1.5 7.3-3.2 11.1-.3-.8-.5-1.6-.8-2.3-1.6 1.1-1.7 3.2-2.9 4.6-.2-1.8-.5-3.6-.7-5.3-2.1.5.1 2.3-1.4 3.1-.8.4-1.1 1.5-.4 2.2 1.2.6 2.2-.1 3.1-.5zm-2.9-21.1c1.3-1.4 1.5-3.1-.6-3.1-2.3 0-2.6-1.2-3-3.3-1.1 1.7 0 3.4-1.7 4.1-.5.2-.5 1.4.4 1.8.8.3 1.4.8 2-.6.7-1.8.8.9 1.4.4-.3 1.3-1.1 2.6.2 3.8.9.8 0 1.6-.5 1.7-1.8.4-3.9 1.2-5.5.7-1.9-.6-2.2 1-3.3 1.3-.7.2-1.1 1-.7 1.8.5 1.1 1.5 1.2 2.6 1.2.5 0 1.3-.3 1.5.6-2.5.4-3.8 3.4-6.8 3-.8-.1-1.8 1.4.2 1.7 1.8.3.9 1.7.5 1.7-3.5 0-3.3 2.8-4 4.9-.5 1.5-2.1 2-3.5 2.5-.6.2-1.4 0-1.4.8 0 .7 1.9 0 1.3 1.4-.5 1.3-2-.1-2.6.9-.2.4-.5 1-.4 1.3.6 2.1 0 3.2-1.8 4.6-1.2 1-2 1.7-3.7 1.8-2.3.1-2.5.9-1.9 2.6.3.7-.4 2.7-.5 2.6-4.5-.6-1.7 4.1-3.7 5.3-.6.3-.3 1.5-1.4 1.9-3.5 1.2-7.4 2.1-6.7 8.1-2.1-2.3-1.8-4-1.8-5.6-.1-2.7 3.5-.4 3.4-2.9-2.6-1.5-4.5-1.6-5.1 2.1-.2.9-.7 1.8-1.1 2.7-.3.6-.5 1.5.3 1.4 2.6-.3 1.9 2.7 3.5 3.3.5.2 1 .5.6 1-.4.4-1.3.7-1.6.5-.8-.6-1.7-1.3-1.9-2.7-.3 5.7-3.6 9.4-7.5 12.7-1.5 1.3-2.5 3.2-3.3 5.2-1.3 3-2.7 6.4-5.9 7.8-1.5.7-2 1.3-2 2.7.1 2.6-.6 3.9-3.7 2.1 1.8 2.3 2.7 4.8 5.6 1.4 1.2-1.5 1.5-3.4 3-4.5 5.8-4.2 10.2-9.9 14.7-15.4 3.7-4.5 7.4-9.1 10.8-13.9 1.7-2.4 4.9-4.3 6-6.7 1.2-2.8 6.2-3.2 4.5-7.5 0-.1.6-.7.7-.7 2.8 1.8 3.4-2 3.4-2.3-.3-3.2 2.5-4.7 3.9-6.8 1.5-2.3 3.1-4.6 4.3-7.1.6-1.2 1-3.7 2.4-3.4 3.3.7 3.9-2 4.9-3.7 1-1.6 2.1-3 3.2-4.5 2.5-3.3 5.6-6.2 6.7-10.4.2-.8.9-1.5 1.5-2.1.8-.8 1.4-1.4.7-2.6-1.3 1.4-2.9 2.5-3.8 4.1-1.2 2-1.9 1.2-2.8.3zM65.7 38c-.5-3.1 2.3-6.3-.3-9.3 0 3.1-3.4 6.3.3 9.3.1 1.1-1.8 2.3 0 3.5.1.2.2.4.3.7-.3 1.5-.8 3.1-2 3.9-1.4.9-.8-1.9-2.2-1.7-1.1 1.1 0 2.4-.3 3.5-.6 2.1-2.1 2.9-4.3 3.6-1.2.4 1 4.9-2.2 5.8-2 .5-2.8 1.4-3.1 3.3-.1.8-.8 1.5-1.4 2.1-1.5 1.3-3.4 3.4-3.8 4.4-2.4 6.6-9.1 9.7-12.2 15.7-1.4 2.7-4.4 4.7-5.9 7.5-.7 1.3-1.1 2.7-2.4 3.8-3 2.6-6.7 4.9-5.9 9.8.1.7-.1 1.6-.8 1.9-.9.4-1.6.9-1.4 1.9.4 2.1 1.6-.4 1.9.2.5 1 2.2 1.7 1.3 3.1-1.3 2.1 1.6 3.6.5 5.6 1.2.2 2.4.5 3.6.7.2-3.9 3.5-4.9 6.1-6.4-.6-1.2-1.7.3-1.9-.5-.2-.8.5-1.4 1.3-1.5 1.8-.2 2.2-3 4.5-2.1.3.1.6-.5.3-1.1-1-2.2 1.6-3 2.1-4.6 3.2 1.8 1.6-3 3.8-2.8 2.8.3 2.1-2 2.5-3.4.4-1.6 1.7-2.7 3.1-2.7 1.7 0 3.4 1 3.5 3.1.1 1.2.4 2.4 0 3.7-.4 1.4-.5 3 .8 4.4 2.1-3.5 2.5-7.2 1.5-10.8-.9-3.2 1.1-3.9 3.5-4.9-2.2-1.8-1.9-3.6-.8-5.9 1.4-2.7 4.5-3.7 5.4-7.2.4-1.5 3.2-3.3 4.1-5.3 2-4.3 6.9-6.5 8.2-11.1.8-3.1 4.7-3.8 5-7.3.1-1 1.9-2.1 3.1-2.8 1.6-1 1.5 1.2 2.4 1.6 1.3.5 2.5 1.7 4.2-.1-2.2-.7-3.8-1.9-6-3.4 3.9-.1 4.5-3.4 5.4-5.2 2.3-4.4 5.3-8.1 9.1-11.2 1.3-1.1 1.1-2.6.1-3.9-1.2-1.5-2.8-2.9-3.8-4.5-1.9-3.2-5.8-3.1-7.1-1.8-2.2 2.3-5.6 3.3-7.1 6.3-.2.3.2 1.2-.7.8-3.7-1.6-4.6 2.2-4.1 3.5 1.4 3.4-1.9 3.7-2.7 5.5-1.1 2.2-3.1 2.7-5.5 2.3zm94.4 126.7c2.6 1.6.2 3.4-.2 4.7-.4 1.3-1.8.3-2.6-.6-1.1-1.3-1.8-.7-2.5.5-.5.9-.9 1.9-.6 2.8.7 1.7 2.1-1.1 3 .3-.1.2-.2.5-.3.6-.2.2-.4.3-.6.4-2.9 2.5-7.9 3.3-7.1 8.8 0 .1-.1.2-.2.3-3.1 2-4.3 5.9-7.7 7.9-.4-2.4 1.3-5.2-1.8-7.8 1 2.5 1.1 4.3.6 6.1-2.1-.8-2.1-.8-3.9 1.6.7 1.7 2.7-1.9 3.1.9.3 2.1-1.5 2.4-2.9 2.8-.4.1-1.5-.6-.8.5 1.5 2.5-1 3.8-1.5 5.7-.5 2.1-1.6 3.7-4.1 2 0 .2-.2.6-.1.6 2.6 2.2-.1 4.2-.2 6.3-1.1-.5-2.6 3-3.6-.4-.1-.4-1.7.1-1.7 1.2 0 .9.3 1.7.4 2.6.2 1.8-1 4.4-1.6 4.5-2.5.2-2.6-.1-1.9 2.4.3 1 .3 1.9-.9 1.9-1.7-.1-2.9 1.5-4.8 1 2.7-1.6 2.3-3.1-1.5-5.9-1 2 1.7 4.5.3 5.6-2.6 2.1-.6 2.9.3 4.2.2.2.2.6.3.8-4.1.6-1.9 4.3-3 6.5-1.1-1.3.3-3.1-1.1-4.4-1.3 1.8-.5 5.3-4.2 4.8-1-.1-2.7-.9-2.6 1.4 0 2.1-2.4 4.4.6 6.2.3.5.6.9.9 1.4.6 2.2 2.7 3 4.2 4.5.4.4.7.7 1.2-.2 2.6-4.2 5.4-8.3 8.2-12.4.3-.4.8-1.9 1.2-.9.9 2.1 1.4.2 1.2-.1-1.3-2.5 1-3.3 2.1-4.8 1.7-2.2 3.2-4.6 4.9-6.8 2.6-3.3 3.3-9.1 9.5-8.4.2-1.5-2.8-.6-1.7-2.5.3-.5.4-1.1 1.1-1.3 2.2-.8 5.4-.7 4.4-4.8-.1-.6.7-3.9 2.2-3.7 3.8.4 3.5-2.1 3.7-4.3 1.8-.1.5 1.9 1.8 2 .6-7.1 1.4-8.2 5.7-6.3-3.4-3.4.3-5.9 1.4-6.5 3.6-2.1 5.2-5.5 7.2-8.6 1.7-2.6 3.5-5.7 5.6-7.3 2.6-2 4.8-3.5 5.1-7 1.2.9 0 2.3 1 2.9 1.9-3 4.6-5.7 5.4-8.9 1-4 7-.5 6.5-5.5.5 1.4-.2 3.4 1.5 3.6 1.1.1 3-.9 3.5-1.9.8-1.6-.3-2.5-2.2-2.9-2.5-.5-3.5-3.1-1.3-4 4.3-1.7 5.3-7.2 10.1-7.9.3 0 .7-.6.7-.8-.5-2.3 1.3-3.6 2.5-4.9 2.1-2.5 2.5-6.8 6-7.7 2-.5 2.1-1.7 3-2.7.7-.9 1.9-2.9 2.4-2.1 2.3 3.4 3.2.1 4.6-.6.5-.3 1.3-1 1.6-.5 1.7 3 1.8-.3 2.2-.7.6-.6-.1-1.9 1.3-2.9-.3 2.4 2.6 1.2 2.9 3.1.1.6.3.2 2.8-1.9 1.1-.9.2-1.4.3-2 .3-1.4.9-1.7 1.9-.6.6.7 1.1 1.4 1.7 2.2.7-1.6-1-2.4-.8-3.7 4.1.2 4.8-.5 4.7-4.3-1.1.4-2.1.7-3.1 1.1-.5-1.4-.3-2.7.3-4.1-1.3 1.6-1.9 3.5-3 5-1.1 1.3-2.5 3.1-4.9 2.3.2-1.4 2.9-2.1 1.2-3.7-.9-.8-2-1.2-.9-2.4.9-1.1 1.5-2.5 3.6-2.3.8.1 2.7 1.7 3-.3.3-1.4-1.6-.6-2.3-1.1-.3-.2-.7-.6-.6-.8.6-2.2 1.3-4.4 2.9-6.1.2-.3 1-.3 1.4-.1.5.3.4.8 0 1.2-.6.6-.5 1.1.3 1.4.9.3.9-.6 1.3-1 1-1.2-.3-2.4.1-3.5 2.3-5.9 1.2-11.8.6-18.5-1.2 1.4-1.8 2.2-2.4 2.9-1.1 1.3-2.7.8-4.1 1-2.2.3.6 3.6-1.8 4.4-.6-1.3.4-2.7-.8-4.2-.8 3-4.7 3.1-4.8 6.6-.4-1.4-1.4-2.2-1.1-4.1.2-1.4-1.2-3.9-2.6-4.5-1.9-.9-3.6 1-4.8 2.6-1.2 1.5-.7 2.9 1.1 4.7-.1-2.3-.1-4.2 1.4-5.6.2.7.4 1.3.6 2 2.8-2.2 2.4.7 2.1 1.6-.8 3 .9 4.6 2.8 6.1.8.6 1.3 1.9.9 1.8-1.8-.3-3.7 2-5.3-.1-1.8-2.3-3-.6-3.8.7-.6 1-1.4 2.4-.4 3.8.3.5-.7 1.8-.9 1.5-.9-2-2.7-1.2-4.1-1.7-.1 0-1.6-.7-.8-1.5 2.4-2.6-1-1.3-1.5-2v3.3c-.9 1.1-2.6 1.5-3 3.2-.1.4.1 1.3.2 1.3 1 .1 2.1.1 3-.1.4-.1.2-.7-.3-1.1-1.2-1 .3-2.2-.1-3.4 1.8.9.5 3.6 2.2 4.2 2.1.7.3 1.7.5 2.6-1.4.1-2.3.8-3.5 1.5-1.8 1.2-2.2.6-2.1 3.1 2.2.2 4.6-4.3 6.5.7-.5.1-1.1.1-1.5.3-2.3 1.2-5.7 2-6.5 4.2-.8 2.3-3 4.2-2.6 7 .1.8-1.7.5-2.5 1-2-3.4-2.9.5-4.3.7.4-2.4-1.8-3.5-3-4.8-1.4-1.5-1.2 1.2-2.1 1.4-.3.1-.7 0-1 0-2.5-.1-1.5 2.1-1.7 3.1-.3 1.5 1 1.1 2 .8 1.9-.7 3.8-2.2 5.9-.5 1.2 1.6-.7 2.2-1.4 3.4 1.8.3 3.9.2 2.7 2.8-.6 1.4-1.6 2.2-3.3 1.3-.8-.4-2.3.1-1.5.8 2.9 2.5.2 4.1-1.1 4.3-3 .5-3.8 3.3-6 4.4-1.4.7-1.5 2-1.8 3.1-.6 2.2-.5 2.3-1.9 1.3-.5-.3-.5.2-.8.3-2.3.8-3.9 4.1-2.8 6.3.4.7.6.6-.1 1-2.2 1.5-4.6 2.9-6.4 4.8-.8.9-2.5-1.2-2.3 1.2.3 4.3-.9 7.4-4.1 10.5.9-2.2 2.4-4.7.4-5.6-2.5-1-2.3-4.4-5.2-4.7-.4 0-.6-1.9-2-.9-1.4 1-3.8-.1-4.8 2.1-.3.7.2 1.3.8 1.3.6 0 .2-1.3 1.1-1.1-1 2.8 3 3.7 2.4 6.2-.3 1.3-1.5 2.8-.1 3.7 1.5 1 2.5-.9 3.8-1.4 1.2-.2 1.6-.5 1.9-.8zm-43.1 4.9c.4 1.5 1.8 2.5-.5 4.4-1.3 1.1-3.7 2.6-4 4.9-.2 2.1-.9 3.6-3 4.1-.6.1-1.1.4-1 .9.7 3.1-3.1 2.7-3.6 4.9-.2.8-.6.4-1-.1-1.9-2.2-1.5.2-2 1-1.4 2.6-1.4 5.6-3.4 8.2-1.4 1.7-1.8-2.1-2.5.2-.3 1.1-.2 2.4-1.1 3.5-1 1.2-4 1.2-2.5 4 .3.5-.9.6-1.4.7-1.9.3-2.8 1.2-1.7 3 .2.4.8.5.1.9-2 1.1-1.3 3.3-2.3 4.9-.2.2-.5.4-.8.7-.1-.9-.1-1.6-.2-2.5-1.1.8-.5 3.5-2.9 2.3-.6-.3-1.3.1-1.1.9.1.4.5 1.1.7 1.1 3.7-.2 4.2 2.7 5.3 5.2.5 1 1.4 2.5 2.3 2.6.9.1 2.4-.9 2.6-2.2.3-2.5 2.6-2.3 3.6-1.9 3.5 1.3 3.4-.9 3.8-3.5-1.5.7-2.6 1.3-3.7 1.8 0-1.2 1.1-1.7 1.2-2.4.6-3.8 5-5.2 5.6-9.1.2-1.2 2.5-2 3.1-3.4 2.4-5.6 7.2-9.7 9.6-15.3 2.8-6.4 10-9.7 12.2-16.7.2-.6.9-.6 1.6-.7 1.4-.1 2.8-.4 4.2-.6 1.7-.2.8-1.4.6-2-.5-2.7-.5.6-1 .1s-1.7-1.1-1.5-1.2c2.1-1.2 2.5-4.6 4.3-4.8 2.3-.3 2.9-2.3 3-3 .6-5 5-7.2 7.4-10.7 2.2-3.1 4.2-6.4 7.3-9 4.1-3.5 6.1-8.9 10.4-12.5 2-1.7 5.4-3 5.5-6.7 0-.3.6-.9 1-1 3.3-.8 5.4-2.4 4.6-6.2-.1-.4.5-1.1.9-1.6l6.3-7.2c.3-.3.4-.7.6-1.1-.1 1 .1 2 1.3 1.3.9-.5.3-1.6.3-2.4-.1-.8 0-1.6.8-1.9 2.7-1 3.3-4.5 6.5-5 1.9-.3 2.9-1.9 3.1-4 .1-1.2 0-3 1.8-3.6.8 1.2-.6 2.9 2 4-1.5-2.2-.4-4-.2-5.7.3-2.8 2.5-1.5 3.9.2 0-2.5 2.2-4 1.7-6.4-.2-.9.6-.7 1.3-.6 2.2.4 3.6-.6 4.4-2.6.7-1.7 2.5-2.3 3.6-3.5 2.2-2.4 5.1-4.6 5.1-8.3 0-.7-.6-1.5.5-1.6.6 0 1.4.6 1.1 1.6-.4 1.4 1.1 2.2 1.3 1.7.7-1.7 4.3.5 3.3-2.5-1.1-3.1 3.2-2.7 3.2-5.2 0-.3 1.2-.2 1.8.9 2 3.3-1.3 4.4-2.6 6.1-1.3 1.7-1.7 2.5.5 3.3-.4-1.8.3-3 1.9-3.8.1 1.9.7 4.1 0 5.6-1.1 2.4-4.1-.7-6.1 1.2 1.5 1.4 4.8 1.9 2.6 5 2.3.5 3.2-2.3 4.7-1.9 5.1 1.5 1.7-2.2 2.2-3.4-1.6-.3-1.3-1.4-.5-2 .5-.4 1.3.4 1.6 1.2.2.6.1 1.4 1.1 1.1.7-.2 1.4-.7 1.5-1.5.3-1.9-.3-3.4-2.4-3.7 1.9-1.4 3.2-2.9.9-5.1-.6-.6-1.1-1.6 0-2.2 2.3-1.4 1-2.4.1-4.1-1-1.9-4.9-3.2-2.2-6.5.2-.2-.7-1.6-1.4-2-.5-.3-1.3-.4-1-1.1.7-1.9 1-3.1-1.4-4.3-2.8-1.4-3.5-5.4-5.9-7-4.9-3.1-8.4-7.9-13.4-10.7-1.5-.8-3-1.2-3.5-3-4.2 1.8-8.2 1.7-12.1-1-.2-.1-.1-.2-.4 0-.6.6-.3 2.9-2.4 1-1.5-1.3-.9 1.8-2.1 1.5-2.9-.7-5.6 1.6-8.5.5-.9-.3-1.6.2-1.7.9-.4 2.3-.8 4.2-3.9 3.7-.4-.1-1 .5-.7 1 1.5 3-1.6 4.2-2.6 6.3-.3.7-.8 2.5-1.3 2.2-2.9-1.7-1.8.2-1.3 1.4.2.5.6.9-.4.7-2.4-.4-1.9 2.1-3.1 3-.5.4-.3 1.9-1.2 1.5-2.6-1.1-2.2 2-2.2 2.1 1.1 4.5-1.4 4.6-4.9 3.6 1.5 3.9-.2 6.9-1.9 9.8-1.5 2.6-3.5 5.1-3.8 8.2-.1 1-1.8 2.2 0 3.2-.9 1.5-.3 4.5-2.6 4.3-2-.2-2 .7-1.6 1.5 1.1 2.7-1.8 4.3-1.6 7 .2 1.8-.6 3.8-.2 5.7.3 1.7 1.8 2 2.6.7 1.1-1.9 2.8-3.4 4.1-5 2.5-3.2 5.1-6.5 7.7-9.6 2.6-3.1 4.1-7.1 8.7-7.7-.3-1.4-3.6-.7-1.7-2.6 1.8-1.8 4-3.1 6-4.6 2-1.5 2.9-4.1 5.2-5.1-1.2-2.6 2.9-1.3 2.4-3.1-.8-2.8 1.6-3.6 2.9-5.1 1.4-1.6 4.2-1.7 4.3-4.7 0-.3 1.3-.9 1.9-.9 3.6.4 4-2.5 5.5-4.7 1.2-1.8.9-5.3 4.5-4.9 1.9.2 3.1.3 1.8-2.2-.5-1 .5-1.6 1.3-2 .6-.3 1.5-.3 1.2.6-.6 2.2 1 1.4 2 1.7 2.3.5 2.5.9 1.4 3.6-.3.8-.8 1.6-.2 2.4.5.8.9 2 2.2.8 1.3-1.2 2.9-1.4 3.9 0 1 1.3.3 2.8-.7 4.1-.7 1-1.9 1.6-2.1 3-.1.4-1.3.7-2 1.1-.3-.9-.9-1.8 0-2.7.5-.5 1.6 0 1.8-1-3.2-1.4-3.9-1-4.3 2.2-.2 1.2-.5 2.5-.9 3.6-.2.5-.2 1.8-1.3.9-1.7-1.3-1.8.1-1.4.9 1.1 2-.1 2.6-1.4 3.4-1.4.9-2.6 2.1-2.3 3.8.2 1.7-1.8 2.8-.9 4.6.2.5-.4 1.1-1.2.9-1.9-.5-3 .4-3.1 2.3 0 1.5 0 1.4-1.3 1.7-.3.1-.7.6-.8 1-.7 3.4-3 4.1-6.3 3 .4 2.4-1.5 4.2-1.7 5.5-.4 3-2.9 4-4.2 6-1.5 2.3-6.4 1.4-7.6-1.3-.1 2.6-1.5 4.9-.8 7.5 1.6-.4.3-3 2.2-2.5.6.2 1 1.8 1.1 2.8.1 1-.7 1.6-1.6 1.7-2.9.6-3.1.6-3.1 3.3 0 2.5-1 5.1-2.6 6.1-2.5 1.6-4.5 2.8-4.2 6.1.1.8-.5 1.5-1.3 1.6-3.5.2-4.9 2.3-6 5.4-.7 2-2 7.2-5.5 1.5-.3-.5-1.2-.1-1.4 1-.7 3.2 1.4 3.5 4.3 3.5-2.1 1.3-5.2 1-3.1 4.3.4.6-.1 1.8-1.2 2.4-2.5 1.5-3.5 4.5-6.2 5.8-2.2 1.1-.1 3-.8 4.5-1.1 2.5-5.3 2.7-4.5 6.4.1.4-.4.6-.7.4-3.1-1.8-2.5.3-2 2 .3 1.1 0 1.8-.6 2.6-1.9 2.3-3.4 4.8-6 6.7-2 1.5-2.4 5.1-3.6 7.7-.9 2-6.1 1.4-3.3 5.4-.3.1-.7.2-1 .3-1.1.6-2.1 1.3-3.1 2 .3-1.3-1.7-2.7-3-1.7-.6.5-2.7-.5-2.1 1.7.6 1.9 1.6 1.4 2.8.9.5-.2 1.1-.4 1.7-.6zm-30-80c.4-1.8 4.6-2.7 1.8-5.5-1-1 .2-1.6.4-2.5.9-2.7 3.5-3.3 5.3-4.9 1.5-1.4 2.6-3.9 5.4-3.5.7-3.7 4.9-5 6-8.5.1-.5 1.2-.8 1.9-.9.5-.1 1.1.6.9.9-2 3.2.7 1.2 1.4 1.2 1.1 0 2.2-.5 3.2-.3.7.1 1.2.4 1.2-.5 0-.3-.9-.6-1.4-.9 4.1-.7 5.9-4.8 3.2-7.6-.9-1-1.5-2.1-1.8-3-1.3-4.8-4.9-8.4-6.9-12.8-.3-.7-2.7-3.3-3.5.5-.2 1-1 2.4-2.3.6-.7-1-1.2-.2-1.8.1-.7.4-1.2.9-.2 1.6 1.6 1 1 2.7 1.9 4.7-2-.8-4-2.2-4 .7 0 1.6.5 3.9-1 3.9-2.7 0-.4-2.5-1.1-3.7 0-.1-.2-.1-.6-.2-.5 1.1-1 2.1-.3 3.5.3.7 1 1.2-.1 2.2-1 .8-2.7 1.6-2.1 3.5.3.9-3.5.4-.8 2.2-.3.2-.6.5-.8.5-3.2-.4-3.1 2.8-4.4 4.3-.5.5.3 2.3-1 2.3-.7 0-1.4-1.5-2-2.3-.2-.4-.2-.9-.4-1.8-1.7 2.7-4.8 4.8-1.3 8 .3.2.2 1.4 0 1.4-3 1-2 4.7-4.2 6.2-3.4 2.3-5 6.6-8.9 8.4-.2.1-.6.7-.5.8 1.9 3.7-1.2 5-3.3 6.8-2.2 1.9-3 4.9-6 6.4-1.2.6-2.7 2.7-3.6 5-1.6 4-5.7 7.6-9.2 9.8-4.1 2.6-5 8.2-10.1 9.3-.1 0-.2.5-.1.6 1 1.9-.7 2.4-1.6 3.4-1.7 2-.6 6.3-5 6.3.2.3.6.6.6.9-.8 5.1 2.2 9.3 3.4 13.8.5 1.8 1 3.9 3.2 4.1 2.5.2 1-2.7 2.1-3.6 2.2.3.5 2.5 1.9 3.3 1.5-1 2.7-2.8.7-3.6-2.4-.9-1.4-2-1-3 1-2.3 1.5 1.4 1.9 1 1.4-1.9-.1-3.2 1.2-4.8 2.9-3.3 5.3-7.1 7.6-10.9.8-1.4 1.6-2 3.1-1.8 4.4.7 4.2-4.2 6.8-5.7.2-.1.1-.6-.6-.8-2.5-.7-2.5-.8-1.1-3 3-4.5 6.1-8.9 9.4-13.2 3-4 4.8-8.9 10.1-10.7 2.8-.9-1.1-2.2-.1-2.4 2.5-.5 1.7-3.4 3.4-4.3.4-.2.5-1.4 1.3-.6 2.3 2.4 2.1-.3 2.2-1.2.1-1.3.8-3.3 1.3-3.2 2.3.8.5 2.3.3 3.6-.1-.3 0-.2 0-.1zm31.9 18.9c.8-.5 1.8-1.8 2.6-.7.7.9 0 2.2-.8 3.1-1.4 1.4-2.8 2.7-3.7 4.4-.5.9-.6 2.3-2 2.4 0-1.5-1.2-2-2.2-2.6-.2-.1 1-1.4-.3-1.7-1.1-.2-1.3 1-1.7 1.7-.4.8-.3 1.4.5 1.8 3.7 1.8 2 4.1.4 6-.5.6-1.6 1.8-1.6 2-.6 3.1-2.3 2.2-4.2.9-.3 2.6.6 5.1-1.6 7.2-.3-2.1.8-4.7-2.3-5.5-1.2-.3-2.2-1.9-3.5-.8-1.7 1.4 1.4 1.2 1 2.6-.5 1.7 1.9.1 2.3 1.3 1.3-.9 1.8.3 1.5 1-1.3 2.9-2.2 7.2-4.4 8-2.6 1-3.9 0-3.3 4 .5 3.6-.9 7.7-4.2 10.6-2.1 1.8-4.8 3.6-4.2 7.1 0 .2-.4.7-.6.8-2.5.6-3.5 3.3-4 4.8-1.3 3.5-5.7 4.7-6 8.8-.1.8-1.5 1.8-2.1 3.3-.8 2.2-6.1 1.9-3.8 6.2.1.1-.2.5-.4.6-2.4.5-1.9 3.2-3.1 4.2-3.5 2.9-1.4 5.5 0 8.1.3.5 1.7 1 1.7 1.1-1.6 3.1 1.7 2.1 2.4 2.3 1.8.7.6-1.6 1.6-2.2 1.4-1 1.1-4.1 4.2-2.9.8.3 1.2-1.1.9-1.6-1.1-2.7.4-3.9 2.2-5.6 1.6-1.5 2.6-3.7 4-5.5 1.9-2.4 2.4-6 4.6-7.4 3-1.9 4.6-5.1 5.8-7.4 2.7-4.7 6-8.9 9.1-13.3 2-2.8 4.5-5.2 3.8-9.1 1.7 0-.1 2.6 2 2 .4-.1.8.2.9-.7.2-4 1.8-6.6 6.4-5.3.4-1.5-1.9-.9-1.2-3.2 1.3-4.2 4.2-6.9 6.6-10.2 2.4-3.2 5.5-6.1 7.1-9.6.8-1.8 3.2-2.6 2.9-3.7-.9-3.3 1.6-2.6 3.1-3.1.2-.1.4-.3.5-.5 1.6-4.5 3.7-8.7 6.9-12.4.7-.8.1-1.4-.6-1.7-2.8-1.4-7.2 1-7.9 4.7-1.4-1.6-3.8-1.1-4.9-3.3-.2.9-.3 1.4-.5 1.9-.9 2.7-1.7 3.3-3.2 2.1-.3-.2-.7-.2-1.1-.3-1.9-.7-2.5 1-3.2 1.9-2.1-.5.9-2.3-1-2.4-1.7-.1-1.2 1.5-1.3 2.5-.3 1-.8 2.2-.1 3.3zm-13.6-24.3c.4 1.2-2.8 2-.5 3.4.1.1 1.1-1.3 1.8 0-.9.4-.2 1.6-1.6 2.3-1.5.7-2.7 2.7-4 4.1-2.9 3.3-2.9 8.6-8.5 10.2-1.6.5-1.4 5.1-4.6 6.4-.3.1-.3 2.9-2.4 3.1-.3 0-.4.8-.7 1.2-.4.6 1.8 1.6-.5 2.1-1.5.3-1.9-.3-2.5-1.3-.6-1.1-1.6-.8-2.2-.2-.8.9.2 1.4.8 1.6 2.7 1.1 2.7 2.1.3 3.7-1.4.9-1.3 3.2-3.8 3.7-.9.2-4.1 2.3-2 5.1.2.2.1 1 0 1.1-4 1-1.8 5.9-5.1 7.8-1.4.8-2.9 3.3-4.3 5-2.5 3.1-5.3 6.1-6.7 10.1-1.1 3-4.4 4.9-5 8.4-.2 1-1 1.7-2 2.1-4.1 1.6-3.8 5.4-4.6 8.7-1 3.8 3.1 1.4 3.8 3.5.4 1.2 1.7.7 2.6-.8 3.4-5.4 6-11.5 11.3-15.5-.6-5.6 5-7.8 7-12.1 2.1-4.4 5.5-8.5 8.4-12.8 1.2-1.8 1.9-3.8 4.2-5 1-.5 3.6-2.1 3.1-3.9-.7-3 1.2-4.3 2.9-5.6 1.5-1.2 3.1-1.8 3.5-4.2.3-2 1.3-4.7 2.7-5.4 3.7-1.8 4.6-6.6 8.9-7.4.7-.1.8-.6.5-1.1-1.7-2.9.9-3.8 2.5-4.7 1.9-1.1 4-1.9 4.7-4.6.6 1 .7 2.1 1.7 2.2.2-1.8 1.1-3.8-1.9-4.7 1.2-.4 2.2-.6 3.1-.6 2.2 0 .8-3.2 2.9-3.1-2.1-2.8.3-4.1 1.9-5.8 1.3-1.3 2.9-2.5 2.8-4.7-.1-4.5-2.4-4.5-5.8-2.6.6-1.8 1.6-3.6-.4-4.4-1.2-.5-1.5 1.2-2 2-.8 1.2.3 2.1.9 2.9.9 1 1.2 1.9 0 2.8-2.6 2.2-4.9 4.8-7.1 7.4-.5.9-2.6 2.8-4.1-.4zM57.2 9.5c-1.9-.2-4.1-1.7-4.2 1.9 0 .3-.4.6-.6.9-2.4-2.4-3.4.6-4.6 1.4-4.4 3.1-9.1 5.8-12.4 10.3-4.7 6.3-9.3 12.5-11 20.3-.7 3.4-1.8 6.7-2.9 9.9-.1.4-1.6.5-.9 1.5.6.8 1.7.2 1.8-.4.4-2 2.2-3.5 3.2-4.6 1.7-2 3.3-5.9 7.8-4.2-.6-1.2-2-2-1.4-2.7 2-2.5 3.7-5.4 5.7-7.7 2.3-2.6 4.5-5.4 6.1-8.2 3.8-6.6 9.7-11.4 13.4-18.4zm20.5 10c-.7-1.3-1.4-2.3-.6-4 1.4-3-.3-4.3-3.2-4.8-3.9-.6-8.5 2.8-10.1 7.4-1.7 5-5.3 8.9-8.6 12.5-2.1 2.3-3.3 4.2-3.9 7.1 1.5-.1 2.7 0 3.3-1.2 1.4-2.9 3.8-5.8 6.2-6.5 2.5-.8 1.6-2.2 2.4-3.2 1.5-1.9 2.3-5.1 6.8-3-1.6-1.3-2.3-1.9-2.7-2.2 1.7-2.4 4.8-3.1 6.3-5.8.2-.3.9-.3 1.4-.3.1 0 .4.7.2.8-1.3 2.6 1.1 2.5 2.5 3.2zM41.4 52.2c-1 .6-3.4-1.6-4.2 1.5-.6 2.5-2.3 4.2-3.9 6-1.6 1.7-3.5 3.6-2.9 6.7 3.8-5.1 8.7-8.7 11-14.2zm164.5 82.6c1.2-1.4 4.3.7 4-2.8-.3-2.9 1-4.7 4.3-4.6-.5-1-1.1-.9-1.7-.8-2.6.2-3.7 2.4-5.4 3.7-2 1.5-2.9 4.9-1.5 6.9.4.5.8 1.2 1.4.7.7-.4.9-1.3.3-1.9-.4-.4-1.2-.3-1.4-1.2zm-13.5-74.6c2.7-4.1-4.3-3.6-2.7-7.5-3.2 4.8-3.4 9.3-2.2 13.9-.3-3.2 1-6 1.8-9 1.5.3 1.2 2.3 3.1 2.6zm-62.8 199.7c-1.1.4-.9 2.2-1.9 1.9-5-1.6-3.6 3.7-5.8 5.2-.3.2-.6.9-.1 1.3.5.5 1.2.4 1.6-.2 1.1-1.7 2.7-2.8 4.3-3.9 1.4-1.1 2.3-2.3 1.9-4.3zM18.9 80.1c2.2-.2 2.1-.2 1.6-1.6-.1-.2.1-.9.2-.9 1.6 0 1.2-1.1.8-1.8-.5-1-1.6-.4-2.4-.4-2.9.3-1.1 3.5-2.7 4.7 1.2.9.9 2.8 2.6 3.3.6.2 1.1.6 1.4-.3.2-.6.5-1.1-.4-1.4-.5-.2-.9-.7-1.1-1.6zM223 123.2c-.5 1.2-.3 2.2 0 3.1.3.8 1 1.6-.4 2-1.2.4-1.7-.4-1.8-1.3-.3-1.7-1.2-1.7-2.7-1.3 1.2 2.2 2.3 4.3 5 4.6 1 .1 2.4-.4 2.6-1.7.2-2-.7-3.9-2.7-5.4zm-97.2 134.1c3.6-3.2 3.9-6.3 1.2-10.8-.5 3.7-.8 7.2-1.2 10.8zm29.7-50.8c-.1 1.6-.2 2.6-.3 3.6-.1 1.7 1.2 2.1 2.4 2.2.8.1 2.2.4 2.7-.6.7-1.4-1.1-1.6-1.6-2.6-.4-.9-1.7-1.5-3.2-2.6zm9.3-107.2c-1.6-1.3-2.7-2.3-4.6-1.1-2.2 1.5-.3 3.3-.8 5.1 1.4-1.8 3.3-2.8 5.4-4zm-5.9-3.7c-.7-2.2-1.4-4.3-1.9-6.4-.4-1.5-1.5-1-2.3-1-.9 0-.9 1.2-.7 1.3 2.4 1.5.6 5.9 4.9 6.1zm72.7-61.4c1.3-2.8.5-4.9-1-6.8-.3-.4-.6-1.3-1.4-.6-.7.7-1.3 1.5-1.8 2.3-.4.8.7 1.3 1 1.2 3.1-.5 2.2 2.3 3.2 3.9zm-12 98.6c-3.5 2.4 1 2.6 1.2 4.1.2 1 1.5.6 1.9.3 1.8-1.3-1.1-.5-.6-1.1 1.8-2.1-.2-2.3-1.4-2.9.7-1.3.2-2.6-1.2-2.3-2.4.3-.1 1.2.1 1.9zM82.5 162c1-3.1 2.2-6.1 4.1-9.3-4.7 2-5.3 5.3-4.1 9.3zm101.5 2.3c1 .8 2.5-.8 2.8 1.2.2 1.4 1.2.9 2 .5.9-.4 2.1-1.1 1.9-2-.3-1.6-1.3.2-1.9-.1-.4-.1-.6-.7-1-1-1.7-1.1-3.2-1.3-3.8 1.4zm-78.7 6.6c-.4 2.7-2.2 4.9-1.8 7.6.1.7 0 1.7 1 1.7 1.1 0 1.3-1 1.4-1.9.1-1.3-1.9-2.8.6-4.1.8-.4-.7-2-1.2-3.3zM129 271c-1.1 1-1.5 2.2-1.2 3.4.2.9-.4 2.5 1.2 2.3.3 0 2.3-.4 1.9-1.1-.9-1.4-.4-3.4-1.9-4.6zm2-128.5c1.6-1 1 1.4 1.8 1.1 1.3-.5.8-1.8 1.1-2.8.2-.8 0-1.8-1.4-1.4-1.7.5-4.4.4-1.5 3.1zM48.2 45.9c-.5-2.1-.8-3.9 1.9-4.4.2 0 2-.7.9-1.8-1.1-1.2-1.3.5-1.9.8-2.6 1.2-4.1 2.7-.9 5.4zm-4.3.5c-3.6-1.1-1.3 3.9-4 3.7-.2 0 .2.9.7.9 2.4-.2 2.5-3.6 5-3.7 0-1.4-.9-1.1-1.7-.9zm23.9 118.2c2.4-1.7 1.1-4 1.7-5.8.1-.5 1.7-.6.3-1.3-.6-.3-1.6-.1-1.6 1 .1 1.9-1.1 3.7-.4 6.1zM206.4 42.8c-.3-2.3-.8-4.1-3-5-.4 2.4.2 4.2 3 5zm-124.1 64c-1.2 1.8-3.8 3.3-1.6 6.1 1.7-1.7 2.1-3.7 1.6-6.1z"/><path d="M104.8 241.5v-5.1c0-1 .3-1.6 1.5-1.6 1.3 0 1.2.6 1 1.6-.5 2.2 1.3 4.9-1.7 6.5-.2-.4-.5-.9-.8-1.4zm55.3-76.8c-1.9-2-5.1-3.1-4.6-6.9 2.9.1 2.8 4.8 6.3 3.6-1.3 1-.9 2.5-1.7 3.3z"/></symbol><symbol id="icon-imac" xml:space="preserve" viewBox="0 0 512 512" xmlns="http://www.w3.org/2000/svg"><style>.alst0{fill:#262626}</style><g id="aloutline"><path class="alst0" d="M466 40H46c-16.6 0-30 13.4-30 30v276c0 16.6 13.4 30 30 30h153.8c-1.3 22-7.9 43.3-19.2 62.2l-3.4 5.7c-2.3 3.8-1 8.7 2.7 11 1.2.7 2.7 1.1 4.1 1.1h144c4.4 0 8-3.6 8-8 0-1.4-.4-2.9-1.1-4.1l-3.4-5.7c-11.3-18.9-17.9-40.2-19.2-62.2H466c16.6 0 30-13.4 30-30V70c0-16.6-13.4-30-30-30zM314.1 440H197.9c10.6-19.8 16.7-41.6 17.9-64h17.6c-4.4 12.5 2.1 26.2 14.6 30.6 12.5 4.4 26.2-2.1 30.6-14.6 1.8-5.2 1.8-10.8 0-16h17.6c1.2 22.4 7.3 44.2 17.9 64zM248 384c0-4.4 3.6-8 8-8s8 3.6 8 8-3.6 8-8 8-8-3.6-8-8zm232-38c0 7.7-6.3 14-14 14H46c-7.7 0-14-6.3-14-14v-18h448v18zm0-34H32V70c0-7.7 6.3-14 14-14h420c7.7 0 14 6.3 14 14v242z"/><path class="alst0" d="M328 264h-88v-8c0-4.4-3.6-8-8-8h-24c-4.4 0-8 3.6-8 8v8h-16c-4.4 0-8 3.6-8 8s3.6 8 8 8h16v8c0 4.4 3.6 8 8 8h24c4.4 0 8-3.6 8-8v-8h88c4.4 0 8-3.6 8-8s-3.6-8-8-8zm-104 16h-8v-16h8v16zm107.9-167l-72-40c-2.4-1.3-5.4-1.3-7.8 0l-72 40h-.1c-.1 0-.1 0-.1.1-2.4 1.4-3.9 4.1-3.9 6.9v80c0 2.9 1.6 5.6 4.1 7l72 40c2.4 1.3 5.3 1.3 7.7 0h.1l72-40c2.5-1.4 4.1-4.1 4.1-7v-80c0-2.9-1.6-5.6-4.1-7zM248 226.4l-56-31.1v-61.7l56 31.1v61.7zm8-75.6L200.5 120 256 89.2l55.5 30.8-55.5 30.8zm64 44.5l-56 31.1v-61.7l56-31.1v61.7z"/></g></symbol><symbol id="icon-instagram" xml:space="preserve" viewBox="0 0 512 512" xmlns="http://www.w3.org/2000/svg"><style>.amst0{fill:#262626}</style><path class="amst0" d="M437 0H75C33.6 0 0 33.6 0 75v362c0 41.4 33.6 75 75 75h362c41.4 0 75-33.6 75-75V75c0-41.4-33.6-75-75-75zM257 390c-74.4 0-135-60.6-135-135s60.6-135 135-135 135 60.6 135 135-60.6 135-135 135zm150-240c-24.8 0-45-20.2-45-45s20.2-45 45-45 45 20.2 45 45-20.2 45-45 45z"/><path class="amst0" d="M257 187.2c-39.4 0-71.5 30.4-71.5 67.8s32.1 67.8 71.5 67.8 71.5-30.4 71.5-67.8-32.1-67.8-71.5-67.8z"/></symbol><symbol viewBox="0 0 512 512" id="icon-letter" xmlns="http://www.w3.org/2000/svg"><path d="M467 61H45C20.2 61 0 81.2 0 106v300c0 24.7 20.1 45 45 45h422c24.7 0 45-20.1 45-45V106c0-24.7-20.1-45-45-45zm-6.2 30L257 294.8 51.4 91h409.4zM30 399.8V112.1l144.5 143.2L30 399.8zM51.2 421l144.6-144.6 50.7 50.2c5.9 5.8 15.3 5.8 21.2 0l49.4-49.4L460.8 421H51.2zM482 399.8L338.2 256 482 112.2v287.6z"/></symbol><symbol viewBox="0 0 475.553 475.525" id="icon-location" xmlns="http://www.w3.org/2000/svg"><path d="M296.886 129.837c-.004-32.644-26.472-59.104-59.116-59.1s-59.104 26.472-59.1 59.116c.004 32.641 26.467 59.1 59.108 59.1 32.631-.04 59.072-26.485 59.108-59.116zm-104.216 0c.004-24.912 20.204-45.104 45.116-45.1s45.104 20.204 45.1 45.116c-.004 24.909-20.199 45.1-45.108 45.1-24.904-.029-45.084-20.212-45.108-45.116z"/><path d="M475.09 466.029l-57.064-149.6a7.004 7.004 0 00-6.54-4.504h-108c.66-1.076 1.316-2.12 1.976-3.2 41.556-68.8 62.468-128.984 62.168-178.856C367.637 58.151 309.504.007 237.787 0c-71.71-.007-129.852 58.115-129.869 129.825-.3 49.916 20.612 110.108 62.168 178.9.66 1.092 1.316 2.136 1.976 3.2h-108a7.004 7.004 0 00-6.54 4.504L.466 466.029a6.992 6.992 0 006.54 9.496H468.55a6.992 6.992 0 006.54-9.496zM121.922 129.837c.011-63.986 51.891-115.847 115.876-115.836 63.985.011 115.847 51.89 115.836 115.876.6 99.432-92.36 222.068-115.856 251.476-23.496-29.396-116.46-152-115.856-251.516zm110.524 267.116a7 7 0 0010.664 0 742.95 742.95 0 0051.6-71.036h111.948l8.96 23.5-218.764 77.804-77.976-101.316h61.96a742.595 742.595 0 0051.608 71.048zm-35.836 45.2h.04l130.508-46.4 50.62 65.772h-235.6l54.432-19.372zM68.89 325.905h32.32l81.768 106.248-82.572 29.368h-83.24L68.89 325.905zm326.572 135.62l-54.436-70.728 79.6-28.308 37.772 99.036h-62.936z"/></symbol><symbol id="icon-magic" xml:space="preserve" viewBox="0 0 512 512" xmlns="http://www.w3.org/2000/svg"><style>.apst0{fill:#262626}</style><path class="apst0" d="M403.8 166.8l22.5-65.8c1.5-4.5.4-9.4-3-12.7-3.4-3.4-8.2-4.5-12.7-3l-18.5 6.3c-3.9 1.3-6 5.6-4.7 9.5 1.3 3.9 5.6 6 9.5 4.7l13.3-4.6-21.1 61.8c-1.2 3.5-.8 7.4 1.2 10.5l35.6 56.9-68.5-5.4c-4.5-.4-8.9 1.8-11.3 5.6l-34.7 53.7-17.7-58.5c-1.2-4-4.3-7.1-8.3-8.3L227 200.2l53.7-34.7c3.8-2.5 6-6.8 5.6-11.3L281 85.7l57 35.6c3.2 2 7 2.4 10.5 1.2l18.1-6.2c3.9-1.3 6-5.6 4.7-9.5-1.3-3.9-5.6-6-9.5-4.7l-16.9 5.8-60.4-37.7c-4-2.5-8.9-2.5-13-.1-4 2.4-6.3 6.9-5.9 11.5l5.6 72.2-57.2 37c-4.1 2.6-6.2 7.3-5.5 12.1s4 8.7 8.7 10.1l33.6 10.2L72.4 401.5c-2.9 2.9-2.9 7.7 0 10.6 1.5 1.5 3.4 2.2 5.3 2.2s3.8-.7 5.3-2.2L267.1 228l12.7 3.8 3.8 12.7-56.2 56.2c-2.9 2.9-2.9 7.7 0 10.6 1.5 1.5 3.4 2.2 5.3 2.2s3.8-.7 5.3-2.2l50.5-50.5 10.2 33.6c1.4 4.7 5.3 8 10.1 8.7.6.1 1.2.1 1.8.1 4.2 0 8-2.1 10.3-5.7l37-57.2 72.2 5.6c4.7.4 9.1-1.9 11.5-5.9 2.4-4 2.4-9-.1-13l-37.7-60.2z"/><path class="apst0" d="M204.7 323.5L35.4 492.7c-4.9 4.9-12.6 5.2-17.1.6-4.6-4.6-4.3-12.2.6-17.1l41.4-41.4c2.9-2.9 2.9-7.7 0-10.6-2.9-2.9-7.7-2.9-10.6 0L8.3 465.6c-10.8 10.8-11.1 28-.6 38.4 5.1 5.1 11.8 7.6 18.6 7.6 7.1 0 14.3-2.8 19.8-8.3L215.4 334c2.9-2.9 2.9-7.7 0-10.6-3-2.9-7.8-2.9-10.7.1zm-43.3-166.2c1.8.9 3.7 1.4 5.7 1.4 1.3 0 2.6-.2 3.8-.6l29.6-9.9c3.9-1.3 6.8-4.5 7.8-8.5s-.1-8.1-2.9-11.1l-22.2-23.3c-4.3-4.6-11.5-5-16.3-1-16 13.3-15 32.1-11.4 45.6.8 3.1 3 5.9 5.9 7.4zm12.9-39.5l16.7 17.6-21.9 7.3c-1.6-7.6-2-17.2 5.2-24.9zm152.5-66.4c2.3 3.2 5.9 5.1 9.8 5.1h.5c4.1-.2 7.8-2.4 9.9-5.9l16.2-27.8c3.2-5.4 1.6-12.4-3.6-15.9-17.3-11.6-35.1-5.4-46.9 1.9-2.8 1.7-4.8 4.5-5.5 7.8-.7 3.2 0 6.6 1.9 9.3l17.7 25.5zm21.8-33.6l-12.2 21-13.2-18.9c6.9-3.8 16.1-6.9 25.4-2.1zM245.5 48.2c1.5 1.8 3.7 2.8 5.9 2.8 1.7 0 3.3-.5 4.7-1.7 3.2-2.6 3.7-7.3 1.1-10.6l-13.7-16.9c-2.6-3.2-7.3-3.7-10.6-1.1-3.2 2.6-3.7 7.3-1.1 10.6l13.7 16.9zM383.7 307c-3-2.8-7.1-3.9-11.1-2.9s-7.1 3.9-8.5 7.8l-9.9 29.6c-1 3.1-.7 6.5.8 9.4 1.6 2.9 4.3 5.1 7.4 5.9 5.8 1.6 11 2.2 15.7 2.2 14.9 0 24.3-6.9 29.9-13.6 4-4.8 3.6-12-1-16.3L383.7 307zm-14.1 36.2l7.3-21.9 17.6 16.7c-7.6 7.3-17.3 6.8-24.9 5.2zm135.9-190.4c-3.5-5.2-10.5-6.8-15.9-3.6l-27.8 16.2c-3.6 2.1-5.8 5.7-5.9 9.9-.2 4.1 1.7 8 5.1 10.3l25.6 17.8c2 1.4 4.4 2.1 6.8 2.1.8 0 1.6-.1 2.4-.3 3.2-.7 6-2.7 7.8-5.5 13.3-21.5 8.4-37.3 1.9-46.9zm-13 36.3l-18.9-13.2 21-12.2c4.8 9.4 1.7 18.5-2.1 25.4zm-1.9 79.7l-16.9-13.7c-3.2-2.6-8-2.1-10.6 1.1-2.6 3.2-2.1 8 1.1 10.6l16.9 13.7c1.4 1.1 3.1 1.7 4.7 1.7 2.2 0 4.4-1 5.9-2.8 2.6-3.2 2.1-7.9-1.1-10.6zm-17.9-226c-2.8-3-7.6-3.2-10.6-.4L443.3 60c-3 2.8-3.2 7.6-.4 10.6 1.5 1.6 3.5 2.4 5.5 2.4 1.8 0 3.7-.7 5.1-2l18.8-17.6c3.1-2.8 3.2-7.5.4-10.6z"/></symbol><symbol id="icon-marker" xml:space="preserve" viewBox="0 0 512 512" xmlns="http://www.w3.org/2000/svg"><style>.aqst0{fill:#262626}</style><path class="aqst0" d="M426 89C386.9 32.5 324.9 0 256 0S125.1 32.5 86.1 89C47.2 145.3 38.2 216.6 62 279.5c6.4 17.2 16.5 33.9 30 49.5l150.4 176.6c3.4 4 8.4 6.3 13.6 6.3s10.2-2.3 13.6-6.3L420 329.1c13.6-15.7 23.7-32.4 30-49.5 23.8-63 14.8-134.3-24-190.6zm-9.5 178.1c-4.9 13.2-12.8 26.2-23.6 38.7l-.1.1L256 466.5 119.2 305.8c-10.8-12.5-18.7-25.5-23.7-38.8-19.7-52.1-12.2-111 20-157.6C147.8 62.6 199 35.8 256 35.8s108.2 26.8 140.5 73.6c32.2 46.6 39.7 105.5 20 157.7z"/><path class="aqst0" d="M256 106.2c-55.3 0-100.3 45-100.3 100.3s45 100.3 100.3 100.3 100.3-45 100.3-100.3-45-100.3-100.3-100.3zm0 164.7c-35.5 0-64.4-28.9-64.4-64.4S220.5 142 256 142s64.4 28.9 64.4 64.4-28.9 64.5-64.4 64.5z"/></symbol><symbol id="icon-nywe" xml:space="preserve" viewBox="0 0 512 512" xmlns="http://www.w3.org/2000/svg"><style>.arst0{fill:#262626}</style><path class="arst0" d="M497.4 59.3c8 0 14.6-6.5 14.6-14.6V14.6c0-8-6.5-14.6-14.6-14.6h-30.1c-8 0-14.6 6.5-14.6 14.6v7.6H285.1C281.8 9.4 270.2 0 256.4 0c-13.8 0-25.3 9.4-28.7 22.1h-51.2c-4.1 0-7.5 3.4-7.5 7.5s3.4 7.5 7.5 7.5h51.2c3.3 12.7 14.9 22.1 28.7 22.1 13.8 0 25.3-9.4 28.7-22.1h167.6v7.6c0 8 6.5 14.6 14.6 14.6h7.6v168.4c-13 3.2-22.6 14.9-22.6 28.8s9.7 25.6 22.6 28.8v167.4h-7.6c-8 0-14.6 6.5-14.6 14.6v8.6h-26.8c-4.1 0-7.5 3.4-7.5 7.5s3.4 7.5 7.5 7.5h26.8v6.5c0 8 6.5 14.6 14.6 14.6h30.1c8 0 14.6-6.5 14.6-14.6v-30.1c0-8-6.5-14.6-14.6-14.6h-7.6V285c12.5-3.5 21.6-15 21.6-28.5s-9.2-25-21.6-28.5V59.3h7.6zm-241-15c-8.1 0-14.6-6.6-14.6-14.6 0-8.1 6.6-14.6 14.6-14.6S271 21.7 271 29.7c.1 8-6.5 14.6-14.6 14.6zM497 497h-29.2v-29.2H497V497zm-.5-240.5c0 8.1-6.6 14.6-14.6 14.6s-14.6-6.6-14.6-14.6 6.6-14.6 14.6-14.6 14.6 6.5 14.6 14.6zM467.7 15H497v29.2h-29.2V15zm-73.8 460.8H286.1v-8.6c0-8-6.5-14.6-14.6-14.6h-7.1v-16.9c0-4.1-3.4-7.5-7.5-7.5s-7.5 3.4-7.5 7.5v16.9h-8c-8 0-14.6 6.5-14.6 14.6v8.6H59.3v-8.6c0-8-6.5-14.6-14.6-14.6h-7.6V286.1h8.2c7.7 0 14-6.3 14-14V263h17.5c4.1 0 7.5-3.4 7.5-7.5s-3.4-7.5-7.5-7.5H59.3v-7.2c0-7.7-6.3-14-14-14h-8.2V59.3h7.6c8 0 14.6-6.5 14.6-14.6v-7.6h85.3c4.1 0 7.5-3.4 7.5-7.5s-3.4-7.5-7.5-7.5H59.3v-7.6c0-8-6.5-14.6-14.6-14.6H14.6C6.5 0 0 6.6 0 14.6v30.1c0 8 6.5 14.6 14.6 14.6h7.6v167.5H14c-7.7 0-14 6.3-14 14v31.3c0 7.7 6.3 14 14 14h8.2v166.5h-7.6c-8 0-14.6 6.5-14.6 14.6v30.1c0 8 6.5 14.6 14.6 14.6h30.1c8 0 14.6-6.5 14.6-14.6v-6.5h167.5v6.5c0 8 6.5 14.6 14.6 14.6h30.1c8 0 14.6-6.5 14.6-14.6v-6.5h107.8c4.1 0 7.5-3.4 7.5-7.5s-3.4-7.5-7.5-7.5zM15 15h29.2v29.2H15V15zm0 226.9h29.2v29.2H15v-29.2zM44.3 497H15v-29.2h29.2V497zm226.8 0h-29.2v-29.2h29.2V497z"/><path class="arst0" d="M167.4 263.5h18.8c4.1 0 7.5-3.4 7.5-7.5s-3.4-7.5-7.5-7.5h-18.8c-4.1 0-7.5 3.4-7.5 7.5s3.4 7.5 7.5 7.5zm-60.1-14.7c-4.1 0-7.5 3.4-7.5 7.5s3.4 7.5 7.5 7.5h18.8c4.1 0 7.5-3.4 7.5-7.5s-3.4-7.5-7.5-7.5h-18.8zm150.1 104.8c4.1 0 7.5-3.4 7.5-7.5v-18.8c0-4.1-3.4-7.5-7.5-7.5s-7.5 3.4-7.5 7.5v18.8c-.1 4.2 3.3 7.5 7.5 7.5zm.3 60.1c4.1 0 7.5-3.4 7.5-7.5v-18.8c0-4.1-3.4-7.5-7.5-7.5s-7.5 3.4-7.5 7.5v18.8c-.1 4.1 3.3 7.5 7.5 7.5zm-75.3-102.8c.4-4.1-2.6-7.8-6.7-8.2-4.1-.4-7.8 2.6-8.2 6.7l-3.2 31.2c-.2 2.3.6 4.5 2.2 6.1 1.4 1.4 3.3 2.2 5.3 2.2h.8l29.9-3.1c4.1-.4 7.1-4.1 6.7-8.2-.4-4.1-4.1-7.1-8.2-6.7l-8.5.9 46.3-46.3c1 .3 2.1.4 3.3.4h8.2v11.3c0 4.1 3.4 7.5 7.5 7.5s7.5-3.4 7.5-7.5v-11.3h8.2c7.7 0 14-6.3 14-14v-31.3c0-1.1-.1-2.2-.4-3.3l45.3-45.3-.9 8.5c-.4 4.1 2.6 7.8 6.7 8.2h.8c3.8 0 7.1-2.9 7.5-6.7l3.1-29.9c.2-2.3-.6-4.5-2.2-6.1-1.6-1.6-3.8-2.4-6.1-2.2l-31.2 3.2c-4.1.4-7.1 4.1-6.7 8.2.4 4.1 4.1 7.1 8.2 6.7l10.4-1.1-45.8 45.8c-.9-.2-1.8-.3-2.8-.3h-31.3c-7.7 0-14 6.3-14 14v8.2h-11.3c-4.1 0-7.5 3.4-7.5 7.5s3.4 7.5 7.5 7.5h11.3v8.2c0 1 .1 1.9.3 2.8l-46.8 46.8.8-10.4zm60.4-69.4H272v29.2h-29.2v-29.2z"/></symbol><symbol id="icon-paint" xml:space="preserve" viewBox="0 0 480 480" xmlns="http://www.w3.org/2000/svg"><style>.asst0{fill:#262626}</style><path class="asst0" d="M472 44H8c-4.4 0-8 3.6-8 8v288c0 4.4 3.6 8 8 8h72v80c0 4.4 3.6 8 8 8h48c4.4 0 8-3.6 8-8v-80h328c4.4 0 8-3.6 8-8V52c0-4.4-3.6-8-8-8zM128 420H96v-16h32v16zm0-32H96V228h32v160zm-27.9-176l11.9-27.7 11.9 27.7h-23.8zM464 332H144V220c0-.1-.1-.2-.1-.3 0-.9-.2-1.8-.5-2.7v-.1l-24-56c-1.7-4.1-6.4-5.9-10.5-4.2-1.9.8-3.4 2.3-4.2 4.2l-24 56v.1c-.3.9-.5 1.8-.5 2.7 0 .1-.1.2-.1.3v112H16V60h448v272z"/><path class="asst0" d="M351.5 124c-4.4-30.6-32.7-51.9-63.4-47.5-24.6 3.5-44 22.9-47.5 47.5H184c-4.4 0-8 3.6-8 8v112c0 4.4 3.6 8 8 8h112c4.4 0 8-3.6 8-8v-56.6c30.6-4.4 51.9-32.8 47.5-63.4zM288 236h-96v-96h48.6c3.6 24.5 22.8 43.8 47.4 47.4V236zm0-64.8c-15.7-3.2-28-15.5-31.2-31.2H288v31.2zm16 0V132c0-4.4-3.6-8-8-8h-39.2c3.8-18.6 20.2-32 39.2-32 22.1 0 40 17.9 40 40 .1 19-13.3 35.4-32 39.2zm86.6 75.6c-2.7-3.5-7.8-4.1-11.2-1.4-.2.2-.5.4-.7.6l-60.2 52.7-51.4-22c-1.9-.8-4-.9-6-.1l-64 24c-4.1 1.5-6.2 6.2-4.7 10.3 1.2 3.1 4.2 5.2 7.5 5.2 1 0 1.9-.2 2.8-.5l61-22.9 53 22.7c2.8 1.2 6.1.7 8.4-1.3l64-56c3.7-2.8 4.3-7.8 1.5-11.3zM152 116H40c-4.4 0-8 3.6-8 8s3.6 8 8 8h112c4.4 0 8-3.6 8-8s-3.6-8-8-8zm286.9 84l-32-56c-2.5-3.8-7.7-4.9-11.5-2.4-.9.6-1.7 1.4-2.4 2.4l-32 56c-2.2 3.8-.9 8.7 2.9 10.9 1.2.7 2.6 1.1 4 1.1h64c4.4 0 8-3.6 8-8 .1-1.4-.3-2.8-1-4zm-57.1-4l18.2-31.9 18.2 31.9h-36.4z"/></symbol><symbol viewBox="0 0 270.1 512.1" id="icon-palns-01" xmlns="http://www.w3.org/2000/svg"><path d="M251.3 97.8V70.2c10.8-3.3 18.8-13.6 18.8-25.8V26.9C270 12.1 258.2 0 243.8 0H26.3C11.8 0 0 12.1 0 26.9v17.5c0 12.2 7.9 22.5 18.8 25.8v27.6c0 4.7 2.6 8.8 6.4 10.9L1.3 499c-.2 3.4 1 6.8 3.3 9.3 2.3 2.4 5.5 3.8 8.8 3.8h28.3c6.3 0 11.5-4.8 12.1-11.1l10.7-105.4h140.8L216 501c.6 6.3 5.9 11.1 12.1 11.1h28.3c3.3 0 6.5-1.4 8.8-3.8 2.3-2.5 3.6-5.9 3.3-9.3l-23.9-390.3c4.1-2.2 6.7-6.2 6.7-10.9zM53.5 356.2l-3.2 31.1L39.2 497H16.4L40 110.1h38.5l-25 246.1zm12.6 24.3l1.6-16.1h134.5l1.6 16.1H66.1zM253.6 497h-22.8l-11.2-109.7-3.2-31-4-38.8c-.4-4.1-4.1-7.1-8.2-6.7s-7.1 4.1-6.7 8.2l3.1 30.6H69.3l24.4-239.3h82.7l18.3 179.6c.4 4.1 4.1 7.1 8.2 6.7s7.1-4.1 6.7-8.2l-18.1-178.1H230L253.6 497zm-9.8-440.7H110.6c-4.1 0-7.5 3.4-7.5 7.5s3.4 7.5 7.5 7.5h125.6v23.8H33.8V71.3h48.8c4.1 0 7.5-3.4 7.5-7.5s-3.4-7.5-7.5-7.5H26.3C20 56.3 15 51 15 44.4V26.9C15 20.3 20 15 26.3 15h217.5c6.2 0 11.3 5.3 11.3 11.9v17.5c-.1 6.6-5.1 11.9-11.3 11.9z"/></symbol><symbol id="icon-palns-02" xml:space="preserve" viewBox="0 0 293.3 512.1" xmlns="http://www.w3.org/2000/svg"><style>.aust0{fill:#ebe7e7}</style><path class="aust0" d="M51.4 204.1c-4-1.1-8.2 1.3-9.2 5.3-2.6 9.7 1.6 20 10.3 25.2 3.5 2.1 7.4 3.1 11.4 3.1h169.5c4 0 8-1.1 11.4-3.1 8.5-5 12.8-15.3 10.3-24.8-1-4-5.1-6.5-9.2-5.5-4 1-6.5 5.1-5.5 9.2.8 3.2-.6 6.5-3.4 8.2-1.1.7-2.4 1-3.8 1H63.9c-1.3 0-2.6-.4-3.8-1-2.9-1.7-4.2-5.1-3.4-8.3 1.1-4.1-1.3-8.2-5.3-9.3z"/><path class="aust0" d="M292.6 488.8l-63.2-221h4c9.4 0 18.7-2.5 26.8-7.3 21.8-12.9 31.3-39.5 22.6-63.3l-26.5-72.5c-1.4-3.9-5.8-5.9-9.7-4.5-3.9 1.4-5.9 5.8-4.5 9.7l26.5 72.5c6.2 17-.6 36-16.1 45.2-5.8 3.4-12.4 5.2-19.1 5.2H63.9c-6.7 0-13.3-1.8-19.1-5.2-15.6-9.2-22.3-28.2-16.1-45.2L83.7 52c8.1-22.1 29.3-36.9 52.8-36.9h24.6c23.5 0 44.7 14.8 52.8 36.9l18.1 49.6c1.4 3.9 5.8 5.9 9.7 4.5 3.9-1.4 5.9-5.8 4.5-9.7l-18.1-49.6C217.7 18.8 190.8 0 161 0h-24.6c-29.8 0-56.7 18.8-66.9 46.8l-55 150.4c-8.7 23.8.8 50.4 22.6 63.3 8.1 4.8 17.4 7.3 26.8 7.3h.1L25.6 402c-1.1 4 1.2 8.2 5.2 9.3a7.472 7.472 0 009.3-5.2l39.5-138.2h21.3l-79.8 227c-.4 1.2-1.6 2.1-2.9 2.1-1.3 0-2.1-.8-2.5-1.2-.4-.4-.9-1.4-.5-2.7l17-59.6c1.1-4-1.2-8.2-5.2-9.3-4-1.1-8.2 1.2-9.3 5.2L.7 489c-1.6 5.5-.5 11.3 3 15.9s8.8 7.2 14.5 7.2c7.7 0 14.6-4.9 17.1-12.1l38-108c.4-.2.9-.5 1.3-.8l71.6-58 72.8 55.9c.1 0 .1.1.2.1l38.9 110.6c2.6 7.3 9.4 12.1 17.1 12.1 5.8 0 11-2.6 14.5-7.2 3.4-4.5 4.5-10.3 2.9-15.9zM115.5 271.7l18.3 15.4-11.3 8.9-12.2-9.3 5.2-15zm18.8-3.8h24.1l-12.5 9.8-11.6-9.8zm11.3 29.1l10.4 8.8-10.1 8.2-11.1-8.5 10.8-8.5zm22.3-.8l-10.2-8.6 20.2-15.8 4.5 12.7-14.5 11.7zm-85.2 69l22.4-63.6 28.8 22.1-51.2 41.5zm75.5-41.8l29.5-23.9 22.4 63.7-51.9-39.8zm119.4 172.3c-.3.5-1.1 1.2-2.5 1.2-1.3 0-2.5-.8-2.9-2.1l-79.8-227h21.3L278.1 493c.4 1.3-.1 2.2-.5 2.7z"/></symbol><symbol viewBox="0 0 413.8 512" id="icon-palns-03" xmlns="http://www.w3.org/2000/svg"><path d="M402.1 163.6c-7.3-7.9-17.2-13-27.9-14.2L327.6 40.2C317.1 15.8 293.2 0 266.7 0H147.3c-26.5 0-50.4 15.8-60.9 40.2L39.7 149.4c-10.6 1.2-20.6 6.2-27.9 14.2-8.4 9.2-12.7 21.6-11.6 34L12.1 336c1 11.8 9.2 21.3 20.1 24.3V384c0 4.1 3.4 7.5 7.5 7.5s7.5-3.4 7.5-7.5v-22.7H86L54 495.1c-.3 1.1-1.2 1.9-2.4 1.9h-2c-1.3 0-2.4-1.1-2.4-2.4V416c0-4.1-3.4-7.5-7.5-7.5s-7.5 3.4-7.5 7.5v78.6c0 9.6 7.8 17.4 17.4 17.4h2c8.1 0 15.1-5.5 17-13.4l32.8-137.3h155.4c4.1 0 7.5-3.4 7.5-7.5s-3.4-7.5-7.5-7.5H89.5v-17.2h235v17.2h-35.6c-4.1 0-7.5 3.4-7.5 7.5s3.4 7.5 7.5 7.5h23.6l32.8 137.3c1.9 7.9 8.9 13.4 17 13.4h2c9.6 0 17.4-7.8 17.4-17.4V360.4c10.9-3 19.1-12.5 20.1-24.3l11.9-138.4c1.1-12.5-3.1-24.9-11.6-34.1zM100.2 46.1c8.1-18.9 26.5-31.1 47.1-31.1h119.4c20.5 0 39 12.2 47.1 31.1l44.6 104.4c-19.4 4.8-33.9 22.4-33.9 43.4v54.5H158.4c-4.1 0-7.5 3.4-7.5 7.5s3.4 7.5 7.5 7.5h174.3c7.8 0 14.2 6.4 14.2 14.2V300c0 7.8-6.4 14.2-14.2 14.2H81.3c-7.8 0-14.2-6.4-14.2-14.2v-22.5c0-7.8 6.4-14.2 14.2-14.2h45.2c4.1 0 7.5-3.4 7.5-7.5s-3.4-7.5-7.5-7.5H89.6v-54.5c0-20.9-14.5-38.5-33.9-43.4l44.5-104.3zM27.1 334.8L15.2 196.4c-.7-8.4 2-16.4 7.7-22.6 5.7-6.2 13.4-9.6 21.8-9.6h.1c16.4 0 29.7 13.3 29.7 29.7v55.3c-12.8 3.1-22.4 14.6-22.4 28.4V300c0 13.8 9.6 25.3 22.4 28.4v18H39.8c-6.7 0-12.1-5-12.7-11.6zM364.3 497h-2c-1.1 0-2.1-.8-2.4-1.9l-32-133.8h38.8v133.2c0 1.4-1.1 2.5-2.4 2.5zm34.5-300.6l-11.9 138.4c-.6 6.6-6 11.6-12.6 11.6h-34.7v-18c12.8-3.1 22.4-14.6 22.4-28.4v-22.5c0-13.8-9.6-25.3-22.4-28.4v-55.3c0-16.4 13.3-29.7 29.7-29.7 8.4 0 16.2 3.4 21.8 9.6 5.7 6.2 8.4 14.3 7.7 22.7z"/></symbol><symbol id="icon-palns-04" xml:space="preserve" viewBox="0 0 476 380" xmlns="http://www.w3.org/2000/svg"><style>.awst0{fill:#ebe7e7}</style><path class="awst0" d="M368 256h12v12h-12zm-64 0h44v12h-44z"/><path class="awst0" d="M406 380c-3.3 0-6-2.7-6-6v-26H204v26c0 3.3-2.7 6-6 6h-64c-3.3 0-6-2.7-6-6V166c0-12.1 9.9-22 22-22h42V38c0-20.9 17.1-38 38-38h144c20.9 0 38 17.1 38 38v106h42c12.1 0 22 9.9 22 22v208c0 3.3-2.7 6-6 6h-64zm6-12h52V166c0-5.5-4.5-10-10-10h-42v212zM150 156c-5.5 0-10 4.5-10 10v202h52V156h-42zm54 180h196v-36H204v36zm0-48h196v-68H204v68zm26-276c-14.3 0-26 11.7-26 26v170h196V38c0-14.3-11.7-26-26-26H230zM39.1 76c.2-1.8.6-3.6 1.2-5.3.8-2.2.8-4.5 0-6.7-1.7-4.7-1.7-9.9 0-14.6.2-.4.3-.9.4-1.4h12.1c-.2 1.8-.6 3.6-1.2 5.3-.8 2.2-.8 4.5 0 6.7 1.7 4.7 1.7 9.9 0 14.6-.2.4-.3.9-.4 1.4H39.1zm24 0c.2-1.8.6-3.6 1.2-5.3.8-2.2.8-4.5 0-6.7-1.7-4.7-1.7-9.9 0-14.6.2-.4.3-.9.4-1.4h12.1c-.2 1.8-.6 3.6-1.2 5.3-.8 2.2-.8 4.5 0 6.7 1.7 4.7 1.7 9.9 0 14.6-.2.4-.3.9-.4 1.4H63.1zM16 380v-12h16V204H6c-3.3 0-6-2.7-6-6v-32c0-3.3 2.7-6 6-6h20.3l-2.5-3.2c-5-6.5-7.8-14.6-7.8-22.8v-32c0-3.3 2.7-6 6-6h80c12.1 0 22 9.9 22 22s-9.9 22-22 22H91.6l-.3 1.6c-1.2 5.5-3.6 10.7-7 15.2l-2.5 3.2H102c3.3 0 6 2.7 6 6v32c0 3.3-2.7 6-6 6H76v164h16v12H16zm28-12h20V204H44v164zM12 192h84v-20H12v20zm16-58c0 14.3 11.7 26 26 26s26-11.7 26-26v-26H28v26zm64-6h10c5.5 0 10-4.5 10-10s-4.5-10-10-10H92v20z"/><path transform="rotate(90 341.915 69.514)" class="awst0" d="M336 63.8h11.8v11.4H336z"/><path transform="rotate(90 262.029 69.514)" class="awst0" d="M256.1 63.8h11.8v11.4h-11.8z"/><path transform="rotate(90 262.029 149.4)" class="awst0" d="M256.1 143.7h11.8v11.4h-11.8z"/><path transform="rotate(90 341.915 149.4)" class="awst0" d="M336 143.7h11.8v11.4H336z"/></symbol><symbol viewBox="0 0 512 512" id="icon-phone-old" xmlns="http://www.w3.org/2000/svg"><path d="M368 512c-16.5 0-32.9-2.9-48.9-8.7-70.6-25.6-136.1-67.4-189.5-120.8S34.4 263.6 8.7 193C.5 170.3-2 146.9 1.5 123.4c3.2-22 11.8-43.4 24.7-61.8 13-18.5 30.2-33.9 50-44.5C97.2 5.7 120.2 0 144.4 0c7.5 0 14.1 5.3 15.6 12.6l25.1 117.2c1.1 5.3-.5 10.8-4.3 14.7l-42.9 42.9c40.5 80.5 106.2 146.2 186.6 186.6l42.9-42.9c3.8-3.8 9.4-5.5 14.7-4.3l117.2 25.1c7.4 1.6 12.6 8.1 12.6 15.6 0 24.3-5.7 47.2-17.1 68.3-10.6 19.7-26 37-44.5 50-18.4 12.9-39.8 21.4-61.8 24.7-6.8 1-13.7 1.5-20.5 1.5zM131.6 32.7c-32 3.5-60.4 20.3-79.2 47.2-21.2 30.3-26.2 67.5-13.6 102.1C88.1 317.8 194.2 423.9 330 473.2c34.6 12.6 71.9 7.6 102.1-13.6 26.9-18.9 43.7-47.3 47.2-79.2L384 359.9l-44.8 44.8c-4.8 4.8-12 6-18.1 3.2-95.2-44.7-172.2-121.8-217-217-2.9-6.1-1.6-13.3 3.2-18.1l44.8-44.8-20.5-95.3z"/></symbol><symbol id="icon-qube" xml:space="preserve" viewBox="0 0 512 512" xmlns="http://www.w3.org/2000/svg"><style>.ayst0{fill:#262626}</style><path class="ayst0" d="M258.5 420c.9-.2 1.8-.6 2.7-1.1l69.2-41.7 29.8 29.6c1.9 1.9 4.4 2.9 7 2.9h77.6c5.5 0 10-4.5 10-10s-4.5-10-10-10h-73.5L348 366.5l42.7-25.7c3-1.8 4.8-5.1 4.8-8.6V179.7c0-3.5-1.9-6.8-4.8-8.6l-129.5-78c-3.2-1.9-7.1-1.9-10.3 0l-69.2 41.7-29.8-29.6c-1.9-1.9-4.4-2.9-7-2.9H67.1c-5.5 0-10 4.5-10 10s4.5 10 10 10h73.5l23.3 23.2-42.7 25.7c-3 1.8-4.8 5.1-4.8 8.6v31.4c0 5.5 4.5 10 10 10s10-4.5 10-10v-13.7l109.5 66v129.2l-109.5-66V301c0-5.5-4.5-10-10-10s-10 4.5-10 10v31.4c0 3.5 1.8 6.8 4.8 8.6l129.5 78c2.4 1.2 5.2 1.6 7.8 1zm117-93.4L333.4 352l-29.2-29c-3.9-3.9-10.3-3.9-14.1.1-3.9 3.9-3.9 10.3.1 14.1l25.6 25.4-49.7 30V263.4l109.5-66v129.2zM221.9 174.8l-25.6-25.4 59.7-36 110.2 66.4L256 246.1l-110.2-66.3 32.8-19.7 29.2 29c1.9 1.9 4.5 2.9 7 2.9 2.6 0 5.1-1 7.1-3 3.9-4 3.9-10.3 0-14.2z"/><path class="ayst0" d="M90.6 164.5c5.5 0 10-4.5 10-10s-4.5-10-10-10H67.1c-5.5 0-10 4.5-10 10s4.5 10 10 10h23.5zM57.1 70.1c0 5.5 4.5 10 10 10h77.6c5.5 0 10-4.5 10-10s-4.5-10-10-10H67.1c-5.5 0-10 4.5-10 10zm387.7 297.4c5.5 0 10-4.5 10-10s-4.5-10-10-10h-23.5c-5.5 0-10 4.5-10 10s4.5 10 10 10h23.5zm10 74.4c0-5.5-4.5-10-10-10h-77.6c-5.5 0-10 4.5-10 10s4.5 10 10 10h77.6c5.5 0 10-4.5 10-10z"/><path class="ayst0" d="M10 135.6c5.5 0 10-4.5 10-10V20h105.6c5.5 0 10-4.5 10-10s-4.5-10-10-10H10C4.5 0 0 4.5 0 10v115.6c0 5.5 4.5 10 10 10zM502 0H386.4c-5.5 0-10 4.5-10 10s4.5 10 10 10H492v105.6c0 5.5 4.5 10 10 10s10-4.5 10-10V10c0-5.5-4.5-10-10-10zM125.6 492H20V386.4c0-5.5-4.5-10-10-10s-10 4.5-10 10V502c0 5.5 4.5 10 10 10h115.6c5.5 0 10-4.5 10-10s-4.5-10-10-10zM502 376.4c-5.5 0-10 4.5-10 10V492H386.4c-5.5 0-10 4.5-10 10s4.5 10 10 10H502c5.5 0 10-4.5 10-10V386.4c0-5.5-4.5-10-10-10zM126.4 266c5.5 0 10-4.5 10-10s-4.5-10-10-10-10 4.5-10 10v.1c0 5.5 4.5 9.9 10 9.9z"/></symbol><symbol id="icon-rule" xml:space="preserve" viewBox="0 0 512 512" xmlns="http://www.w3.org/2000/svg"><style>.azst0{fill:#c7babb}</style><path class="azst0" d="M497 337H175V15c0-8.3-6.7-15-15-15H15C6.7 0 0 6.7 0 15v482c0 8.3 6.7 15 15 15h482c8.3 0 15-6.7 15-15V352c0-8.3-6.7-15-15-15zM30 30h115v43h-33c-8.3 0-15 6.7-15 15s6.7 15 15 15h33v34h-17c-8.3 0-15 6.7-15 15s6.7 15 15 15h17v34h-33c-8.3 0-15 6.7-15 15s6.7 15 15 15h33v34h-17c-8.3 0-15 6.7-15 15s6.7 15 15 15h17v42H30V30zm0 337h115v115H30V367zm452 115H175V367h42v33c0 8.3 6.7 15 15 15s15-6.7 15-15v-33h34v17c0 8.3 6.7 15 15 15s15-6.7 15-15v-17h34v33c0 8.3 6.7 15 15 15s15-6.7 15-15v-33h34v17c0 8.3 6.7 15 15 15s15-6.7 15-15v-17h43v115z"/><path class="azst0" d="M102.7 421.1c-1.9-8.9-10.7-13.9-19.1-11.4-8.6 2.8-12.2 11.3-10 18.7 2.8 8.7 11.4 12.2 18.7 10 8-2.6 11.8-10.1 10.4-17.3z"/></symbol><symbol viewBox="0 0 368 368" id="icon-square" xmlns="http://www.w3.org/2000/svg"><path d="M360 0H8C3.584 0 0 3.584 0 8v352c0 4.416 3.584 8 8 8h48c4.416 0 8-3.584 8-8v-8h232c2.12 0 4.16-.84 5.656-2.344l48-48A7.979 7.979 0 00352 296V64h8c4.416 0 8-3.584 8-8V8c0-4.416-3.584-8-8-8zM16 16h32v32H16V16zm32 336H16V64h32v288zm244.688-16h-.059L336 292.687v.001L292.688 336zM336 292.688L292.688 336H64V192h40c4.416 0 8-3.584 8-8s-3.584-8-8-8H64V64h112v40c0 4.416 3.584 8 8 8s8-3.584 8-8V64h144v228.688zM352 48H64V16h288v32z"/><path d="M184 144c-4.416 0-8 3.584-8 8v24h-24c-4.416 0-8 3.584-8 8s3.584 8 8 8h32c4.416 0 8-3.584 8-8v-32c0-4.416-3.584-8-8-8z"/></symbol><symbol viewBox="0 0 242.7 242.7" id="icon-telegram" xmlns="http://www.w3.org/2000/svg"><path d="M162.3 84.7c-.7-.2-5 1.9-9.7 4.8l-48.5 29.8c-4.7 2.9-9.3 6.3-10.4 7.5-1 1.3.2 9.5 1.7 14.7l1.6 5.6c1.5 5.3 3.4 10 4.3 10.4.8.4 2.2-4.1 2.7-7.8.5-3.8 1.3-7.9 1.7-9.3.4-1.4 6-7.3 10-11l39.4-36.6c4-3.7 7.8-7.9 7.2-8.1zm0 0c-.7-.2-5 1.9-9.7 4.8l-48.5 29.8c-4.7 2.9-9.3 6.3-10.4 7.5-1 1.3.2 9.5 1.7 14.7l1.6 5.6c1.5 5.3 3.4 10 4.3 10.4.8.4 2.2-4.1 2.7-7.8.5-3.8 1.3-7.9 1.7-9.3.4-1.4 6-7.3 10-11l39.4-36.6c4-3.7 7.8-7.9 7.2-8.1zm0 0c-.7-.2-5 1.9-9.7 4.8l-48.5 29.8c-4.7 2.9-9.3 6.3-10.4 7.5-1 1.3.2 9.5 1.7 14.7l1.6 5.6c1.5 5.3 3.4 10 4.3 10.4.8.4 2.2-4.1 2.7-7.8.5-3.8 1.3-7.9 1.7-9.3.4-1.4 6-7.3 10-11l39.4-36.6c4-3.7 7.8-7.9 7.2-8.1zM0 36v170.7c0 19.9 16.1 36 36 36h170.7c19.9 0 36-16.1 36-36V36c0-19.9-16.1-36-36-36H36C16.1 0 0 16.1 0 36zm192.8 24c.7 1.5.3 7.2-.8 12.6l-20.6 99.1c-1.1 5.4-2.9 10.7-4 11.8-1.1 1.1-7.9-2.3-12.3-5.5l-17.5-12.7c-4.5-3.2-9.2-6.2-10.5-6.6-1.3-.4-7.9 3.7-12.1 7.2l-3.2 2.6c-4.3 3.5-9 6.5-10.5 6.7s-4.9-6.6-6.5-11.8L90 148.1c-3.3-10.6-11.4-19.1-21.8-23l-7.6-2.8c-5.2-1.9-10.1-4.9-11.1-6.5s5.9-6 11-7.9L179.4 62c5.1-2.1 12.7-3.6 13.4-2zm-30.5 24.7c-.7-.2-5 1.9-9.7 4.8l-48.5 29.8c-4.7 2.9-9.3 6.3-10.4 7.5-1 1.3.2 9.5 1.7 14.7l1.6 5.6c1.5 5.3 3.4 10 4.3 10.4.8.4 2.2-4.1 2.7-7.8.5-3.8 1.3-7.9 1.7-9.3.4-1.4 6-7.3 10-11l39.4-36.6c4-3.7 7.8-7.9 7.2-8.1zm0 0c-.7-.2-5 1.9-9.7 4.8l-48.5 29.8c-4.7 2.9-9.3 6.3-10.4 7.5-1 1.3.2 9.5 1.7 14.7l1.6 5.6c1.5 5.3 3.4 10 4.3 10.4.8.4 2.2-4.1 2.7-7.8.5-3.8 1.3-7.9 1.7-9.3.4-1.4 6-7.3 10-11l39.4-36.6c4-3.7 7.8-7.9 7.2-8.1z"/></symbol><symbol viewBox="0 0 512 512" id="icon-youtube" xmlns="http://www.w3.org/2000/svg"><path d="M221.1 196l95.5 55-95.5 54.9z"/><path d="M437 0H75C33.7 0 0 33.6 0 75v362c0 41.3 33.7 75 75 75h362c41.3 0 75-33.6 75-75V75c0-41.4-33.7-75-75-75zm4 251.3s0 59.5-7.5 88.2c-4.2 15.7-16.6 28.1-32.3 32.3-28.7 7.5-143.5 7.5-143.5 7.5s-114.5 0-143.5-7.8c-15.7-4.2-28.1-16.6-32.3-32.3-7.5-28.4-7.5-88.2-7.5-88.2s0-59.5 7.5-88.2c4.2-15.7 16.9-28.4 32.3-32.6 28.7-7.5 143.5-7.5 143.5-7.5s114.8 0 143.5 7.8c15.7 4.2 28.1 16.6 32.3 32.3 7.8 28.7 7.5 88.5 7.5 88.5z"/></symbol><symbol id="icon-zoom" xml:space="preserve" viewBox="0 0 512 512" xmlns="http://www.w3.org/2000/svg"><style>.bdst0{fill:#ccc2c3}</style><path class="bdst0" d="M0 466.9c0 12.1 4.7 23.4 13.2 31.9C22 507.6 33.6 512 45.1 512s23.1-4.4 31.9-13.2l136.5-136.5c29.9 18.5 65.1 29.2 102.7 29.2 107.9 0 195.8-87.8 195.8-195.8S424.2 0 316.3 0 120.5 87.8 120.5 195.8c0 37.7 10.7 72.9 29.2 102.7L13.2 435C4.7 443.5 0 454.8 0 466.9zm482-271.1c0 91.4-74.4 165.8-165.8 165.8s-165.8-74.4-165.8-165.8S224.9 30 316.3 30 482 104.4 482 195.8zM30 466.9c0-4 1.6-7.8 4.4-10.7L167.6 323c6.6 7.7 13.7 14.8 21.4 21.4L55.8 477.6c-5.9 5.9-15.5 5.9-21.4 0-2.8-2.9-4.4-6.7-4.4-10.7z"/><path class="bdst0" d="M451.8 195.8c0-74.7-60.8-135.5-135.5-135.5S180.8 121 180.8 195.8s60.8 135.5 135.5 135.5 135.5-60.8 135.5-135.5zm-30 0c0 58.2-47.3 105.5-105.5 105.5S210.8 254 210.8 195.8 258.1 90.3 316.3 90.3s105.5 47.3 105.5 105.5z"/></symbol><symbol viewBox="0 0 512 512" id="slidesgo" xmlns="http://www.w3.org/2000/svg"><path d="M96.516 215.577l-62.808-10.362h-.681c-2.043 0-3.745 1.529-3.745 3.737v4.926l57.191 9.343c4.085.679 7.149 4.247 7.149 8.493v49.091l4.766.849h.681c2.043 0 3.745-1.529 3.745-3.737v-55.036c-.17-3.737-2.723-6.795-6.298-7.304z"/><path d="M82.219 228.487l-62.978-10.362h-.681c-2.043 0-3.745 1.529-3.745 3.737v5.096l56.68 9.343c4.085.679 7.149 4.247 7.149 8.493v49.261l4.766.849h.681c2.043 0 3.745-1.529 3.745-3.737v-56.056c0-3.227-2.383-6.115-5.617-6.624z"/><path d="M67.411 240.887L4.603 230.525h-.681c-2.043 0-3.745 1.529-3.745 3.737v57.075c0 2.548 1.872 4.756 4.425 5.096l64.34 10.702h.681c2.043 0 3.745-1.529 3.745-3.737v-55.546c-.17-3.398-2.553-6.286-5.957-6.965zm-38.808 39.239c0 1.189-1.532 1.699-2.383.849l-15.319-14.099c-.851-.68-.851-2.038 0-2.378l15.319-8.833c1.021-.51 2.383.34 2.383 1.699zm32.169-5.096l-15.319 9.173c-1.021.679-2.383-.34-2.383-1.699v-22.932c0-1.189 1.362-1.699 2.383-.849l15.319 13.759c.851.849.851 2.038 0 2.548zM169.707 246.323c-4.255-2.038-10.893-4.247-16.851-4.247-5.447 0-8.17 1.869-8.17 4.756 0 3.058 3.745 3.737 8.681 4.586l4.766.679c11.404 1.699 17.872 6.795 17.872 15.797 0 10.871-9.021 18.006-24.34 18.006-7.149 0-16.681-1.359-23.489-6.285l5.617-10.871c4.596 3.057 10.042 5.266 18.042 5.266 6.638 0 9.872-1.869 9.872-4.926 0-2.548-2.723-3.907-8.851-4.926l-4.255-.679c-12.255-1.699-18.383-6.964-18.383-15.967 0-10.871 8.34-17.326 22.298-17.326 8.511 0 15.149 1.529 22.127 5.096zm27.914 38.219h-14.297v-78.648h14.297zm25.191-70.664c.17 6.285-5.447 10.871-12.085 9.003-2.383-.679-4.936-3.227-5.617-5.606-2.043-6.625 2.553-12.4 8.851-12.23 4.766.17 8.681 4.077 8.851 8.833zm-1.872 70.494h-14.298v-52.828h14.298zm47.319-47.392v-31.255h14.298v78.648h-13.958v-5.775c-3.404 4.247-8.511 7.134-15.83 7.134-14.638 0-25.702-11.891-25.702-27.858s11.064-27.858 25.702-27.858c7.149-.001 12.085 2.887 15.49 6.964zm-26.553 20.893c0 8.154 5.277 14.608 13.617 14.608 8.17 0 13.617-6.285 13.617-14.608s-5.447-14.608-13.617-14.608c-8.341 0-13.617 6.625-13.617 14.608zm100.254 0c0 1.699-.17 3.567-.34 4.756h-37.617c1.532 7.644 6.808 11.041 13.617 11.041 4.596 0 9.532-1.869 13.447-5.096l8.34 9.173c-5.957 5.436-13.617 7.984-22.638 7.984-16.17 0-27.574-11.041-27.574-27.688s10.893-28.028 26.723-28.028c15.489 0 25.871 11.381 26.042 27.858zm-37.787-4.926h23.489c-1.362-6.795-5.447-10.532-11.574-10.532-6.809.001-10.724 3.908-11.915 10.532zm83.063-6.624c-4.255-2.038-10.893-4.247-16.851-4.247-5.447 0-8.17 1.869-8.17 4.756 0 3.058 3.745 3.737 8.681 4.586l4.766.679c11.404 1.699 17.872 6.795 17.872 15.797 0 10.871-9.021 18.006-24.34 18.006-7.149 0-16.681-1.359-23.489-6.285l5.617-10.871c4.596 3.057 10.042 5.266 18.042 5.266 6.638 0 9.872-1.869 9.872-4.926 0-2.548-2.723-3.907-8.851-4.926l-4.255-.679c-12.255-1.699-18.383-6.964-18.383-15.967 0-10.871 8.34-17.326 22.298-17.326 8.511 0 15.149 1.529 22.127 5.096zm55.829-5.946v-7.814h8.17v48.072c0 16.817-11.404 26.159-27.404 26.159-8.34 0-16.51-2.548-21.787-6.964l3.574-6.625a30.106 30.106 0 0018.213 6.115c11.234 0 19.234-6.455 19.234-18.515v-5.266c-3.915 5.436-10.042 8.833-18.553 8.833-14.468 0-25.702-10.871-25.702-26.499s11.064-26.499 25.702-26.499c8.51.34 14.638 3.737 18.553 9.003zm-35.745 17.836c0 10.532 7.319 18.855 18.213 18.855 11.064 0 18.893-8.833 18.213-20.214-.511-9.852-8.851-17.666-18.723-17.496-10.554.17-17.703 8.493-17.703 18.855zm104.68 0c0 15.288-11.745 26.839-27.234 26.839s-27.234-11.551-27.234-26.839 11.574-26.839 27.234-26.839S512 242.925 512 258.213zm-46.127 0c0 11.211 8.17 19.195 18.893 19.195s18.893-8.154 18.893-19.195c0-11.211-8.17-19.195-18.893-19.195s-18.893 7.984-18.893 19.195z"/></symbol></svg>