<svg version="1.0" xmlns="http://www.w3.org/2000/svg" width="1706.667" height="1624" viewBox="0 0 1280 1218"><path d="M1206.7 1c-13.4 2.4-27.9 8.5-37.3 15.6-9.6 7.3-131.1 120.9-400.4 374.4-207 194.8-257.8 242.5-332.5 311.9-28 26.1-56.6 53-63.4 59.8-6.9 6.8-13.5 12.6-14.8 12.9-1.7.5-6.8-1.4-17.6-6.4-8.4-3.9-29.9-13.4-47.9-21.1-18.1-7.8-47.3-20.4-65-28-211.7-91.2-196.4-85-207.1-83-8.2 1.5-14.2 5.8-17.7 12.7-5.4 10.4-2.9 21.8 8.5 39.2 5.2 7.8 28.8 49.1 68.5 119.5 93.8 166.5 128.6 226.9 171.8 298 25 41.2 47.8 78.4 50.8 82.6 6.6 9.4 18.4 20.8 24.7 23.7 6.2 2.9 15.1 5.2 20.2 5.2 9.9 0 22.1-5.1 30.7-12.9 6.4-5.7 10.8-12 27.1-38.6 18.3-30 33.9-54.3 53.6-84 159.8-239.6 356.7-488.1 758.3-956.7 29.5-34.5 54.8-64.5 56.2-66.7 1.4-2.2 3.5-6.8 4.7-10.3 6.7-19.8-7.7-38.8-34.8-45.9-8.8-2.3-28.8-3.4-36.6-1.9z"/></svg>