<svg xmlns="http://www.w3.org/2000/svg" viewBox="0 0 330 330"><path d="M281.673 48.327C250.509 17.163 209.073 0 165 0S79.492 17.163 48.328 48.327c-64.333 64.333-64.334 169.011-.001 233.345C79.491 312.837 120.927 330 165 330s85.509-17.163 116.673-48.328c64.333-64.334 64.333-169.012 0-233.345zM260.46 260.459C234.962 285.957 201.059 300 165 300s-69.962-14.043-95.46-39.541c-52.636-52.637-52.635-138.282.001-190.919C95.039 44.042 128.94 30 165 30s69.962 14.042 95.46 39.54c52.635 52.636 52.635 138.282 0 190.919z"/><path d="M186.213 165l53.032-53.033c5.858-5.857 5.858-15.355 0-21.213-5.857-5.857-15.355-5.857-21.213 0L165 143.787l-53.033-53.033c-5.857-5.857-15.355-5.857-21.213 0-5.858 5.857-5.858 15.355 0 21.213L143.787 165l-53.033 53.033c-5.858 5.857-5.858 15.355 0 21.213a14.954 14.954 0 0010.607 4.394 14.95 14.95 0 0010.606-4.394L165 186.213l53.033 53.032a14.954 14.954 0 0010.606 4.394c3.839 0 7.678-1.465 10.607-4.394 5.858-5.857 5.858-15.355 0-21.213L186.213 165z"/></svg>